<?xml version="1.0" encoding="utf-8"?>
<!-- Generator: Adobe Illustrator 22.0.1, SVG Export Plug-In . SVG Version: 6.00 Build 0)  -->
<svg version="1.1" id="Layer_1" xmlns="http://www.w3.org/2000/svg" xmlns:xlink="http://www.w3.org/1999/xlink" x="0px" y="0px"
	 viewBox="0 0 589.5 192.3" style="enable-background:new 0 0 589.5 192.3;" xml:space="preserve">
<style type="text/css">
	.st0{fill:#007AC2;}
	.st1{fill:#FFFFFF;}
</style>
<g>
	<rect x="0" y="0.4" class="st0" width="191.9" height="191.9"/>
	<g>
		<path class="st1" d="M155.5,83.6l4.9-3.6c-1.9-2-3.9-4.4-3.9-8.2c0-2.9,2-6.1,4.5-7.4c-1.3-1.6-3.5-3.1-6.5-3.1
			c-4,0-7.3,2.9-7.3,6.8c0,2.7,1.7,4.9,3.7,6C151,77.8,152.7,81.1,155.5,83.6 M129.2,57.5l4.1-7.3h-6.1c0,1.3-1.2,2.8-2.7,2.8
			c-1.6,0-2.7-1.1-2.7-2.8h-5.4c0,1.6-1.2,2.8-2.7,2.8c-1.5,0-2.7-1.2-2.7-2.8H105l3.6,7c2.8-0.3,5.4-0.4,8.1-0.4
			C121.6,56.8,125.9,57.1,129.2,57.5 M118,122.3c-0.7-1.2-1.3-2.7-1.3-5.3c0-3.5,2-6.4,6.2-8.2c2.8-1.3,4.9-2.5,8.6-4.4
			c8.8-4.5,11.8-13,11.8-21.8c0-4.4-1.2-7.8-2.7-10.8c0.4,2.4,0.8,4.4,0.8,6.8c0,9.2-3.2,15.9-11.6,20.1c-5.3,2.7-8,3.7-11.2,5.3
			c-4.5,2.4-7,5.4-7,9.2C111.8,117.8,114.2,121.2,118,122.3 M112.8,120.6c-1.5-1.5-3.1-4.1-3.1-7.6c0-4.4,2.9-8.1,8.1-10.8
			c4.5-2.1,7.2-3.2,11.2-5c8.4-4.1,10.9-11.2,10.9-18.7c0-7.3-2.4-11-4.4-13.4c1.5,2.8,1.9,6.1,1.9,8.9c0,8.1-2.4,15.1-11.8,18.9
			c-4.8,2-7.8,2.7-12,4.5c-6.5,3.1-9,6.6-9,12C104.6,114.3,107.8,119.1,112.8,120.6 M107.8,119.5c-2.3-1.9-5.2-4.9-5.2-10.4
			c0-5.7,2.4-10,9.8-13.1c4.8-2,7.3-2.9,11.8-4.6c9.6-3.6,11.6-10.6,11.6-17.5c0-6.6-2.4-10.5-5.3-13c1.7,2.1,2.8,5.7,2.8,9.4
			c0,8.8-3.3,13.7-12.8,17c-3.9,1.2-8,2.4-12.2,4c-7.7,2.9-11.7,7.2-11.7,14.3C96.6,113,102.4,118.6,107.8,119.5 M102.5,118.6
			c-5.3-2.7-7.8-8.4-7.8-13.4c0-7.3,4.5-12.5,12.1-15.3c4.7-1.7,8.4-2.8,13-4.4c9-3.2,12-7.4,12-15.5c0-4.6-1.7-8.6-4.5-10.9
			c0.9,1.1,1.2,2.4,1.2,3.6c0,2.3-1.2,3.3-2.9,3.3c-1.1,0-2.1-0.7-2.3-1.7c0.5,0.4,0.9,0.5,1.5,0.5c1.5,0,2.3-1.1,2.3-2.5
			c0-2.3-2.1-3.5-4.3-3.7c-1.9-0.3-3.9-0.3-6.1-0.3s-4.4,0.1-7.2,0.3c1.7,2.4,7.4,1.7,9.2,2.9c-1.5-0.1-2.9-0.1-4.4,0.3
			c0,0.9-0.4,2-1.3,2c-1.7,0-2.5-1.9-3.7-5.2l-6.8,0.5c-1.1,0.1-1.5,0.5-1.3,1.3l0.7,6.6c0,0.3,0.3,0.4,0.5,0.4
			c0.3,0,0.5-0.1,0.7-0.5c0.3-0.5,1.1-1.7,3.1-1.7c2.9,0,5.2,2.7,5.3,5.7c-1.1-1.5-3.5-2.8-7.4-2.8c-3.1,0-5.6,0.9-9.6,0.9
			c-4.3,0-6.6-1.6-6.6-3.6c0-0.9,0.1-1.5,0.7-2.1c-1.7,0.8-3.1,2.3-3.1,4.7c0,2.9,2.1,6,8.4,6c5.7,0,8.4-3.6,13.5-3.6
			c2.4,0,3.6,1.2,3.6,2.5c0,1.2-1.1,2.3-2.9,2.3c-2.3,0-3.9-1.2-4.6-2.4c-0.1-0.3-0.3-0.4-0.5-0.4c-0.4,0-0.5,0.3-0.5,0.5l0.1,6.4
			c0,0.8,0.4,1.2,1.3,1.1c4-0.4,8.1-0.9,12-1.2c7.2-0.7,12.1-5.4,12.1-10.8c0-0.8,0-1.5-0.1-2.3c0.7,1.1,0.9,2.1,0.9,3.5
			c0,4.9-2.7,8.6-11.2,10.9c-4.5,1.2-7.8,1.7-11.7,2.7c-10.2,2.4-16.9,10.2-16.9,19C88.7,110.2,94.4,117.5,102.5,118.6 M58,70.6
			c0.5-1.2,0.7-2.3,0.7-3.1c0-1.7-0.8-3.3-1.6-4c2,0,3.7,1.5,3.7,3.5C60.8,68.9,59.6,70.1,58,70.6 M82.4,102.2l4.3-2.3
			c1.5-8.9,6.8-15.1,16.1-17.4c-4.9,0.3-9.2,0.4-15.1,0.7c-6.4,0.3-16.9,1.1-24.2,1.6C62,85,61,84.4,60.6,83.2
			c-0.4-1.3-1.2-3.9-1.3-5.3c-0.1-1.2,0.1-2,1.2-2.8c2.1-1.5,4.3-3.2,4.3-6.8c0-3.9-3.3-6.4-6.4-6.4c-1.1,0-1.9,0.1-2.5,0.4
			c-0.8-0.5-1.6-0.9-3.2-0.9c-2.3,0-4.3,1.5-4.8,2.7c-3.8-0.3-6.9,2.5-6.6,6.2c0.5-0.5,1.6-1.1,2.8-1.1c1.5,0,2.8,1.1,2.8,2.7
			c0,1.5-0.3,3.3-0.3,5.3c0,6.1,4.9,9.3,4.9,12.5c0,1.6-1.2,2.9-2.8,2.9c0.9,3.3,4,5,8.1,5c2.7,0,5-0.3,8.9-0.3
			C76.7,97.4,81.5,98.6,82.4,102.2 M123.3,139.8h1.3c-0.1-4.3-1.2-7.2-2.9-10.2c-0.9-1.7-2.1-3.6-3.1-4.8c-0.5-0.8-1.2-1.1-2-1.1
			c-0.5,0-0.9,0.4-0.5,1.1c1.1,1.7,2.5,4.4,4.4,8.5c-1.6,0.3-2,1.1-2,2.4C118.6,137.8,120.6,139.8,123.3,139.8 M52.8,71.1
			c0.1-3.7-1.5-5.7-3.7-6.6c0.4-0.1,0.9-0.4,1.7-0.4c1.7,0,3.6,1.5,3.6,3.7C54.4,69,54,70.3,52.8,71.1 M138,164.7
			c-0.5-1.2-2.3-2.4-4.4-2.4c-1.2,0-2,0.3-2.5,0.5c0.1-1.1,1.2-2.3,3.3-2.3C136.9,160.5,138.2,162.5,138,164.7 M137.2,170.4
			c-0.8-0.9-2.1-1.7-3.9-1.7c-2.1,0-3.2,0.9-3.7,1.6c-0.3-1.6,1.1-3.6,3.6-3.6C135.8,166.6,137.2,168.5,137.2,170.4 M42.7,107
			c0.9-2.3,3.1-3.9,5.6-4.4c0.5-0.8,1.2-1.5,1.9-2l-4.5-18.9c-0.5-1.3-0.9-2.7-0.9-4.5c0-2,0.4-4,0.4-5c0-0.9-0.5-1.2-1.1-1.2
			c-0.4,0-0.7,0-0.8,0.1v0.5c0,3.1-1.9,5.4-4.9,5.4c-3.1,0-5.4-2.5-5.4-5.4s2.4-5.3,5.4-5.3c0.5,0,1.2,0,2,0.3
			c0.9-2.4,3.9-4.5,6.9-4.1c-2.1-2.7-5.3-4.3-8.9-4.3c-7.7,0-13.8,5.6-13.8,13.4c0,7.3,6,13.1,13.4,13.3L42.7,107z M63.3,135.6
			c2,0,4.1-1.1,6.1-3.1c3.6-3.5,8.6-8.6,11.7-10.6c2.7-1.7,4.4-2.4,6.1-2.4c1.1,0,1.9,0.3,2.7,1.1l4.5-3.5
			c-5.2-3.9-7.6-8.9-7.7-15.1c-7.2,3.9-12.4,9.2-18.3,14.2c-1.1,0.8-1.6,1.2-2.5,1.2c-0.9,0-1.7-0.9-3.3-2.5
			c-1.3-1.3-1.6-2.1-1.6-3.1c0-1.6,0.5-2.1,0.5-4.3c0-4.3-3.3-6.6-6.5-6.6c-2.7,0-4.7,1.5-5.3,3.3c-3.6,0.3-5.8,2.9-5.8,5.7
			c0,0.7,0.1,1.2,0.3,1.6c-1.3,0.8-2.7,2.4-2.7,4.5c0,2.3,1.2,4.4,3.2,5c-0.3-0.4-0.4-0.9-0.4-1.6c0-1.2,1.1-2.3,2.5-2.3
			c1.2,0,2,0.4,2.9,1.5c1.2,1.6,2.4,3.1,4.4,4.8c1.9,1.6,4,2.7,6,3.9c1.2,0.8,2.1,1.9,2.1,3.5c0,1.1-0.8,2.3-2.4,2.7
			C60.4,134.9,61.7,135.6,63.3,135.6 M55.7,109.7c-0.1-2.7-2.1-4.8-4.6-5.3c0.4-0.3,1.1-0.7,2.1-0.7c1.9,0,3.3,1.6,3.3,3.3
			C56.5,108.3,56.1,109,55.7,109.7 M70.5,179.5c-0.5-0.7-0.8-1.3-0.8-2.1c0-1.6,1.3-2.8,3.2-2.8c2.9,0,4.5,3.2,8.4,3.2
			c4.4,0,6.5-3.2,10.5-3.2c2,0,4.8,1.2,4.8,3.7c0,0.4-0.1,0.8-0.4,1.1c4.5,0,7.7-3.9,7.7-10.2c0-8.9-0.3-12.5-0.4-17.4
			c3.5-0.1,6.8-1.9,6.2-7.3c-0.9,0.8-2,1.2-3.2,1.2c-1.6,0-2.8-1.2-2.8-2.9c0-0.8,0-1.7,0.1-2.7l15.5-0.4c-1.5-0.8-2.5-2.4-2.5-4.2
			c0-1.3,0.5-2.3,1.6-2.8c-1.5-3.1-2.7-5.4-4.1-7.7c-0.8-1.2-1.7-2.4-3.6-2.4c-4.1-0.1-12.5,1.1-16.7,2.5c-3.2,1.1-6.2,3.5-6.2,8.9
			c0,5.1,1.7,13.9,1.6,27.9c0,2-0.5,2.7-1.7,2.9c-1.1,0.3-3.9,0.5-5.6,0.3c-0.9-0.1-1.7-0.8-2.3-2.8c-0.7-2.8-2.7-5.6-6.6-5.6
			c-3.6,0-6.8,2.7-6.2,6.6c-1.7,1.1-2.5,2.8-2.5,4.4c0,1.6,0.5,2.9,1.2,3.7c-0.4,0.9-0.5,1.5-0.5,2.4C65,177.1,68,179.5,70.5,179.5
			 M51.7,113.2c-0.8-1.6-2.5-2.5-4.5-2.5c-0.8,0-1.5,0.1-2,0.3c0.3-1.1,1.5-2,3.2-2C50.7,109,52.1,110.7,51.7,113.2 M75,164.7
			c-0.5-1.2-2.3-2.4-4.4-2.4c-1.2,0-2,0.3-2.5,0.5c0.1-1.1,1.2-2.3,3.3-2.3C73.9,160.5,75.3,162.5,75,164.7 M63.7,176.2
			c-0.4-0.8-0.5-1.6-0.5-2.4c0-0.8,0.1-1.5,0.4-2.1c-0.7-1.2-1.1-2.5-1.1-4c0-2,0.9-3.9,2.3-5l-8.2-35.7c-1.3-0.7-2.7-1.5-3.7-2.4
			c-1.9-1.6-2.9-2.8-4.6-4.8c-0.5-0.5-0.9-0.8-1.5-0.8c-0.8,0-1.3,0.5-1.1,1.6l1.7,8.2l3.6,2.5l10,42.8L63.7,176.2z M74.2,170.4
			c-0.8-0.9-2.1-1.7-3.9-1.7c-2.1,0-3.2,0.9-3.7,1.6c-0.3-1.6,1.1-3.6,3.6-3.6C72.9,166.6,74.2,168.5,74.2,170.4 M8.6,180.3l8.1-6.2
			l10-42.8l3.6-2.5l8-34.3l-1.7-8c-2-0.4-3.7-0.9-5.2-1.7L8.6,180.3z M133.4,179.5c-0.5-0.7-0.8-1.3-0.8-2.1c0-1.6,1.3-2.8,3.2-2.8
			c2.9,0,4.5,3.2,8.4,3.2c4.4,0,6.5-3.2,10.5-3.2c2,0,4.8,1.2,4.8,3.7c0,0.4-0.1,0.8-0.4,1.1c4.5,0,7.7-3.9,7.7-10.2
			c0-8.5-0.8-17.9-1.7-27.4c2.4-0.5,4.6-2.9,4.6-6c0-1.1-0.4-2.3-1.1-3.3c-0.7,0.9-1.9,1.7-3.9,2.3c-2.8,0.8-6.2,1.2-8.8,1.2
			c-5.7,0-7.6-0.4-10.2-1.2c-0.1-3.6-2.4-6.5-4.5-8.5c3.3,1.3,4.8,2,10.1,2c17,0,27.5-11.4,27.5-24.4c0-9.4-6-13.8-11.4-17l-5,3.6
			c6.1,2.8,10.1,6.9,10.1,12.5c0,6.1-4.9,10.5-10.6,10.5c-6.1,0-10.9-4.4-10.9-10.4c0-4.5,2.1-7.8,6.1-11c4-3.2,10.1-7,13.4-10.6
			c1.7-1.9,3.2-4.8,3.1-7c2.3-1.1,4-3.3,4-6.2c0-3.9-3.7-6.8-7.7-6.8c-2.4,0-5,1.5-6.4,3.1c2.4,0.9,4.7,4.1,4.7,7.4
			c0,2.8-1.7,5.2-3.7,7.2c-3.1,3.1-7,5.3-11.4,8.9c-5.3,4.4-8.5,9.6-8.5,15.4c0,8.1,6.2,15.7,16.1,15.7c3.2,0,5.7-0.7,7.6-1.9
			c-3.2,3.7-9.2,5.6-15.4,5.6c-5.4,0-9.2-0.8-13.1-3.7c-3.6-2.7-6.4-8.9-6.2-13.5c-2.9,1.7-6.4,3.3-9.3,4.6c-4.1,2-5.4,4.1-5.4,7.7
			c0,4.8,3.3,8.5,4.8,11.3c2,3.6,2.7,6.8,2.9,10.1c0.8,8.1,5.4,11.8,13.7,11.8c3.7,0,8.6-0.3,10.6-0.5c0.8,3.7,1.7,8.1,1.7,11.4
			c0,2-0.5,2.7-1.7,2.9c-1.1,0.3-3.9,0.5-5.6,0.3c-0.9-0.1-1.7-0.8-2.3-2.8c-0.7-2.8-2.7-5.6-6.6-5.6c-3.6,0-6.8,2.7-6.2,6.6
			c-1.7,1.1-2.5,2.8-2.5,4.4c0,1.6,0.5,2.9,1.2,3.7c-0.4,0.9-0.5,1.5-0.5,2.4C128,177.1,130.9,179.5,133.4,179.5"/>
		<path class="st0" d="M520.9,192.3h18.9V186h-11v-4.4h10.7v-6.1h-10.7v-4.4h11v-6.3h-18.9V192.3z M501.2,192.9
			c6.5,0,11.8-3.1,11.8-10.8v-17.3h-7.9v16.6c0,3.1-1.7,4.5-3.9,4.5c-2.2,0-3.9-1.4-3.9-4.5v-16.6h-7.9v17.3
			C489.4,189.8,494.8,192.9,501.2,192.9 M472.8,192.9c4.9,0,8.3-1.5,9.9-2.3v-12.1H475v7.4c-0.6,0.1-1.2,0.2-1.8,0.2
			c-3.1,0-6.5-2.3-6.5-7.5c0-5.6,3-8.3,8.1-8.3c2.8,0,5.2,1,6.7,1.8v-6.5c-1.6-0.7-4.3-1.7-7.9-1.7c-9.3,0-15.6,5.8-15.6,14.7
			C458.1,187.5,465.1,192.9,472.8,192.9 M438.2,181l2.7-10.1h0.4L444,181H438.2z M447,192.3h8.1l-8.2-27.4h-11.6l-8.2,27.4h8.1
			l1.5-5.7h8.8L447,192.3z M409.8,177.5v-6.8h3.2c2.1,0,3.4,1.7,3.4,3.4c0,1.7-1.3,3.4-3.4,3.4L409.8,177.5L409.8,177.5z
			 M401.9,192.3h7.9v-9.6h2l4.8,9.6h8.9l-5-8.5c-0.5-0.9-1.2-1.7-1.5-1.9l0-0.2c2.4-1.1,5.9-3.1,5.9-7.8c0-4.9-3.9-9-10.3-9h-12.6
			L401.9,192.3L401.9,192.3z M381.6,177.5v-6.8h3.1c1.7,0,3.3,1.5,3.3,3.4c0,2-1.6,3.4-3.3,3.4L381.6,177.5L381.6,177.5z
			 M373.7,192.3h7.9v-8.9h4c6.4,0,10.4-4.1,10.4-9.1c0-5-4-9.4-10.4-9.4h-11.9V192.3z M329.5,192.3h7.9v-16.5h0.1l8.3,16.5h9.6
			v-27.4h-7.9v16.4h-0.1l-8.2-16.4h-9.7L329.5,192.3L329.5,192.3z M313.5,192.3h7.9v-27.4h-7.9V192.3z M283.7,192.9
			c6.5,0,11.8-3.1,11.8-10.8v-17.3h-7.9v16.6c0,3.1-1.7,4.5-3.9,4.5c-2.2,0-3.9-1.4-3.9-4.5v-16.6h-7.9v17.3
			C271.8,189.8,277.2,192.9,283.7,192.9 M252.1,192.3h7.9v-21h6.8v-6.4h-21.6v6.4h6.9L252.1,192.3L252.1,192.3z M234.1,192.7
			c3.3,0,6-0.8,7.7-1.7v-6.9c-1.6,0.8-3.4,1.6-6.3,1.6s-7-2.2-7-7.1c0-5,3.8-7.3,7.5-7.3c2.5,0,4.2,0.6,5.8,1.3v-6.8
			c-1.6-0.7-3.6-1.3-6.9-1.3c-8.1,0-15,5.3-15,14.1C219.9,187.3,226.1,192.7,234.1,192.7"/>
		<path class="st0" d="M487.1,151.2h7.9v-10.1l9.5-17.4h-8.8l-4.5,9.8h-0.2l-4.3-9.8h-9l9.3,17.4L487.1,151.2L487.1,151.2z
			 M464,151.8c4.9,0,8.3-1.5,9.9-2.3v-12.2h-7.7v7.4c-0.6,0.1-1.2,0.2-1.8,0.2c-3.1,0-6.5-2.3-6.5-7.5c0-5.6,3-8.3,8.1-8.3
			c2.8,0,5.2,1,6.7,1.8v-6.5c-1.6-0.7-4.3-1.7-7.9-1.7c-9.3,0-15.6,5.8-15.6,14.7C449.4,146.4,456.4,151.8,464,151.8 M430.9,144.8
			c-3.5,0-5.3-2.8-5.3-7.3c0-4.5,1.8-7.3,5.3-7.3c3.6,0,5.2,2.8,5.2,7.3C436.1,142,434.4,144.8,430.9,144.8 M430.9,151.8
			c8.2,0,13.7-5.2,13.7-14.4c0-9.2-5.5-14.4-13.7-14.4c-8.2,0-13.8,5.2-13.8,14.4C417.1,146.6,422.7,151.8,430.9,151.8 M396.6,151.2
			h17.7v-6.5h-9.8v-21h-7.9L396.6,151.2L396.6,151.2z M376.4,144.8c-3.5,0-5.3-2.8-5.3-7.3c0-4.5,1.8-7.3,5.3-7.3
			c3.6,0,5.2,2.8,5.2,7.3C381.6,142,380,144.8,376.4,144.8 M376.4,151.8c8.2,0,13.7-5.2,13.7-14.4c0-9.2-5.5-14.4-13.7-14.4
			c-8.2,0-13.8,5.2-13.8,14.4C362.6,146.6,368.3,151.8,376.4,151.8 M330.2,151.2h7.9v-16.5h0.1l8.3,16.5h9.6v-27.5h-7.9v16.4h-0.1
			l-8.2-16.4h-9.7L330.2,151.2L330.2,151.2z M298.2,123.7v27.5h7.9v-10.7h8.1v10.7h7.9v-27.5h-7.9v10.5h-8.1v-10.5H298.2z
			 M284.5,151.6c3.3,0,6-0.8,7.7-1.7V143c-1.6,0.8-3.4,1.6-6.3,1.6s-7-2.2-7-7.1c0-5,3.8-7.3,7.5-7.3c2.5,0,4.2,0.6,5.8,1.3v-6.8
			c-1.6-0.7-3.6-1.3-6.9-1.3c-8.1,0-15,5.3-15,14.1C270.3,146.2,276.5,151.6,284.5,151.6 M245.8,151.2h18.9v-6.3h-11v-4.4h10.7v-6.1
			h-10.7V130h11v-6.3h-18.9V151.2z M225.9,151.2h7.9v-21h6.8v-6.4H219v6.4h6.9V151.2z"/>
		<path class="st0" d="M563.4,110.1h7.9V93.6h0.1l8.3,16.5h9.6V82.6h-7.9V99h-0.1l-8.2-16.4h-9.7V110.1z M543.3,103.7
			c-3.5,0-5.3-2.8-5.3-7.3c0-4.5,1.8-7.3,5.3-7.3c3.6,0,5.2,2.8,5.2,7.3C548.5,100.9,546.8,103.7,543.3,103.7 M543.3,110.7
			c8.2,0,13.7-5.2,13.7-14.4c0-9.2-5.5-14.4-13.7-14.4c-8.2,0-13.8,5.2-13.8,14.4C529.5,105.5,535.1,110.7,543.3,110.7 M515.1,110.1
			h7.9V82.6h-7.9V110.1z M495.2,110.1h7.9v-21h6.8v-6.4h-21.6v6.4h6.9L495.2,110.1L495.2,110.1z M471.3,98.8l2.7-10.1h0.4l2.7,10.1
			C477.1,98.8,471.3,98.8,471.3,98.8z M480.1,110.1h8.1L480,82.6h-11.6l-8.2,27.4h8.1l1.5-5.7h8.8L480.1,110.1z M426.1,110.1h7.5
			V93.3h0.1l7.1,11.7h0.6l6.8-11.7h0.1v16.8h7.7V82.6h-9.2l-5.7,9.7h-0.1l-5.6-9.7h-9.4L426.1,110.1L426.1,110.1z M404.6,95.3v-6.8
			h3.2c2.1,0,3.4,1.7,3.4,3.4c0,1.7-1.3,3.4-3.4,3.4H404.6z M396.7,110.1h7.9v-9.6h2l4.8,9.6h8.9l-5-8.5c-0.5-0.9-1.2-1.7-1.5-1.9
			l0-0.2c2.4-1.1,5.9-3.1,5.9-7.8c0-4.9-3.9-9-10.3-9h-12.6L396.7,110.1L396.7,110.1z M376.6,103.7c-3.5,0-5.3-2.8-5.3-7.3
			c0-4.5,1.8-7.3,5.3-7.3c3.6,0,5.2,2.8,5.2,7.3C381.8,100.9,380.1,103.7,376.6,103.7 M376.6,110.7c8.2,0,13.7-5.2,13.7-14.4
			c0-9.2-5.5-14.4-13.7-14.4c-8.2,0-13.8,5.2-13.8,14.4C362.8,105.5,368.4,110.7,376.6,110.7 M339.2,82.6v27.5h7.9V99.5h10.7v-6.1
			h-10.7v-4.5H358v-6.3L339.2,82.6L339.2,82.6z M305.1,110.1h7.9V93.6h0.1l8.3,16.5h9.6V82.6h-7.9V99h-0.1l-8.2-16.4h-9.7
			L305.1,110.1L305.1,110.1z M289.1,110.1h7.9V82.6h-7.9V110.1z M253.8,82.6v27.5h7.9V99.5h10.7v-6.1h-10.7v-4.5h10.9v-6.3
			L253.8,82.6L253.8,82.6z M233.6,103.7c-3.5,0-5.3-2.8-5.3-7.3c0-4.5,1.8-7.3,5.3-7.3c3.6,0,5.2,2.8,5.2,7.3
			C238.8,100.9,237.2,103.7,233.6,103.7 M233.6,110.7c8.2,0,13.7-5.2,13.7-14.4c0-9.2-5.5-14.4-13.7-14.4c-8.2,0-13.8,5.2-13.8,14.4
			C219.9,105.5,225.5,110.7,233.6,110.7"/>
		<path class="st0" d="M381.7,69h7.9V58.9l9.5-17.4h-8.8l-4.5,9.8h-0.2l-4.3-9.8h-9l9.3,17.4V69z M356.3,69h7.9v-21h6.8v-6.4h-21.6
			v6.4h6.9L356.3,69L356.3,69z M332.3,69H350v-6.5h-9.8v-21h-7.9L332.3,69L332.3,69z M312.6,69.6c6.5,0,11.8-3.1,11.8-10.8V41.5
			h-7.9v16.6c0,3.1-1.7,4.5-3.9,4.5s-3.9-1.4-3.9-4.5V41.5h-7.9v17.3C300.7,66.5,306.1,69.6,312.6,69.6 M287.3,69.4
			c3.3,0,6-0.8,7.7-1.7v-6.9c-1.6,0.8-3.4,1.6-6.3,1.6c-2.9,0-7-2.2-7-7.1c0-5,3.8-7.3,7.5-7.3c2.5,0,4.2,0.6,5.8,1.3v-6.8
			c-1.6-0.7-3.6-1.3-6.9-1.3c-8.1,0-15,5.3-15,14.1C273,64,279.2,69.4,287.3,69.4 M253.1,57.7l2.7-10.1h0.4l2.7,10.1H253.1z
			 M261.9,69h8.1l-8.2-27.5h-11.6L242,69h8.1l1.5-5.7h8.8L261.9,69z M221.5,41.5V69h7.9V58.4h10.7v-6.1h-10.7v-4.5h10.9v-6.3
			L221.5,41.5L221.5,41.5z"/>
	</g>
</g>
</svg>
