<?xml version="1.0" encoding="UTF-8" standalone="no"?>
<!-- Created with Inkscape (http://www.inkscape.org/) -->
<svg
   xmlns:svg="http://www.w3.org/2000/svg"
   xmlns="http://www.w3.org/2000/svg"
   version="1.0"
   width="594"
   height="366"
   viewBox="-0.082 -0.927 594 366"
   id="svg2"
   xml:space="preserve">
	<defs
   id="defs4">
	</defs>
	<g
   id="g6">
		<path
   d="M 0.129,87.815 L 0.129,142.911 L 0,143.182 L 0.298,143.058 L 27.384,143.058 L 27.608,143.255 L 27.547,142.976 L 30.276,136.336 L 30.48,136.058 L 30.126,136.184 L 8.397,136.184 C 8.18,136.177 7.963,136.318 7.963,136.318 C 7.963,136.318 8.078,136.177 8.085,135.92 L 8.085,87.842 L 8.214,87.585 L 7.922,87.71 L 0.264,87.71 L 0.027,87.649 L 0.129,87.815"
   style="fill:#9BA3A8"   id="path8" />
		<path
   d="M 93.096,87.876 L 93.096,142.911 L 92.969,143.149 L 93.226,143.057 L 100.252,143.057 L 100.57,143.181 L 100.407,142.975 L 100.407,100.523 C 100.407,97.957 99.791,97.163 100.117,97.047 C 100.441,96.935 100.57,98.151 101.596,99.654 L 126.014,142.93 L 126.121,143.28 L 126.183,143.057 L 135.851,143.057 L 136.087,143.149 L 135.966,142.975 L 135.966,87.782 L 136.087,87.578 L 135.816,87.71 L 128.803,87.71 L 128.592,87.578 L 128.694,87.782 L 128.694,129.37 C 128.708,131.236 129.313,132.958 129.028,132.944 C 128.736,132.922 128.789,132.484 127.982,131.109 L 103.359,87.789 L 103.421,87.517 L 103.218,87.71 L 93.198,87.71 L 92.872,87.517 L 93.096,87.876"
   style="fill:#9BA3A8"   id="path10" />
		<path
   d="M 180.587,143.115 C 180.654,143.1 180.865,143.062 180.933,143.044 L 180.866,142.911 L 184.044,135.766 L 184.267,135.395 C 184.185,135.416 183.982,135.606 183.895,135.632 C 181.722,136.363 179.19,136.739 176.48,136.739 C 164.595,136.739 154.981,127.14 154.981,115.25 C 154.981,103.184 164.398,93.85 176.555,93.85 C 179.711,93.85 182.298,94.363 186.296,95.795 L 186.622,95.927 L 186.724,96.032 L 186.698,95.886 L 186.698,88.643 L 186.819,88.53 C 186.765,88.51 186.589,88.517 186.521,88.489 C 184.178,87.529 179.257,86.722 175.652,86.722 C 160.092,86.722 146.977,99.742 146.977,115.189 C 146.977,130.51 160.044,143.664 175.272,143.664 C 177.159,143.665 179.026,143.468 180.587,143.115"
   style="fill:#9BA3A8"   id="path12" />
		<path
   d="M 246.61,140.59 C 246.632,140.603 246.72,140.522 246.74,140.527 C 250.575,142.412 255.6,143.538 260.201,143.538 C 270.431,143.538 278.32,136.384 278.32,127.09 C 278.32,120.397 275.136,116.324 266.318,111.735 C 257.589,107.191 255.123,104.831 255.123,101.009 C 255.123,96.657 258.953,93.675 264.554,93.675 C 268.008,93.675 271.843,94.563 273.989,95.85 C 274.051,95.887 274.11,96.088 274.166,96.121 L 274.166,88.62 C 274.099,88.6 274.023,88.671 273.955,88.651 C 270.988,87.684 267.263,87.072 264.309,87.072 C 254.411,87.072 246.849,93.403 246.849,101.705 C 246.849,105.765 248.933,109.766 252.449,112.451 C 254.139,113.738 256.189,115.044 258.593,116.357 C 265.401,120.067 267.48,121.564 268.933,123.794 C 269.639,124.893 270.024,126.228 270.024,127.64 C 270.024,132.666 265.409,136.661 259.605,136.661 C 256.006,136.661 251.973,135.474 249.727,133.769 C 249.673,133.736 249.673,133.597 249.625,133.562 L 246.61,140.59"
   style="fill:#9BA3A8"   id="path14" />
		<polyline
   points="298.604,94.703 298.604,142.976 298.482,143.149 298.719,143.058 306.404,143.058 306.663,143.182     306.567,142.976 306.567,94.741 306.438,94.489 306.723,94.587 323.472,94.587 323.668,94.712 323.572,94.509 323.572,87.815     323.694,87.612 323.443,87.71 281.362,87.71 281.151,87.578 281.239,87.876 281.239,94.481 281.09,94.712 281.396,94.587     298.435,94.587 298.705,94.489 298.604,94.703 "
   style="fill:#9BA3A8"   id="polyline16" />
		<polyline
   points="331.475,87.876 331.475,142.976 331.371,143.247 331.61,143.058 362.22,143.058 362.22,136.184 339.586,136.184     339.369,136.278 339.43,136.113 339.43,117.512 339.335,117.312 339.552,117.373 359.937,117.373 360.113,117.498     360.046,117.288 360.046,111.004 360.113,110.795 359.965,110.86 339.552,110.86 339.273,110.992 339.43,110.686 339.43,94.712     339.335,94.516 339.552,94.587 361.438,94.587 361.629,94.747 361.492,94.509 361.492,87.815 361.629,87.578 361.371,87.71     331.637,87.71 331.346,87.612 331.475,87.876 "
   style="fill:#9BA3A8"   id="polyline18" />
		<path
   d="M 391.857,111.582 C 398.082,111.582 402.855,107.591 402.855,102.397 C 402.855,97.282 399.303,94.586 392.59,94.586 L 384.728,94.586 L 384.438,94.426 L 384.56,94.667 L 384.56,111.421 L 384.438,111.642 L 384.695,111.581 L 391.857,111.581 M 376.441,87.612 L 376.753,87.71 L 392.211,87.71 C 398.592,87.71 402.625,88.831 405.673,91.444 C 408.523,93.891 410.513,98.151 410.513,101.813 C 410.513,108.197 405.271,114.494 399.02,115.689 C 398.953,115.702 398.537,115.567 398.544,115.732 C 398.536,115.886 398.823,115.82 399.033,115.848 C 401.89,116.259 404.41,119.693 406.554,124.371 L 410.076,132.053 C 411.265,134.645 412.549,137.232 413.899,139.804 C 414.824,141.55 415.101,141.967 416.031,142.904 C 416.078,142.954 416.377,143.069 416.404,143.057 L 407.028,143.057 L 406.757,142.577 C 404.354,137.776 402.744,134.374 401.924,132.396 C 398.136,123.204 396.527,120.57 393.926,119.257 C 392.759,118.674 390.316,118.241 388.17,118.241 L 384.694,118.241 L 384.437,118.109 L 384.559,118.407 L 384.559,142.975 L 384.654,143.149 L 384.409,143.057 L 376.616,143.057 L 376.44,143.149 L 376.603,142.911 L 376.603,87.876 L 376.441,87.612 z "
   style="fill:#9BA3A8"   id="path20" />
		<path
   d="M 3.618,158.198 L 0.298,158.198 L 0.067,158.1 L 0.129,158.318 L 0.129,181.195 C 0.129,187.037 0.658,188.937 2.919,191.191 C 4.962,193.207 7.915,194.381 10.97,194.381 C 14.303,194.381 17.651,192.935 19.497,190.716 C 21.269,188.57 21.724,186.622 21.724,181.228 L 21.724,158.318 L 21.798,158.074 L 21.642,158.199 L 18.226,158.199 L 18.05,158.1 L 18.111,158.288 L 18.111,181.416 C 18.111,185.544 17.914,186.548 16.842,188.055 C 15.545,189.848 13.386,190.913 11.025,190.913 C 8.798,190.913 6.469,189.888 5.274,188.367 C 4.134,186.929 3.74,185.204 3.74,181.613 L 3.74,158.351 L 3.843,158.1 L 3.618,158.198"
   style="fill:#9BA3A8"   id="path22" />
		<polyline
   points="99.954,158.287 99.954,193.96 99.865,194.204 100.062,194.075 103.402,194.075 103.639,194.17 103.579,193.96     103.579,158.317 103.7,158.065 103.476,158.191 100.062,158.191 99.865,158.1 99.954,158.287 "
   style="fill:#9BA3A8"   id="polyline24" />
		<path
   d="M 128.573,158.325 L 138.334,193.96 L 138.247,194.204 L 138.402,194.075 L 143.256,194.075 L 143.42,194.17 L 143.386,193.96 L 153.352,158.287 L 153.549,158.065 L 153.209,158.191 L 149.795,158.191 L 149.611,158.099 L 149.665,158.287 L 142.313,185.284 C 140.575,191.081 141.193,190.81 140.82,190.796 C 140.61,190.796 140.989,191.15 139.502,185.155 L 132.443,158.287 L 132.511,158.099 L 132.308,158.191 L 128.648,158.191 L 128.383,158.099 L 128.573,158.325"
   style="fill:#9BA3A8"   id="path26" />
		<polyline
   points="178.672,158.317 178.672,193.96 178.577,194.17 178.767,194.075 196.628,194.075 196.825,194.17 196.757,193.96     196.757,190.77 196.852,190.579 196.628,190.641 182.426,190.641 182.189,190.77 182.291,190.472 182.291,176.856     182.189,176.653 182.398,176.718 196.532,176.718 196.751,176.843 196.647,176.565 196.647,173.666 196.717,173.469     196.498,173.533 182.426,173.533 182.189,173.595 182.291,173.381 182.291,161.64 182.189,161.423 182.426,161.521     196.594,161.521 196.791,161.62 196.757,161.382 196.757,158.287 196.852,158.1 196.594,158.191 178.767,158.191 178.577,158.065     178.672,158.317 "
   style="fill:#9BA3A8"   id="polyline28" />
		<path
   d="M 231.582,176.718 C 236.633,176.718 240.631,174.257 240.631,169.05 C 240.631,164.501 237.766,161.882 232.789,161.882 L 225.981,161.882 L 225.758,161.786 L 225.852,162.02 L 225.852,176.598 L 225.758,176.779 L 225.981,176.717 L 231.582,176.717 M 222.105,158.065 L 222.37,158.191 L 231.949,158.191 C 239.566,158.191 244.541,162.43 244.541,168.917 C 244.541,174.144 240.508,178.622 235.106,179.392 C 235.615,179.564 236.035,180.024 236.918,181.368 L 245.213,193.961 L 245.362,194.076 L 241.003,194.076 L 240.747,194.219 L 240.61,194.131 L 232.404,181.548 C 231.881,180.282 231.651,179.978 231.358,179.757 L 225.941,179.757 L 225.758,179.658 L 225.852,179.888 L 225.852,193.919 L 225.914,194.17 L 225.725,194.075 L 222.343,194.075 L 222.106,194.17 L 222.235,193.919 L 222.235,158.317 L 222.105,158.065 z "
   style="fill:#9BA3A8"   id="path30" />
		<path
   d="M 266.63,183.614 L 266.719,183.757 C 266.719,190.613 270.867,194.816 277.608,194.816 C 284.586,194.816 289.365,190.58 289.365,184.402 C 289.365,181.978 288.57,179.874 287.049,178.286 C 285.347,176.494 283.609,175.53 279.169,173.874 C 272.549,171.406 271.287,170.293 271.287,166.916 C 271.287,163.482 274.111,161.025 278.05,161.025 C 282.041,161.025 284.315,163.507 284.518,168.076 L 284.423,168.242 L 288.327,168.242 L 288.239,168.138 C 288.239,161.598 284.403,157.616 278.124,157.616 C 272.083,157.616 267.393,161.744 267.393,167.061 C 267.393,169.331 268.383,171.865 269.849,173.359 C 271.058,174.592 272.675,175.446 277.079,177.177 C 284.011,179.916 285.47,181.172 285.47,184.431 C 285.47,188.578 282.382,191.395 277.866,191.395 C 273.476,191.395 270.509,188.435 270.509,184.016 L 270.509,183.745 L 270.616,183.616 L 266.63,183.616"
   style="fill:#9BA3A8"   id="path32" />
		<polyline
   points="356.367,161.925 356.367,193.987 356.272,194.17 356.463,194.075 359.843,194.075 360.046,194.17     359.984,193.96 359.984,162.021 359.925,161.854 360.065,161.918 368.519,161.918 368.695,161.979 368.668,161.801     368.668,158.287 368.729,158.1 368.553,158.191 348.262,158.191 348.024,158.1 348.119,158.287 348.119,161.702 348.024,161.901     348.235,161.841 356.204,161.841 356.463,161.776 356.367,161.925 "
   style="fill:#9BA3A8"   id="polyline34" />
		<path
   d="M 402.299,193.96 L 402.236,194.17 L 402.433,194.075 L 405.746,194.075 L 405.984,194.17 L 405.915,193.96 L 405.915,179.28 L 416.18,158.287 L 416.357,158.099 L 416.058,158.191 L 412.385,158.191 L 412.195,158.099 L 412.217,158.28 L 405.556,172.772 C 403.873,176.472 404.363,176.39 404.132,176.397 C 403.901,176.404 404.34,176.472 402.611,172.239 L 396.582,158.28 L 396.61,158.099 L 396.371,158.191 L 392.381,158.191 L 392.185,158.099 L 392.333,158.292 L 402.3,179.279 L 402.3,193.96"
   style="fill:#9BA3A8"   id="path36" />
		<path
   d="M 70.852,120.458 L 70.485,119.973 L 61.978,98.661 C 61.978,98.661 61.476,97.463 61.272,96.851 C 60.628,95.406 61.137,95.052 60.744,95.059 C 60.437,95.059 60.751,95.406 60.187,96.743 C 60.003,97.214 59.582,98.403 59.582,98.403 L 50.655,120.007 L 50.357,120.364 L 50.833,120.265 L 70.323,120.265 L 70.852,120.458 M 56.711,87.564 L 56.956,87.724 L 64.518,87.724 L 64.817,87.564 L 64.722,87.782 L 88.222,142.938 L 88.379,143.149 L 88.16,143.057 L 79.798,143.057 L 79.506,143.216 L 79.614,142.93 L 73.091,126.93 L 73.213,126.778 L 47.702,126.778 L 47.858,126.924 L 41.348,142.939 L 41.47,143.182 L 41.26,143.058 L 32.938,143.058 L 32.632,143.15 L 32.91,142.864 L 56.771,87.816 L 56.711,87.564 z "
   style="fill:#9BA3A8"   id="path38" />
		<path
   d="M 224.25,120.472 L 223.869,119.993 L 215.37,98.68 C 215.378,98.68 214.869,97.485 214.672,96.865 C 214.02,95.426 214.529,95.072 214.135,95.079 C 213.828,95.079 214.149,95.426 213.584,96.756 C 213.395,97.228 212.979,98.423 212.979,98.423 L 204.047,120.027 L 203.755,120.382 L 204.222,120.284 L 223.719,120.284 L 224.25,120.472 M 210.103,87.585 L 210.353,87.71 L 217.915,87.71 L 218.207,87.585 L 218.105,87.795 L 241.614,142.962 L 241.763,143.168 L 241.546,143.069 L 233.195,143.069 L 232.891,143.229 L 233.012,142.954 L 226.482,126.944 L 226.604,126.792 L 201.095,126.792 L 201.25,126.938 L 194.745,142.955 L 194.862,143.204 L 194.652,143.07 L 186.328,143.07 L 186.03,143.169 L 186.302,142.885 L 210.169,87.838 L 210.103,87.585 z "
   style="fill:#9BA3A8"   id="path40" />
		<path
   d="M 48.422,158.287 L 48.422,193.96 L 48.259,194.11 L 48.442,194.075 L 51.918,194.075 L 52.129,194.17 L 52.034,194.082 L 52.034,168.089 C 52.048,164.029 51.695,163.899 51.939,163.91 C 52.136,163.917 51.634,164.057 53.521,167.379 L 67.715,193.987 L 67.701,194.17 L 67.871,194.075 L 71.123,194.075 L 71.312,194.204 L 71.176,193.919 L 71.176,158.317 L 71.272,158.065 L 71.061,158.191 L 67.646,158.191 L 67.497,158.099 L 67.564,158.317 L 67.564,181.52 C 67.55,186.873 67.944,187.206 67.774,187.198 C 67.584,187.192 67.965,186.492 65.324,181.727 L 52.703,158.287 L 52.758,158.099 L 52.588,158.191 L 48.502,158.191 L 48.257,158.099 L 48.422,158.287"
   style="fill:#9BA3A8"   id="path42" />
		<polyline
   points="317.36,158.28 317.36,193.947 317.266,194.197 317.456,194.075 320.809,194.075 321.04,194.17 320.98,193.947     320.98,158.317 321.106,158.065 320.87,158.191 317.456,158.191 317.266,158.093 317.36,158.28 "
   style="fill:#9BA3A8"  id="polyline44" />
		<path
   d="M 526.764,64.27 C 526.764,64.077 526.581,63.758 526.581,63.758 L 527.069,63.965 L 532.874,63.965 L 533.355,63.765 L 533.167,64.27 L 533.167,79.962 C 533.167,155.564 557.062,211.652 592.741,249.627 C 592.804,249.701 593.14,249.709 593.203,249.775 L 592.823,250.081 L 580.293,281.58 L 580.223,282.089 C 580.162,282.021 580.082,281.681 580.026,281.614 C 537.838,230.639 526.764,153.153 526.764,83.671 C 526.764,80.3 526.764,66.497 526.764,64.27"
   style="fill:#ED1B2E"
   id="path46" />
		<path
   d="M 513.147,32.398 C 513.147,32.19 512.957,31.893 512.957,31.893 L 513.459,32.08 L 519.25,32.08 L 519.738,31.893 C 519.738,31.893 519.547,32.185 519.547,32.385 C 519.547,37.174 519.547,96.179 519.547,100.133 C 519.547,182.382 527.993,278.374 586.001,333.946 C 586.061,334.006 586.387,334.014 586.448,334.082 L 586.089,334.4 L 574.475,363.671 L 574.412,364.174 C 574.351,364.107 574.258,363.78 574.195,363.727 C 517.498,300.179 513.147,210.823 513.147,105.534 C 513.147,99.084 513.147,37.398 513.147,32.398"
   style="fill:#ED1B2E"
   id="path48" />
		<path
   d="M 486.271,32.385 C 486.271,32.184 486.088,31.893 486.088,31.893 L 486.583,32.08 L 492.373,32.08 L 492.862,31.893 C 492.862,31.893 492.672,32.191 492.672,32.398 C 492.672,35.985 492.672,68.461 492.672,74.894 C 492.672,153.868 475.992,221.496 430.95,266.733 C 430.863,266.821 430.773,267.052 430.686,267.188 L 430.57,266.692 L 418.996,237.57 L 418.636,237.299 C 418.712,237.243 419.044,237.191 419.119,237.136 C 459.68,208.461 486.27,141.114 486.27,73.107 C 486.271,65.669 486.271,35.748 486.271,32.385"
   style="fill:#ED1B2E"
   id="path50" />
		<path
   d="M 499.528,0.499 C 499.528,0.299 499.34,0 499.34,0 L 499.835,0.187 L 505.639,0.187 L 506.128,0 C 506.128,0 505.932,0.299 505.932,0.499 C 505.932,7.124 505.932,116.789 505.932,123.085 C 505.932,277.009 434.604,332.309 427.096,341.624 C 427.035,341.704 426.967,342.043 426.913,342.118 L 426.832,341.59 L 416.41,315.353 L 416.072,314.999 C 416.139,314.944 416.445,314.978 416.513,314.925 C 450.549,285.36 499.528,230.373 499.528,113.239 C 499.528,108.942 499.528,6.88 499.528,0.499"
   style="fill:#ED1B2E"
   id="path52" />
	</g>
</svg>