<?xml version="1.0" encoding="UTF-8" standalone="no"?>
<!-- Generator: Adobe Illustrator 13.0.0, SVG Export Plug-In . SVG Version: 6.00 Build 14576)  -->

<svg
   xmlns:dc="http://purl.org/dc/elements/1.1/"
   xmlns:cc="http://creativecommons.org/ns#"
   xmlns:rdf="http://www.w3.org/1999/02/22-rdf-syntax-ns#"
   xmlns:svg="http://www.w3.org/2000/svg"
   xmlns="http://www.w3.org/2000/svg"
   xmlns:xlink="http://www.w3.org/1999/xlink"
   xmlns:sodipodi="http://sodipodi.sourceforge.net/DTD/sodipodi-0.dtd"
   xmlns:inkscape="http://www.inkscape.org/namespaces/inkscape"
   version="1.0"
   id="Layer_1"
   x="0px"
   y="0px"
   width="210"
   height="210"
   viewBox="-93 6.5 210 210"
   enable-background="new -93 6.5 800 600"
   xml:space="preserve"
   inkscape:version="0.48.1 r9760"
   sodipodi:docname="pypy_small.svg"
   inkscape:export-filename="/home/cfbolz/projects/extradoc/logo/pypy_small64.png"
   inkscape:export-xdpi="27.43"
   inkscape:export-ydpi="27.43"><metadata
   id="metadata340"><rdf:RDF><cc:Work
       rdf:about=""><dc:format>image/svg+xml</dc:format><dc:type
         rdf:resource="http://purl.org/dc/dcmitype/StillImage" /><dc:title></dc:title></cc:Work></rdf:RDF></metadata><defs
   id="defs338"><linearGradient
     id="linearGradient4152"><stop
       style="stop-color:#000000;stop-opacity:1;"
       offset="0"
       id="stop4154" /><stop
       id="stop4162"
       offset="0.6438356"
       style="stop-color:#000000;stop-opacity:0.88461536;" /><stop
       style="stop-color:#000000;stop-opacity:0;"
       offset="1"
       id="stop4156" /></linearGradient><linearGradient
     inkscape:collect="always"
     xlink:href="#linearGradient4152"
     id="linearGradient4158"
     x1="152.95653"
     y1="165.01984"
     x2="90.960449"
     y2="153.23473"
     gradientUnits="userSpaceOnUse"
     gradientTransform="translate(-135.203,-10.256996)" /></defs><sodipodi:namedview
   pagecolor="#ffffff"
   bordercolor="#666666"
   borderopacity="1"
   objecttolerance="10"
   gridtolerance="10"
   guidetolerance="10"
   inkscape:pageopacity="0"
   inkscape:pageshadow="2"
   inkscape:window-width="1280"
   inkscape:window-height="776"
   id="namedview336"
   showgrid="false"
   inkscape:zoom="1.11"
   inkscape:cx="46.305995"
   inkscape:cy="202.60457"
   inkscape:window-x="0"
   inkscape:window-y="24"
   inkscape:window-maximized="1"
   inkscape:current-layer="g5"
   fit-margin-top="32"
   fit-margin-left="10"
   fit-margin-bottom="32"
   fit-margin-right="10" />
<g
   id="g3"
   transform="translate(-42.203001,-16.756995)">
	<g
   id="g5">
		<title
   id="title7">pypy logo - by samuel reis</title>
		<linearGradient
   id="SVGID_1_"
   gradientUnits="userSpaceOnUse"
   x1="-38.2686"
   y1="122.4697"
   x2="147.1235"
   y2="122.4697">
			<stop
   offset="0"
   style="stop-color:#5A9FD4"
   id="stop10" />
			<stop
   offset="0.1054"
   style="stop-color:#5CA0D1"
   id="stop12" />
			<stop
   offset="0.19"
   style="stop-color:#61A4C7"
   id="stop14" />
			<stop
   offset="0.2675"
   style="stop-color:#6AABB6"
   id="stop16" />
			<stop
   offset="0.3406"
   style="stop-color:#76B59E"
   id="stop18" />
			<stop
   offset="0.4108"
   style="stop-color:#86C17F"
   id="stop20" />
			<stop
   offset="0.4778"
   style="stop-color:#99D05A"
   id="stop22" />
			<stop
   offset="0.5"
   style="stop-color:#A0D64C"
   id="stop24" />
			<stop
   offset="0.5242"
   style="stop-color:#ABD850"
   id="stop26" />
			<stop
   offset="0.6048"
   style="stop-color:#C9DE5D"
   id="stop28" />
			<stop
   offset="0.6897"
   style="stop-color:#E1E267"
   id="stop30" />
			<stop
   offset="0.7795"
   style="stop-color:#F2E56E"
   id="stop32" />
			<stop
   offset="0.8777"
   style="stop-color:#FCE772"
   id="stop34" />
			<stop
   offset="1"
   style="stop-color:#FFE873"
   id="stop36" />
		</linearGradient>
		<path
   d="M 4.814,177.038 C -9.66,170.74 -21.855,161.686 -29.797,149.727 l 0,0 c -5.266,-7.94 -8.489,-17.345 -8.472,-27.256 l 0,0 c -0.017,-9.912 3.206,-19.316 8.472,-27.257 l 0,0 c 5.273,-7.977 12.5,-14.651 20.971,-20.089 l 0,0 C 8.142,64.296 30.236,58.157 54.428,58.123 l 0,0 c 18.144,0.009 35.107,3.506 49.614,9.779 l 0,0 c 14.474,6.3 26.669,15.353 34.61,27.312 l 0,0 c 5.266,7.941 8.489,17.345 8.471,27.257 l 0,0 c 0.018,9.912 -3.206,19.316 -8.471,27.256 l 0,0 c -5.273,7.977 -12.5,14.651 -20.97,20.089 l 0,0 c -16.968,10.829 -39.063,16.966 -63.255,17.001 l 0,0 C 36.284,186.808 19.32,183.312 4.814,177.038 l 0,0 z M 15.698,93.028 C 4.952,97.653 -2.888,104.069 -6.94,110.292 l 0,0 c -2.729,4.18 -3.929,8.102 -3.946,12.179 l 0,0 c 0.017,4.077 1.216,8 3.946,12.178 l 0,0 c 2.722,4.145 7.066,8.386 12.893,12.116 l 0,0 c 11.626,7.503 29.034,12.708 48.476,12.672 l 0,0 c 14.581,0.008 28.019,-2.873 38.73,-7.524 l 0,0 c 10.746,-4.625 18.585,-11.042 22.638,-17.263 l 0,0 c 2.73,-4.179 3.929,-8.102 3.947,-12.178 l 0,0 c -0.018,-4.077 -1.217,-7.999 -3.947,-12.179 l 0,0 c -2.723,-4.144 -7.065,-8.387 -12.893,-12.116 l 0,0 C 91.278,90.671 73.87,85.47 54.428,85.505 l 0,0 c -0.025,0 -0.049,0 -0.073,0 l 0,0 c -14.553,0 -27.964,2.879 -38.657,7.523 l 0,0 z"
   id="path38"
   inkscape:connector-curvature="0"
   style="fill:url(#SVGID_1_)" />
		<linearGradient
   id="SVGID_2_"
   gradientUnits="userSpaceOnUse"
   x1="-9.2538996"
   y1="154.9438"
   x2="79.773598"
   y2="178.8157">
			<stop
   offset="0"
   style="stop-color:#5A9FD4"
   id="stop41" />
			<stop
   offset="0.0869"
   style="stop-color:#6CADB1"
   id="stop43" />
			<stop
   offset="0.1845"
   style="stop-color:#7CBA92"
   id="stop45" />
			<stop
   offset="0.2915"
   style="stop-color:#89C478"
   id="stop47" />
			<stop
   offset="0.4095"
   style="stop-color:#93CC65"
   id="stop49" />
			<stop
   offset="0.5442"
   style="stop-color:#9BD257"
   id="stop51" />
			<stop
   offset="0.7102"
   style="stop-color:#9FD54E"
   id="stop53" />
			<stop
   offset="1"
   style="stop-color:#A0D64C"
   id="stop55" />
		</linearGradient>
		<path
   d="m -0.282,142.233 7.751,6.868 c 4.436,-2.285 9.825,-3.558 15.604,-3.448 6.706,-3.936 15.21,-5.969 24.287,-5.241 11.093,0.89 20.691,5.708 26.815,12.565 0.479,0.029 0.959,0.058 1.443,0.097 18.916,1.518 33.586,11.022 32.768,21.232 -0.819,10.208 -16.817,17.254 -35.733,15.737 -0.3,-0.025 -0.595,-0.057 -0.893,-0.084 -7.159,6.103 -17.662,9.539 -29.065,8.624 -10.282,-0.825 -19.277,-5.028 -25.416,-11.1 -9.716,-2.061 -17.361,-7.922 -20.222,-15.152 l -8.853,-4.542"
   id="path57"
   inkscape:connector-curvature="0"
   style="fill:url(#SVGID_2_)" />
		<ellipse
   cx="71.473"
   cy="179.554"
   rx="5.4770002"
   ry="3.4790001"
   id="ellipse59"
   sodipodi:cx="71.473"
   sodipodi:cy="179.554"
   sodipodi:rx="5.4770002"
   sodipodi:ry="3.4790001"
   d="m 76.95,179.554 c 0,1.9214 -2.452137,3.479 -5.477,3.479 -3.024864,0 -5.477001,-1.5576 -5.477001,-3.479 0,-1.9214 2.452137,-3.479 5.477001,-3.479 3.024863,0 5.477,1.5576 5.477,3.479 z" />
		<ellipse
   cx="72.315002"
   cy="162.595"
   rx="5.4759998"
   ry="3.4779999"
   id="ellipse61"
   sodipodi:cx="72.315002"
   sodipodi:cy="162.595"
   sodipodi:rx="5.4759998"
   sodipodi:ry="3.4779999"
   d="m 77.791002,162.595 c 0,1.92085 -2.451688,3.478 -5.476,3.478 -3.024311,0 -5.475999,-1.55715 -5.475999,-3.478 0,-1.92085 2.451688,-3.478 5.475999,-3.478 3.024312,0 5.476,1.55715 5.476,3.478 z" />
		
		<path
   d="m 149.651,122.433 c 0,0 0,-0.004 0,-0.044 -0.001,-10.437 -3.399,-20.288 -8.892,-28.572 -8.285,-12.471 -20.906,-21.79 -35.708,-28.232 -14.858,-6.424 -32.154,-9.979 -50.622,-9.989 -24.62,0.038 -47.17,6.271 -64.615,17.398 -8.716,5.595 -16.216,12.502 -21.72,20.826 -5.493,8.282 -8.889,18.136 -8.891,28.573 0,0.03 0,0.056 0,0.078 0,0.042 0,0.067 0,0.077 10e-4,10.438 3.398,20.29 8.893,28.576 6.727,10.125 16.317,18.17 27.609,24.286 3.704,6.982 11.194,12.254 20.328,14.387 6.579,6.244 15.898,10.457 26.459,11.307 1.291,0.102 2.572,0.153 3.839,0.153 10.123,-0.002 19.396,-3.224 26.231,-8.683 1.755,0.136 3.484,0.203 5.183,0.203 8.646,-0.006 16.467,-1.712 22.428,-4.772 2.977,-1.536 5.501,-3.418 7.387,-5.674 1.377,-1.645 2.401,-3.518 2.944,-5.54 2.961,-1.494 5.813,-3.108 8.538,-4.846 8.714,-5.595 16.215,-12.5 21.719,-20.825 5.49,-8.282 8.888,-18.133 8.89,-28.569 0,-0.014 0,-0.041 0,-0.08 v -0.02 l 0,-0.018 z m -5.054,0.118 c 0,9.327 -3.043,18.223 -8.051,25.778 -5.045,7.633 -11.998,14.075 -20.229,19.359 -1.812,1.156 -3.689,2.256 -5.621,3.302 -0.43,-2.181 -1.402,-4.255 -2.767,-6.137 -2.831,-3.893 -7.297,-7.121 -12.814,-9.586 -0.559,-0.248 -1.131,-0.487 -1.711,-0.719 0.252,-0.106 0.511,-0.209 0.76,-0.316 11.106,-4.794 19.31,-11.416 23.75,-18.203 2.944,-4.485 4.349,-8.972 4.355,-13.547 -0.007,-4.598 -1.411,-9.085 -4.357,-13.573 -2.971,-4.515 -7.567,-8.968 -13.646,-12.862 -12.092,-7.791 -29.822,-13.058 -49.641,-13.07 -0.06,10e-4 -0.134,0 -0.22,10e-4 h -0.05 c -14.883,0.003 -28.607,2.936 -39.656,7.729 -11.114,4.796 -19.318,11.418 -23.758,18.205 -2.944,4.484 -4.348,8.972 -4.355,13.547 0.007,4.596 1.412,9.084 4.357,13.571 1.799,2.734 4.204,5.441 7.164,8.021 l -0.066,0.074 9.045,8.017 1.54,-0.793 c 3.873,-1.998 8.625,-3.176 13.759,-3.175 0.214,0 0.424,0.001 0.632,0.006 l 0.716,0.015 0.618,-0.362 c 5.39,-3.165 12.106,-5.04 19.375,-5.039 1.132,0 2.276,0.046 3.431,0.138 10.485,0.836 19.494,5.407 25.132,11.731 l 0.696,0.78 1.043,0.06 c 0.475,0.028 0.935,0.057 1.386,0.092 8.848,0.703 16.704,3.255 22.169,6.675 2.734,1.707 4.86,3.621 6.25,5.547 1.395,1.935 2.054,3.826 2.055,5.675 0,0.204 -0.007,0.408 -0.023,0.618 -0.143,1.731 -0.851,3.373 -2.187,4.984 -1.993,2.406 -5.458,4.621 -9.959,6.17 -4.497,1.554 -9.998,2.459 -15.974,2.458 -1.6,0 -3.234,-0.064 -4.893,-0.197 -0.254,-0.021 -0.539,-0.051 -0.858,-0.082 l -1.063,-0.1 -0.812,0.693 c -5.876,5.017 -14.366,8.17 -23.788,8.167 -1.133,0 -2.28,-0.046 -3.437,-0.138 -9.716,-0.776 -18.166,-4.759 -23.838,-10.378 l -0.528,-0.521 -0.726,-0.154 C 8.752,183.108 1.835,177.628 -0.594,171.401 l -0.35,-0.883 -9.7,-4.976 -1.151,2.243 1.045,-2.318 c -6.802,-4.833 -12.565,-10.544 -16.942,-17.14 -5.008,-7.553 -8.051,-16.451 -8.05,-25.78 0,-0.036 0,-0.036 0,-0.036 v -0.119 c -0.001,-9.329 3.041,-18.229 8.051,-25.782 5.045,-7.633 11.999,-14.075 20.229,-19.358 16.487,-10.527 38.125,-16.571 61.893,-16.603 17.815,0.008 34.445,3.447 48.608,9.572 14.139,6.153 25.908,14.94 33.507,26.39 5.008,7.554 8.051,16.45 8.049,25.777 0.001,0.014 0,0.054 0.001,0.12 v 0.043 z M 8.952,145.648 c -0.555,-0.331 -1.101,-0.666 -1.629,-1.008 -5.584,-3.571 -9.674,-7.601 -12.151,-11.38 -2.51,-3.866 -3.504,-7.223 -3.531,-10.801 0.026,-3.558 1.021,-6.914 3.534,-10.786 3.667,-5.66 11.143,-11.871 21.521,-16.324 l -0.999,-2.321 1.007,2.318 C 27.04,90.854 40.137,88.03 54.353,88.032 h 0.074 c 0.068,-10e-4 0.125,-10e-4 0.196,-10e-4 18.907,-0.01 35.836,5.106 46.907,12.268 5.584,3.569 9.673,7.602 12.152,11.38 2.51,3.866 3.504,7.222 3.531,10.802 -0.027,3.556 -1.021,6.914 -3.535,10.785 -3.667,5.659 -11.143,11.87 -21.521,16.323 -2.083,0.906 -4.284,1.738 -6.579,2.497 -3.089,-0.734 -6.359,-1.257 -9.761,-1.531 -0.16,-0.013 -0.318,-0.025 -0.475,-0.035 -6.619,-6.971 -16.495,-11.716 -27.783,-12.627 -1.29,-0.104 -2.57,-0.153 -3.836,-0.153 -7.868,0.001 -15.22,1.953 -21.317,5.379 -0.008,0 -0.016,0 -0.023,0 -4.819,0 -9.387,0.9 -13.431,2.529 z"
   id="path73"
   inkscape:connector-curvature="0" />
		<path
   d="m -13.603,123.581 c 0,0 -7.094,-53.079 67.612,-53.079 53.5,0 58.977,19.589 67.824,48.234 0,0 -19.589,-33.912 -67.612,-33.841 -67.396,0.099 -67.824,38.686 -67.824,38.686 z"
   id="path75"
   inkscape:connector-curvature="0"
   style="opacity:0.3" />
		<path
   d="m 100.138,158.756 c 0,0 5.752,2.723 17.529,-3.739 11.42,-6.266 15.534,4.363 21.228,-7.635 0,0 4.213,6.74 -30.509,26.925 -10e-4,0.001 -5.299,-12.601 -8.248,-15.551 z"
   id="path77"
   inkscape:connector-curvature="0"
   style="opacity:0.2" />
		<path
   d="m 103.509,164.232 c 0,0 -14.323,16.008 -39.178,8.426 0,0 -22.749,15.164 -42.548,-0.843 0,0 -29.857,-11.954 -32.384,-3.529 0,0 17.055,18.018 27.879,19.199 0,0 26.101,22.727 54.48,2.476 0,0 28.379,0.39 33.856,-8.877 5.477,-9.269 -2.105,-16.852 -2.105,-16.852 z"
   id="path79"
   inkscape:connector-curvature="0"
   style="opacity:0.3" />
	</g>
	<polygon
   points="108.528,175.242 104.272,164.938 89.488,155.53 96.208,150.154 116.592,151.498 121.744,167.178 "
   id="polygon81"
   style="opacity:0.5" />
	<polygon
   points="143.919,139.066 133.335,124.562 119.392,127.922 111.888,139.626 126.448,139.402 134.399,154.634 "
   id="polygon83"
   style="opacity:0.35" />
	<polygon
   points="138.099,92.69 120.163,93.501 115.261,106.98 120.873,119.701 128.728,107.44 145.818,109.225 "
   id="polygon85"
   style="opacity:0.25" />
	<defs
   id="defs87">
		<filter
   id="Adobe_OpacityMaskFilter"
   filterUnits="userSpaceOnUse"
   x="-31.469999"
   y="129.43401"
   width="91.837997"
   height="57.230999"
   color-interpolation-filters="sRGB">
			<feColorMatrix
   type="matrix"
   values="1 0 0 0 0  0 1 0 0 0  0 0 1 0 0  0 0 0 1 0"
   id="feColorMatrix90" />
		</filter>
	</defs>
	<mask
   maskUnits="userSpaceOnUse"
   x="-31.47"
   y="129.434"
   width="91.838"
   height="57.231"
   id="SVGID_3_">
		<g
   id="g93"
   style="filter:url(#Adobe_OpacityMaskFilter)">
			<linearGradient
   id="SVGID_4_"
   gradientUnits="userSpaceOnUse"
   x1="26.6367"
   y1="177.2119"
   x2="-13.0106"
   y2="154.7003">
				<stop
   offset="0"
   style="stop-color:#FFFFFF"
   id="stop96" />
				<stop
   offset="1"
   style="stop-color:#000000"
   id="stop98" />
			</linearGradient>
			<rect
   x="-32.478001"
   y="123.05"
   width="108.526"
   height="102.814"
   id="rect100"
   style="fill:url(#SVGID_4_);stroke:#000000" />
		</g>
	</mask>
	<path
   mask="url(#SVGID_3_)"
   d="m -0.943,170.518 c 0,0 22.561,2.932 37.12,8.308 l -0.672,7.84 24.864,-14.336 -21.952,-19.04 -0.672,8.735 c 0,0 -23.52,-1.12 -30.658,-9.884 -5.902,-7.247 -19.069,-18.003 -19.405,-22.708 L -31.47,148.25 c 0,0 21.741,22.695 30.527,22.268 z"
   id="path102"
   inkscape:connector-curvature="0"
   style="opacity:0.68999999" />
</g>


<g
   id="g264"
   transform="translate(-42.203001,-16.756995)">
	<path
   d="m 574.956,574.669 c 0,-0.743 -0.024,-1.343 -0.049,-1.895 h 0.948 l 0.048,0.995 h 0.023 c 0.432,-0.707 1.115,-1.127 2.063,-1.127 1.403,0 2.458,1.188 2.458,2.95 0,2.087 -1.271,3.118 -2.639,3.118 -0.768,0 -1.438,-0.336 -1.786,-0.911 h -0.024 v 3.154 h -1.043 v -6.284 z m 1.043,1.548 c 0,0.155 0.024,0.3 0.048,0.432 0.192,0.731 0.828,1.235 1.583,1.235 1.115,0 1.764,-0.912 1.764,-2.243 0,-1.163 -0.612,-2.159 -1.728,-2.159 -0.72,0 -1.392,0.517 -1.595,1.308 -0.036,0.132 -0.072,0.288 -0.072,0.432 v 0.995 z"
   id="path266"
   inkscape:connector-curvature="0"
   style="fill:#6d6d6d" />
	<path
   d="m 582.084,572.774 1.271,3.43 c 0.132,0.384 0.276,0.84 0.372,1.188 h 0.024 c 0.107,-0.348 0.228,-0.791 0.371,-1.211 l 1.151,-3.406 h 1.115 l -1.583,4.138 c -0.755,1.991 -1.271,3.01 -1.99,3.634 -0.516,0.456 -1.032,0.636 -1.296,0.684 l -0.264,-0.888 c 0.264,-0.084 0.611,-0.252 0.924,-0.516 0.288,-0.228 0.647,-0.636 0.888,-1.175 0.048,-0.108 0.084,-0.192 0.084,-0.252 0,-0.061 -0.024,-0.145 -0.072,-0.276 l -2.146,-5.349 h 1.151 z"
   id="path268"
   inkscape:connector-curvature="0"
   style="fill:#6d6d6d" />
	<path
   d="m 587.352,574.669 c 0,-0.743 -0.024,-1.343 -0.049,-1.895 h 0.948 l 0.048,0.995 h 0.023 c 0.432,-0.707 1.115,-1.127 2.063,-1.127 1.403,0 2.458,1.188 2.458,2.95 0,2.087 -1.271,3.118 -2.639,3.118 -0.768,0 -1.438,-0.336 -1.786,-0.911 h -0.024 v 3.154 h -1.043 v -6.284 z m 1.043,1.548 c 0,0.155 0.024,0.3 0.048,0.432 0.192,0.731 0.828,1.235 1.583,1.235 1.115,0 1.764,-0.912 1.764,-2.243 0,-1.163 -0.612,-2.159 -1.728,-2.159 -0.72,0 -1.392,0.517 -1.595,1.308 -0.036,0.132 -0.072,0.288 -0.072,0.432 v 0.995 z"
   id="path270"
   inkscape:connector-curvature="0"
   style="fill:#6d6d6d" />
	<path
   d="m 594.479,572.774 1.271,3.43 c 0.132,0.384 0.276,0.84 0.372,1.188 h 0.024 c 0.107,-0.348 0.228,-0.791 0.371,-1.211 l 1.151,-3.406 h 1.116 l -1.584,4.138 c -0.755,1.991 -1.271,3.01 -1.99,3.634 -0.516,0.456 -1.031,0.636 -1.296,0.684 l -0.264,-0.888 c 0.264,-0.084 0.611,-0.252 0.924,-0.516 0.288,-0.228 0.647,-0.636 0.888,-1.175 0.048,-0.108 0.084,-0.192 0.084,-0.252 0,-0.061 -0.024,-0.145 -0.072,-0.276 l -2.146,-5.349 h 1.151 z"
   id="path272"
   inkscape:connector-curvature="0"
   style="fill:#6d6d6d" />
	<path
   d="m 602.292,570.063 h 1.055 v 8.516 h -1.055 v -8.516 z"
   id="path274"
   inkscape:connector-curvature="0"
   style="fill:#6d6d6d" />
	<path
   d="m 610.377,575.629 c 0,2.146 -1.487,3.082 -2.891,3.082 -1.571,0 -2.782,-1.151 -2.782,-2.986 0,-1.943 1.271,-3.082 2.878,-3.082 1.667,0 2.795,1.211 2.795,2.986 z m -4.606,0.059 c 0,1.271 0.731,2.231 1.763,2.231 1.008,0 1.763,-0.948 1.763,-2.255 0,-0.983 -0.491,-2.231 -1.738,-2.231 -1.248,10e-4 -1.788,1.152 -1.788,2.255 z"
   id="path276"
   inkscape:connector-curvature="0"
   style="fill:#6d6d6d" />
	<path
   d="m 616.665,577.739 c 0,1.332 -0.265,2.147 -0.828,2.65 -0.563,0.528 -1.379,0.696 -2.11,0.696 -0.696,0 -1.464,-0.168 -1.932,-0.479 l 0.265,-0.804 c 0.384,0.239 0.983,0.455 1.703,0.455 1.079,0 1.87,-0.563 1.87,-2.026 v -0.647 h -0.023 c -0.324,0.539 -0.947,0.971 -1.847,0.971 -1.439,0 -2.471,-1.223 -2.471,-2.83 0,-1.967 1.283,-3.082 2.614,-3.082 1.008,0 1.56,0.527 1.811,1.007 h 0.024 l 0.048,-0.875 h 0.924 c -0.024,0.42 -0.048,0.888 -0.048,1.595 v 3.369 z m -1.044,-2.674 c 0,-0.181 -0.012,-0.336 -0.06,-0.48 -0.192,-0.611 -0.708,-1.115 -1.476,-1.115 -1.007,0 -1.727,0.852 -1.727,2.195 0,1.139 0.575,2.087 1.715,2.087 0.647,0 1.235,-0.408 1.463,-1.08 0.061,-0.18 0.084,-0.384 0.084,-0.563 v -1.044 z"
   id="path278"
   inkscape:connector-curvature="0"
   style="fill:#6d6d6d" />
	<path
   d="m 623.672,575.629 c 0,2.146 -1.487,3.082 -2.891,3.082 -1.571,0 -2.782,-1.151 -2.782,-2.986 0,-1.943 1.271,-3.082 2.878,-3.082 1.667,0 2.795,1.211 2.795,2.986 z m -4.606,0.059 c 0,1.271 0.731,2.231 1.763,2.231 1.008,0 1.763,-0.948 1.763,-2.255 0,-0.983 -0.491,-2.231 -1.738,-2.231 -1.249,10e-4 -1.788,1.152 -1.788,2.255 z"
   id="path280"
   inkscape:connector-curvature="0"
   style="fill:#6d6d6d" />
	<path
   d="m 631.629,577.188 c 0,0.504 0.024,0.996 0.096,1.392 h -0.959 l -0.084,-0.731 h -0.036 c -0.323,0.456 -0.947,0.863 -1.775,0.863 -1.175,0 -1.774,-0.827 -1.774,-1.667 0,-1.403 1.247,-2.171 3.49,-2.159 v -0.119 c 0,-0.48 -0.132,-1.344 -1.319,-1.344 -0.54,0 -1.104,0.168 -1.512,0.432 l -0.239,-0.695 c 0.479,-0.312 1.175,-0.516 1.906,-0.516 1.775,0 2.207,1.211 2.207,2.374 v 2.17 z m -1.02,-1.571 c -1.151,-0.024 -2.458,0.18 -2.458,1.307 0,0.684 0.455,1.008 0.995,1.008 0.756,0 1.235,-0.479 1.403,-0.972 0.036,-0.108 0.06,-0.228 0.06,-0.336 v -1.007 z"
   id="path282"
   inkscape:connector-curvature="0"
   style="fill:#6d6d6d" />
	<path
   d="m 633.335,574.585 c 0,-0.684 -0.013,-1.271 -0.049,-1.811 h 0.924 l 0.036,1.14 h 0.048 c 0.264,-0.78 0.899,-1.271 1.607,-1.271 0.12,0 0.204,0.012 0.3,0.036 v 0.995 c -0.108,-0.024 -0.216,-0.036 -0.36,-0.036 -0.743,0 -1.271,0.563 -1.415,1.355 -0.023,0.144 -0.048,0.312 -0.048,0.491 v 3.095 h -1.043 v -3.994 z"
   id="path284"
   inkscape:connector-curvature="0"
   style="fill:#6d6d6d" />
	<path
   d="m 638.817,571.383 v 1.392 h 1.512 v 0.804 h -1.512 v 3.13 c 0,0.72 0.204,1.128 0.792,1.128 0.288,0 0.456,-0.024 0.611,-0.072 l 0.048,0.791 c -0.203,0.084 -0.527,0.156 -0.936,0.156 -0.491,0 -0.887,-0.168 -1.139,-0.456 -0.3,-0.312 -0.408,-0.827 -0.408,-1.511 v -3.166 h -0.899 v -0.804 h 0.899 v -1.067 l 1.032,-0.325 z"
   id="path286"
   inkscape:connector-curvature="0"
   style="fill:#6d6d6d" />
	<path
   d="m 642.046,572.774 0.768,2.95 c 0.168,0.647 0.324,1.247 0.433,1.847 h 0.035 c 0.132,-0.587 0.324,-1.211 0.516,-1.847 l 0.948,-2.95 h 0.887 l 0.9,2.902 c 0.216,0.695 0.384,1.308 0.516,1.895 h 0.036 c 0.096,-0.587 0.251,-1.199 0.443,-1.883 l 0.827,-2.914 h 1.044 l -1.871,5.805 h -0.96 l -0.887,-2.771 c -0.204,-0.647 -0.372,-1.224 -0.517,-1.907 h -0.023 c -0.144,0.696 -0.324,1.296 -0.527,1.919 l -0.936,2.759 h -0.96 l -1.751,-5.805 h 1.079 z"
   id="path288"
   inkscape:connector-curvature="0"
   style="fill:#6d6d6d" />
	<path
   d="m 655.592,575.629 c 0,2.146 -1.487,3.082 -2.891,3.082 -1.571,0 -2.782,-1.151 -2.782,-2.986 0,-1.943 1.271,-3.082 2.878,-3.082 1.667,0 2.795,1.211 2.795,2.986 z m -4.606,0.059 c 0,1.271 0.731,2.231 1.763,2.231 1.008,0 1.763,-0.948 1.763,-2.255 0,-0.983 -0.491,-2.231 -1.738,-2.231 -1.249,10e-4 -1.788,1.152 -1.788,2.255 z"
   id="path290"
   inkscape:connector-curvature="0"
   style="fill:#6d6d6d" />
	<path
   d="m 656.927,574.585 c 0,-0.684 -0.013,-1.271 -0.049,-1.811 h 0.924 l 0.036,1.14 h 0.048 c 0.264,-0.78 0.899,-1.271 1.607,-1.271 0.12,0 0.204,0.012 0.3,0.036 v 0.995 c -0.108,-0.024 -0.216,-0.036 -0.36,-0.036 -0.743,0 -1.271,0.563 -1.415,1.355 -0.023,0.144 -0.048,0.312 -0.048,0.491 v 3.095 h -1.043 v -3.994 z"
   id="path292"
   inkscape:connector-curvature="0"
   style="fill:#6d6d6d" />
	<path
   d="m 661.941,575.437 h 0.024 c 0.144,-0.203 0.348,-0.455 0.516,-0.659 l 1.703,-2.003 h 1.271 l -2.242,2.387 2.555,3.418 h -1.283 l -2.003,-2.782 -0.54,0.6 v 2.183 h -1.043 v -8.516 h 1.043 v 5.372 z"
   id="path294"
   inkscape:connector-curvature="0"
   style="fill:#6d6d6d" />
	<path
   d="m 574.62,592.979 v -0.647 l 0.827,-0.804 c 1.991,-1.895 2.891,-2.902 2.902,-4.078 0,-0.791 -0.384,-1.522 -1.547,-1.522 -0.708,0 -1.296,0.359 -1.655,0.659 l -0.336,-0.743 c 0.54,-0.456 1.308,-0.792 2.207,-0.792 1.679,0 2.387,1.151 2.387,2.267 0,1.439 -1.044,2.603 -2.687,4.186 l -0.624,0.576 v 0.023 h 3.502 v 0.876 h -4.976 z"
   id="path296"
   inkscape:connector-curvature="0"
   style="fill:#6d6d6d" />
	<path
   d="m 585.957,588.998 c 0,2.65 -0.983,4.113 -2.71,4.113 -1.523,0 -2.555,-1.427 -2.579,-4.006 0,-2.614 1.128,-4.054 2.711,-4.054 1.642,10e-4 2.578,1.464 2.578,3.947 z m -4.233,0.119 c 0,2.027 0.624,3.179 1.583,3.179 1.079,0 1.595,-1.26 1.595,-3.25 0,-1.919 -0.491,-3.179 -1.583,-3.179 -0.923,0 -1.595,1.128 -1.595,3.25 z"
   id="path298"
   inkscape:connector-curvature="0"
   style="fill:#6d6d6d" />
	<path
   d="m 592.112,588.998 c 0,2.65 -0.983,4.113 -2.71,4.113 -1.523,0 -2.555,-1.427 -2.579,-4.006 0,-2.614 1.128,-4.054 2.711,-4.054 1.643,10e-4 2.578,1.464 2.578,3.947 z m -4.233,0.119 c 0,2.027 0.623,3.179 1.583,3.179 1.079,0 1.595,-1.26 1.595,-3.25 0,-1.919 -0.491,-3.179 -1.583,-3.179 -0.923,0 -1.595,1.128 -1.595,3.25 z"
   id="path300"
   inkscape:connector-curvature="0"
   style="fill:#6d6d6d" />
	<path
   d="m 593.699,592.236 c 0.228,0.023 0.492,0 0.852,-0.036 0.611,-0.084 1.188,-0.336 1.631,-0.756 0.516,-0.468 0.888,-1.151 1.031,-2.075 h -0.035 c -0.433,0.528 -1.056,0.84 -1.835,0.84 -1.403,0 -2.303,-1.056 -2.303,-2.387 0,-1.476 1.067,-2.771 2.662,-2.771 1.595,0 2.578,1.295 2.578,3.286 0,1.715 -0.575,2.914 -1.343,3.658 -0.6,0.588 -1.428,0.947 -2.267,1.043 -0.384,0.061 -0.72,0.072 -0.972,0.061 v -0.863 z m 1.907,-6.381 c -0.888,0 -1.523,0.791 -1.523,1.895 0,0.972 0.588,1.655 1.499,1.655 0.708,0 1.26,-0.348 1.535,-0.815 0.061,-0.096 0.096,-0.216 0.096,-0.384 0,-1.331 -0.491,-2.351 -1.595,-2.351 h -0.012 z"
   id="path302"
   inkscape:connector-curvature="0"
   style="fill:#6d6d6d" />
	<path
   d="m 598.691,593.459 3.346,-8.695 h 0.815 l -3.357,8.695 h -0.804 z"
   id="path304"
   inkscape:connector-curvature="0"
   style="fill:#6d6d6d" />
	<path
   d="m 605.649,586.167 h -0.023 l -1.355,0.731 -0.204,-0.803 1.703,-0.912 h 0.899 v 7.796 h -1.02 v -6.812 z"
   id="path306"
   inkscape:connector-curvature="0"
   style="fill:#6d6d6d" />
	<path
   d="m 609.515,592.979 v -0.647 l 0.827,-0.804 c 1.991,-1.895 2.891,-2.902 2.902,-4.078 0,-0.791 -0.384,-1.522 -1.547,-1.522 -0.708,0 -1.296,0.359 -1.655,0.659 l -0.336,-0.743 c 0.54,-0.456 1.308,-0.792 2.207,-0.792 1.679,0 2.387,1.151 2.387,2.267 0,1.439 -1.044,2.603 -2.687,4.186 l -0.624,0.576 v 0.023 h 3.502 v 0.876 h -4.976 z"
   id="path308"
   inkscape:connector-curvature="0"
   style="fill:#6d6d6d" />
	<path
   d="m 615.119,593.459 3.346,-8.695 h 0.815 l -3.357,8.695 h -0.804 z"
   id="path310"
   inkscape:connector-curvature="0"
   style="fill:#6d6d6d" />
	<path
   d="m 624.968,588.998 c 0,2.65 -0.983,4.113 -2.71,4.113 -1.523,0 -2.555,-1.427 -2.579,-4.006 0,-2.614 1.128,-4.054 2.711,-4.054 1.642,10e-4 2.578,1.464 2.578,3.947 z m -4.234,0.119 c 0,2.027 0.623,3.179 1.583,3.179 1.079,0 1.595,-1.26 1.595,-3.25 0,-1.919 -0.491,-3.179 -1.583,-3.179 -0.923,0 -1.595,1.128 -1.595,3.25 z"
   id="path312"
   inkscape:connector-curvature="0"
   style="fill:#6d6d6d" />
	<path
   d="m 631.003,585.184 v 0.695 l -3.394,7.101 h -1.092 l 3.382,-6.896 v -0.023 h -3.813 v -0.876 h 4.917 z"
   id="path314"
   inkscape:connector-curvature="0"
   style="fill:#6d6d6d" />
	<path
   d="m 634.834,591.9 c 0.312,0.203 0.863,0.42 1.392,0.42 0.768,0 1.127,-0.384 1.127,-0.864 0,-0.504 -0.3,-0.779 -1.079,-1.067 -1.044,-0.371 -1.535,-0.947 -1.535,-1.643 0,-0.936 0.756,-1.703 2.003,-1.703 0.588,0 1.104,0.168 1.427,0.359 l -0.264,0.768 c -0.228,-0.144 -0.647,-0.336 -1.188,-0.336 -0.623,0 -0.971,0.36 -0.971,0.792 0,0.479 0.348,0.695 1.103,0.983 1.008,0.384 1.523,0.888 1.523,1.751 0,1.02 -0.791,1.751 -2.171,1.751 -0.636,0 -1.223,-0.168 -1.631,-0.407 l 0.264,-0.804 z"
   id="path316"
   inkscape:connector-curvature="0"
   style="fill:#6d6d6d" />
	<path
   d="m 643.808,591.588 c 0,0.504 0.024,0.996 0.096,1.392 h -0.959 l -0.084,-0.731 h -0.036 c -0.324,0.456 -0.947,0.863 -1.775,0.863 -1.175,0 -1.774,-0.827 -1.774,-1.667 0,-1.403 1.247,-2.171 3.49,-2.159 v -0.119 c 0,-0.48 -0.132,-1.344 -1.319,-1.344 -0.54,0 -1.104,0.168 -1.512,0.432 l -0.239,-0.695 c 0.479,-0.312 1.175,-0.516 1.906,-0.516 1.775,0 2.207,1.211 2.207,2.374 v 2.17 z m -1.02,-1.57 c -1.151,-0.024 -2.458,0.18 -2.458,1.307 0,0.684 0.455,1.008 0.995,1.008 0.756,0 1.235,-0.479 1.403,-0.972 0.036,-0.108 0.06,-0.228 0.06,-0.336 v -1.007 z"
   id="path318"
   inkscape:connector-curvature="0"
   style="fill:#6d6d6d" />
	<path
   d="m 645.514,588.746 c 0,-0.6 -0.013,-1.092 -0.049,-1.571 h 0.924 l 0.048,0.936 h 0.036 c 0.324,-0.552 0.863,-1.067 1.823,-1.067 0.791,0 1.391,0.479 1.643,1.163 h 0.024 c 0.18,-0.324 0.407,-0.575 0.647,-0.756 0.348,-0.264 0.731,-0.407 1.283,-0.407 0.768,0 1.907,0.504 1.907,2.519 v 3.418 h -1.031 v -3.286 c 0,-1.115 -0.408,-1.787 -1.26,-1.787 -0.6,0 -1.067,0.443 -1.247,0.96 -0.048,0.144 -0.084,0.335 -0.084,0.527 v 3.586 h -1.031 v -3.479 c 0,-0.923 -0.408,-1.595 -1.212,-1.595 -0.659,0 -1.139,0.527 -1.307,1.056 -0.061,0.155 -0.084,0.336 -0.084,0.516 v 3.502 h -1.031 v -4.235 z"
   id="path320"
   inkscape:connector-curvature="0"
   style="fill:#6d6d6d" />
	<path
   d="m 660.379,591.396 c 0,0.6 0.013,1.127 0.049,1.583 h -0.936 l -0.061,-0.947 h -0.023 c -0.276,0.468 -0.888,1.079 -1.919,1.079 -0.912,0 -2.003,-0.504 -2.003,-2.543 v -3.394 h 1.055 v 3.214 c 0,1.104 0.336,1.848 1.296,1.848 0.707,0 1.199,-0.492 1.391,-0.96 0.061,-0.156 0.097,-0.348 0.097,-0.54 v -3.562 h 1.055 v 4.222 z"
   id="path322"
   inkscape:connector-curvature="0"
   style="fill:#6d6d6d" />
	<path
   d="m 662.721,590.269 c 0.024,1.428 0.936,2.016 1.991,2.016 0.756,0 1.211,-0.132 1.607,-0.3 l 0.18,0.755 c -0.372,0.168 -1.008,0.372 -1.931,0.372 -1.787,0 -2.854,-1.188 -2.854,-2.938 0,-1.75 1.031,-3.13 2.723,-3.13 1.895,0 2.398,1.667 2.398,2.734 0,0.216 -0.024,0.384 -0.036,0.491 h -4.078 z m 3.094,-0.755 c 0.012,-0.672 -0.276,-1.715 -1.463,-1.715 -1.067,0 -1.535,0.983 -1.619,1.715 h 3.082 z"
   id="path324"
   inkscape:connector-curvature="0"
   style="fill:#6d6d6d" />
	<path
   d="m 668.146,584.464 h 1.055 v 8.516 h -1.055 v -8.516 z"
   id="path326"
   inkscape:connector-curvature="0"
   style="fill:#6d6d6d" />
	<path
   d="m 673.521,588.985 c 0,-0.684 -0.013,-1.271 -0.049,-1.811 h 0.924 l 0.036,1.14 h 0.048 c 0.264,-0.78 0.899,-1.271 1.607,-1.271 0.12,0 0.203,0.012 0.3,0.036 v 0.995 c -0.108,-0.024 -0.216,-0.036 -0.36,-0.036 -0.743,0 -1.271,0.563 -1.415,1.355 -0.023,0.144 -0.048,0.312 -0.048,0.491 v 3.095 h -1.043 v -3.994 z"
   id="path328"
   inkscape:connector-curvature="0"
   style="fill:#6d6d6d" />
	<path
   d="m 677.913,590.269 c 0.024,1.428 0.936,2.016 1.991,2.016 0.756,0 1.211,-0.132 1.607,-0.3 l 0.18,0.755 c -0.372,0.168 -1.008,0.372 -1.931,0.372 -1.787,0 -2.854,-1.188 -2.854,-2.938 0,-1.75 1.031,-3.13 2.723,-3.13 1.895,0 2.398,1.667 2.398,2.734 0,0.216 -0.024,0.384 -0.036,0.491 h -4.078 z m 3.095,-0.755 c 0.012,-0.672 -0.276,-1.715 -1.463,-1.715 -1.067,0 -1.535,0.983 -1.619,1.715 h 3.082 z"
   id="path330"
   inkscape:connector-curvature="0"
   style="fill:#6d6d6d" />
	<path
   d="m 684.513,585.544 c 0.012,0.359 -0.252,0.647 -0.672,0.647 -0.371,0 -0.636,-0.288 -0.636,-0.647 0,-0.372 0.276,-0.66 0.66,-0.66 0.396,0 0.648,0.288 0.648,0.66 z m -1.175,7.435 v -5.805 h 1.055 v 5.805 h -1.055 z"
   id="path332"
   inkscape:connector-curvature="0"
   style="fill:#6d6d6d" />
	<path
   d="m 686.001,591.9 c 0.312,0.203 0.863,0.42 1.392,0.42 0.768,0 1.127,-0.384 1.127,-0.864 0,-0.504 -0.3,-0.779 -1.079,-1.067 -1.044,-0.371 -1.535,-0.947 -1.535,-1.643 0,-0.936 0.756,-1.703 2.003,-1.703 0.588,0 1.104,0.168 1.427,0.359 l -0.264,0.768 c -0.228,-0.144 -0.647,-0.336 -1.188,-0.336 -0.623,0 -0.971,0.36 -0.971,0.792 0,0.479 0.348,0.695 1.103,0.983 1.008,0.384 1.523,0.888 1.523,1.751 0,1.02 -0.791,1.751 -2.171,1.751 -0.636,0 -1.223,-0.168 -1.631,-0.407 l 0.264,-0.804 z"
   id="path334"
   inkscape:connector-curvature="0"
   style="fill:#6d6d6d" />
</g>
<path
   style="fill:url(#linearGradient4158);fill-opacity:1;stroke:none"
   d="m -39.411627,128.55903 c 3.648072,9.15888 32.9454945,17.49942 34.7403045,15.93868 0.0732,-3.93095 0.43679,-8.47093 0.43679,-8.47093 0,0 16.8971525,13.88296 22.5804825,19.05885 -5.14622,2.54814 -24.4402525,13.25297 -24.4402525,13.25297 l 0.41181,-7.58934 c 0,0 -36.2179295,-6.72378 -46.4783685,-11.38754 z"
   id="path3382"
   inkscape:connector-curvature="0"
   sodipodi:nodetypes="cccccccc" /></svg>