<?xml version="1.0" encoding="UTF-8" standalone="no"?>
<!-- Created with Inkscape (http://www.inkscape.org/) -->

<svg
   xmlns:dc="http://purl.org/dc/elements/1.1/"
   xmlns:cc="http://creativecommons.org/ns#"
   xmlns:rdf="http://www.w3.org/1999/02/22-rdf-syntax-ns#"
   xmlns:svg="http://www.w3.org/2000/svg"
   xmlns="http://www.w3.org/2000/svg"
   version="1.1"
   width="845.72284"
   height="249.91602"
   id="svg3004"
   xml:space="preserve"><metadata
     id="metadata3010"><rdf:RDF><cc:Work
         rdf:about=""><dc:format>image/svg+xml</dc:format><dc:type
           rdf:resource="http://purl.org/dc/dcmitype/StillImage" /><dc:title></dc:title></cc:Work></rdf:RDF></metadata><defs
     id="defs3008"><radialGradient
       cx="0"
       cy="0"
       r="1"
       fx="0"
       fy="0"
       id="radialGradient3026"
       gradientUnits="userSpaceOnUse"
       gradientTransform="matrix(90.218445,0,0,-90.21843,147.39941,298.86182)"
       spreadMethod="pad"><stop
         id="stop3028"
         style="stop-color:#ffffff;stop-opacity:1"
         offset="0" /><stop
         id="stop3030"
         style="stop-color:#999900;stop-opacity:1"
         offset="1" /></radialGradient><radialGradient
       cx="0"
       cy="0"
       r="1"
       fx="0"
       fy="0"
       id="radialGradient3046"
       gradientUnits="userSpaceOnUse"
       gradientTransform="matrix(79.923355,0,0,-79.92334,172.25391,320.92187)"
       spreadMethod="pad"><stop
         id="stop3048"
         style="stop-color:#ffffff;stop-opacity:1"
         offset="0" /><stop
         id="stop3050"
         style="stop-color:#666633;stop-opacity:1"
         offset="1" /></radialGradient><clipPath
       id="clipPath3058"><path
         d="m 0,595.276 841.89,0 L 841.89,0 0,0 0,595.276 z"
         id="path3060" /></clipPath></defs><g
     transform="matrix(1.25,0,0,-1.25,-83.86853,499.5625)"
     id="g3012"><g
       id="g3014"><g
         id="g3016"><g
           id="g3022"><g
             id="g3024"><path
               d="m 127.931,397.88 c 0,0 -5.055,0.379 -9.981,-6.823 l 0,0 -6.444,-13.645 c 0,0 -3.033,-5.811 1.516,-8.338 l 0,0 10.867,-1.264 c 0,0 20.846,-0.506 9.854,-24.764 l 0,0 -5.56,-12.761 c 0,0 -8.339,-21.354 -30.196,-13.392 l 0,0 -6.443,1.894 c 0,0 -7.075,3.411 -12.257,-6.316 l 0,0 -10.991,-22.365 c 0,0 -3.285,-6.063 1.01,-11.498 l 0,0 14.404,-8.465 c 0,0 8.465,-3.032 12.003,3.792 l 0,0 13.772,29.059 c 0,0 5.432,15.54 22.868,11.877 l 0,0 c 0,0 9.349,-2.4 18.952,-5.56 l 0,0 c 11.37,-3.962 18.653,-20.11 11.371,-42.073 l 0,0 -6.191,-19.963 c -1.517,-6.569 -4.044,-16.171 7.075,-24.637 l 0,0 c 0,0 32.092,-19.078 35.756,-21.225 l 0,0 c 17.94,-7.202 20.594,10.866 20.594,10.866 l 0,0 7.706,40.809 c 0,0 1.644,14.783 -9.222,20.847 l 0,0 -36.01,14.404 c 0,0 -21.389,7.999 -12.128,38.155 l 0,0 4.927,15.162 c 0,0 2.401,11.246 -7.96,12.509 l 0,0 -15.667,2.527 c 0,0 -19.457,1.01 -9.982,22.236 l 0,0 5.056,11.75 c 0,0 2.905,6.318 -3.286,7.329 l 0,0 -15.413,-0.127 z"
               id="path3032"
               style="fill:url(#radialGradient3026);stroke:none" /></g></g></g></g><g
       id="g3034"><g
         id="g3036"><g
           id="g3042"><g
             id="g3044"><path
               d="m 215.236,399.271 c -12.003,-1.263 -14.279,-9.224 -14.279,-9.224 l 0,0 -5.179,-17.308 c 0,0 -3.032,-10.993 7.959,-13.014 l 0,0 29.566,-2.907 c 0,0 12.76,0.632 15.92,10.108 l 0,0 4.043,22.49 c 0,0 1.642,8.339 -9.224,10.234 l 0,0 -28.806,-0.379 z m -50.666,-0.758 c 0,0 -6.317,-0.253 -9.98,-5.937 l 0,0 -6.949,-17.058 c 0,0 -4.171,-9.602 4.547,-10.361 l 0,0 18.826,-1.895 c 0,0 8.971,-0.252 13.645,7.834 l 0,0 6.192,19.077 c 0,0 2.148,7.835 -5.813,8.593 l 0,0 -20.468,-0.253 z m -63.551,-42.326 -8.592,-17.436 c 0,0 -4.043,-8.97 2.275,-11.119 l 0,0 12.382,-3.663 c 0,0 6.949,-3.033 12.887,5.433 l 0,0 8.717,20.468 c 0,0 3.664,8.338 -3.158,9.982 l 0,0 -12.761,1.641 c -0.815,0.174 -1.589,0.252 -2.321,0.252 l 0,0 c -6.195,0 -9.429,-5.558 -9.429,-5.558 m 85.164,-14.793 c 0,0 -0.264,-0.959 -8.438,-27.842 l 0,0 c -0.556,-6.387 2.415,-12.088 10.447,-14.22 l 0,0 c 23.611,-6.924 3.773,-0.87 29.307,-8.705 l 0,0 c 12.263,-1.123 16.746,1.756 19.456,11.991 l 0,0 c 4.189,24.491 0.368,3.628 5.209,29.504 l 0,0 c 0.989,5.287 -4.537,12.041 -9.866,12.769 l 0,0 c -15.975,2.178 -15.767,2.153 -15.537,2.128 l 0,0 c 0.234,-0.025 0.489,-0.05 -16.092,2.224 l 0,0 c -0.175,0.002 -0.348,0.003 -0.518,0.003 l 0,0 c -8.364,0 -11.693,-2.449 -13.968,-7.852 m -68.322,-38.756 c -1.477,-1.654 -2.06,-3.307 -2.06,-3.306 l 0,0 -11.878,-27.797 c 0,0 -2.399,-9.982 3.54,-15.667 l 0,0 21.605,-12.888 c 0,0 10.612,-4.043 15.287,6.193 l 0,0 10.865,32.721 c 0,0 3.791,11.499 -5.937,16.299 l 0,0 -20.721,7.328 c -1.192,0.294 -2.284,0.423 -3.282,0.423 l 0,0 c -3.572,0 -5.942,-1.653 -7.419,-3.306"
               id="path3052"
               style="fill:url(#radialGradient3046);stroke:none" /></g></g></g></g><g
       id="g3054"><g
         clip-path="url(#clipPath3058)"
         id="g3056"><g
           transform="translate(280.375,322.0859)"
           id="g3062"><path
             d="m 0,0 c 2.301,-5.217 7.21,-7.671 12.732,-7.671 7.748,0 13.655,5.139 13.655,12.426 0,6.443 -7.518,9.818 -13.655,11.967 -6.903,2.378 -15.187,6.213 -15.187,14.113 0,8.668 6.98,14.728 15.955,14.728 6.443,0 12.272,-2.915 14.881,-9.051 l -2.148,-0.921 c -2.301,5.216 -7.211,7.671 -12.733,7.671 -7.747,0 -13.654,-5.139 -13.654,-12.427 0,-6.443 7.517,-9.818 13.654,-11.966 6.903,-2.378 15.188,-6.213 15.188,-14.114 0,-8.667 -6.981,-14.728 -15.956,-14.728 -6.519,0 -12.272,2.915 -14.88,9.052 L 0,0 z"
             id="path3064"
             style="fill:#999900;fill-opacity:1;fill-rule:nonzero;stroke:none" /></g><g
           transform="translate(280.375,322.0859)"
           id="g3066"><path
             d="m 0,0 c 2.301,-5.217 7.21,-7.671 12.732,-7.671 7.748,0 13.655,5.139 13.655,12.426 0,6.443 -7.518,9.818 -13.655,11.967 -6.903,2.378 -15.187,6.213 -15.187,14.113 0,8.668 6.98,14.728 15.955,14.728 6.443,0 12.272,-2.915 14.881,-9.051 l -2.148,-0.921 c -2.301,5.216 -7.211,7.671 -12.733,7.671 -7.747,0 -13.654,-5.139 -13.654,-12.427 0,-6.443 7.517,-9.818 13.654,-11.966 6.903,-2.378 15.188,-6.213 15.188,-14.114 0,-8.667 -6.981,-14.728 -15.956,-14.728 -6.519,0 -12.272,2.915 -14.88,9.052 L 0,0 z"
             id="path3068"
             style="fill:none;stroke:#999900;stroke-width:2;stroke-linecap:butt;stroke-linejoin:miter;stroke-miterlimit:4;stroke-opacity:1;stroke-dasharray:none" /></g><g
           transform="translate(338.4395,314.5684)"
           id="g3070"><path
             d="m 0,0 c 10.509,0 19.023,8.515 19.023,19.023 0,10.508 -8.514,19.023 -19.023,19.023 -10.509,0 -19.022,-8.515 -19.022,-19.023 C -19.022,8.515 -10.509,0 0,0 m 0,40.347 c 11.736,0 21.324,-9.588 21.324,-21.324 C 21.324,7.287 11.736,-2.301 0,-2.301 c -11.735,0 -21.324,9.588 -21.324,21.324 0,11.736 9.589,21.324 21.324,21.324"
             id="path3072"
             style="fill:#999900;fill-opacity:1;fill-rule:nonzero;stroke:none" /></g><g
           transform="translate(338.4395,314.5684)"
           id="g3074"><path
             d="m 0,0 c 10.509,0 19.023,8.515 19.023,19.023 0,10.508 -8.514,19.023 -19.023,19.023 -10.509,0 -19.022,-8.515 -19.022,-19.023 C -19.022,8.515 -10.509,0 0,0 z m 0,40.347 c 11.736,0 21.324,-9.588 21.324,-21.324 C 21.324,7.287 11.736,-2.301 0,-2.301 c -11.735,0 -21.324,9.588 -21.324,21.324 0,11.736 9.589,21.324 21.324,21.324 z"
             id="path3076"
             style="fill:none;stroke:#999900;stroke-width:2;stroke-linecap:butt;stroke-linejoin:miter;stroke-miterlimit:4;stroke-opacity:1;stroke-dasharray:none" /></g><g
           transform="translate(365.208,354.1484)"
           id="g3078"><path
             d="m 0,0 3.452,0 0,8.821 c 0,9.742 6.366,15.572 13.884,15.572 5.216,0 8.054,-1.688 11.43,-4.833 l -1.535,-1.687 c -3.221,2.991 -5.599,4.218 -9.895,4.218 -6.29,0 -11.583,-4.909 -11.583,-13.27 l 0,-8.821 12.12,0 0,-2.301 -12.12,0 0,-61.288 -2.301,0 0,61.288 L 0,-2.301 0,0 z"
             id="path3080"
             style="fill:#999900;fill-opacity:1;fill-rule:nonzero;stroke:none" /></g><g
           transform="translate(365.208,354.1484)"
           id="g3082"><path
             d="m 0,0 3.452,0 0,8.821 c 0,9.742 6.366,15.572 13.884,15.572 5.216,0 8.054,-1.688 11.43,-4.833 l -1.535,-1.687 c -3.221,2.991 -5.599,4.218 -9.895,4.218 -6.29,0 -11.583,-4.909 -11.583,-13.27 l 0,-8.821 12.12,0 0,-2.301 -12.12,0 0,-61.288 -2.301,0 0,61.288 L 0,-2.301 0,0 z"
             id="path3084"
             style="fill:none;stroke:#999900;stroke-width:2;stroke-linecap:butt;stroke-linejoin:miter;stroke-miterlimit:4;stroke-opacity:1;stroke-dasharray:none" /></g><g
           transform="translate(385.0732,354.1484)"
           id="g3086"><path
             d="m 0,0 3.452,0 0,13.27 2.301,0 0,-13.27 12.043,0 0,-2.301 -12.043,0 0,-24.392 c 0,-7.594 4.296,-13.271 12.043,-13.271 5.217,0 8.668,1.841 11.89,4.68 l 1.38,-1.842 c -3.528,-3.145 -7.67,-5.139 -13.04,-5.139 -9.434,0 -14.574,6.904 -14.574,15.725 l 0,24.239 L 0,-2.301 0,0 z"
             id="path3088"
             style="fill:#999900;fill-opacity:1;fill-rule:nonzero;stroke:none" /></g><g
           transform="translate(385.0732,354.1484)"
           id="g3090"><path
             d="m 0,0 3.452,0 0,13.27 2.301,0 0,-13.27 12.043,0 0,-2.301 -12.043,0 0,-24.392 c 0,-7.594 4.296,-13.271 12.043,-13.271 5.217,0 8.668,1.841 11.89,4.68 l 1.38,-1.842 c -3.528,-3.145 -7.67,-5.139 -13.04,-5.139 -9.434,0 -14.574,6.904 -14.574,15.725 l 0,24.239 L 0,-2.301 0,0 z"
             id="path3092"
             style="fill:none;stroke:#999900;stroke-width:2;stroke-linecap:butt;stroke-linejoin:miter;stroke-miterlimit:4;stroke-opacity:1;stroke-dasharray:none" /></g><g
           transform="translate(450.9629,354.1484)"
           id="g3094"><path
             d="m 0,0 0,-26.387 c 0,-8.744 5.906,-13.193 11.813,-13.193 5.906,0 11.812,4.449 11.812,13.193 l 0,26.387 2.302,0 0,-26.387 c 0,-10.278 -6.981,-15.494 -14.114,-15.494 -5.292,0 -10.663,2.991 -12.963,8.898 -2.302,-5.907 -7.671,-8.898 -12.964,-8.898 -6.98,0 -14.114,5.216 -14.114,15.494 l 0,26.387 2.301,0 0,-26.387 c 0,-8.744 5.906,-13.193 11.813,-13.193 5.907,0 11.813,4.449 11.813,13.193 L -2.301,0 0,0 z"
             id="path3096"
             style="fill:#999900;fill-opacity:1;fill-rule:nonzero;stroke:none" /></g><g
           transform="translate(450.9629,354.1484)"
           id="g3098"><path
             d="m 0,0 0,-26.387 c 0,-8.744 5.906,-13.193 11.813,-13.193 5.906,0 11.812,4.449 11.812,13.193 l 0,26.387 2.302,0 0,-26.387 c 0,-10.278 -6.981,-15.494 -14.114,-15.494 -5.292,0 -10.663,2.991 -12.963,8.898 -2.302,-5.907 -7.671,-8.898 -12.964,-8.898 -6.98,0 -14.114,5.216 -14.114,15.494 l 0,26.387 2.301,0 0,-26.387 c 0,-8.744 5.906,-13.193 11.813,-13.193 5.907,0 11.813,4.449 11.813,13.193 L -2.301,0 0,0 z"
             id="path3100"
             style="fill:none;stroke:#999900;stroke-width:2;stroke-linecap:butt;stroke-linejoin:miter;stroke-miterlimit:4;stroke-opacity:1;stroke-dasharray:none" /></g><g
           transform="translate(515.3945,320.3984)"
           id="g3102"><path
             d="m 0,0 0,13.347 c -3.375,4.141 -8.055,6.29 -13.424,6.29 -7.44,0 -13.961,-4.833 -13.961,-12.658 0,-7.824 6.598,-12.809 13.961,-12.809 4.986,0 10.049,1.687 13.424,5.83 m -25.62,28.841 c 3.759,3.605 8.361,5.676 14.114,5.676 5.906,0 13.807,-3.758 13.807,-15.725 l 0,-26.156 -2.301,0 0,3.988 c -3.683,-3.375 -8.592,-4.755 -13.424,-4.755 -8.591,0 -16.262,5.906 -16.262,15.11 0,9.206 7.594,14.959 16.262,14.959 5.676,0 10.202,-2.225 13.424,-5.293 l 0,2.147 c 0,10.279 -6.521,13.424 -11.506,13.424 -5.217,0 -9.281,-1.841 -12.427,-4.909 l -1.687,1.534 z"
             id="path3104"
             style="fill:#999900;fill-opacity:1;fill-rule:nonzero;stroke:none" /></g><g
           transform="translate(515.3945,320.3984)"
           id="g3106"><path
             d="m 0,0 0,13.347 c -3.375,4.141 -8.055,6.29 -13.424,6.29 -7.44,0 -13.961,-4.833 -13.961,-12.658 0,-7.824 6.598,-12.809 13.961,-12.809 4.986,0 10.049,1.687 13.424,5.83 z m -25.62,28.841 c 3.759,3.605 8.361,5.676 14.114,5.676 5.906,0 13.807,-3.758 13.807,-15.725 l 0,-26.156 -2.301,0 0,3.988 c -3.683,-3.375 -8.592,-4.755 -13.424,-4.755 -8.591,0 -16.262,5.906 -16.262,15.11 0,9.206 7.594,14.959 16.262,14.959 5.676,0 10.202,-2.225 13.424,-5.293 l 0,2.147 c 0,10.279 -6.521,13.424 -11.506,13.424 -5.217,0 -9.281,-1.841 -12.427,-4.909 l -1.687,1.534 z"
             id="path3108"
             style="fill:none;stroke:#999900;stroke-width:2;stroke-linecap:butt;stroke-linejoin:miter;stroke-miterlimit:4;stroke-opacity:1;stroke-dasharray:none" /></g><g
           transform="translate(526.8994,313.0342)"
           id="g3110"><path
             d="m 0,0 0,26.693 c 0,9.282 7.287,15.572 16.031,15.572 l 0,-2.301 c -7.516,0 -13.73,-5.369 -13.73,-13.271 L 2.301,0 0,0 z"
             id="path3112"
             style="fill:#999900;fill-opacity:1;fill-rule:nonzero;stroke:none" /></g><g
           transform="translate(526.8994,313.0342)"
           id="g3114"><path
             d="m 0,0 0,26.693 c 0,9.282 7.287,15.572 16.031,15.572 l 0,-2.301 c -7.516,0 -13.73,-5.369 -13.73,-13.271 L 2.301,0 0,0 z"
             id="path3116"
             style="fill:none;stroke:#999900;stroke-width:2;stroke-linecap:butt;stroke-linejoin:miter;stroke-miterlimit:4;stroke-opacity:1;stroke-dasharray:none" /></g><g
           transform="translate(548.7598,335.5088)"
           id="g3118"><path
             d="M 0,0 30.683,0 C 30.376,8.821 25.927,17.105 15.648,17.105 9.358,17.105 0.537,11.813 0,0 m 28.535,-18.793 c -3.528,-3.068 -7.824,-4.448 -12.12,-4.448 -11.966,0 -18.793,10.125 -18.793,22.091 0,14.497 10.816,20.557 18.026,20.557 12.197,0 17.413,-9.972 17.413,-20.557 l 0,-1.151 -33.061,0 c 0.384,-11.122 7.211,-18.639 16.415,-18.639 3.759,0 7.518,1.227 10.586,3.835 l 1.534,-1.688 z"
             id="path3120"
             style="fill:#999900;fill-opacity:1;fill-rule:nonzero;stroke:none" /></g><g
           transform="translate(548.7598,335.5088)"
           id="g3122"><path
             d="M 0,0 30.683,0 C 30.376,8.821 25.927,17.105 15.648,17.105 9.358,17.105 0.537,11.813 0,0 z m 28.535,-18.793 c -3.528,-3.068 -7.824,-4.448 -12.12,-4.448 -11.966,0 -18.793,10.125 -18.793,22.091 0,14.497 10.816,20.557 18.026,20.557 12.197,0 17.413,-9.972 17.413,-20.557 l 0,-1.151 -33.061,0 c 0.384,-11.122 7.211,-18.639 16.415,-18.639 3.759,0 7.518,1.227 10.586,3.835 l 1.534,-1.688 z"
             id="path3124"
             style="fill:none;stroke:#999900;stroke-width:2;stroke-linecap:butt;stroke-linejoin:miter;stroke-miterlimit:4;stroke-opacity:1;stroke-dasharray:none" /></g><g
           transform="translate(589.3457,326.042)"
           id="g3126"><path
             d="m 0,0 8.244,8.244 0,-6.715 17.121,0 0,13.448 3.041,0 0,-16.489 -20.162,0 0,-6.732 L 0,0 z"
             id="path3128"
             style="fill:#666633;fill-opacity:1;fill-rule:nonzero;stroke:none" /></g><g
           transform="translate(261.4297,297.3105)"
           id="g3130"><path
             d="m 0,0 0,-51.394 25.927,0 0,-2.3 -28.229,0 L -2.302,0 0,0 z"
             id="path3132"
             style="fill:#666633;fill-opacity:1;fill-rule:nonzero;stroke:none" /></g><g
           transform="translate(261.4297,297.3105)"
           id="g3134"><path
             d="m 0,0 0,-51.394 25.927,0 0,-2.3 -28.229,0 L -2.302,0 0,0 z"
             id="path3136"
             style="fill:none;stroke:#666633;stroke-width:2;stroke-linecap:butt;stroke-linejoin:miter;stroke-miterlimit:4;stroke-opacity:1;stroke-dasharray:none" /></g><g
           transform="translate(323.1768,250.9805)"
           id="g3138"><path
             d="m 0,0 0,13.347 c -3.375,4.141 -8.055,6.29 -13.424,6.29 -7.44,0 -13.961,-4.833 -13.961,-12.658 0,-7.824 6.598,-12.809 13.961,-12.809 4.986,0 10.049,1.687 13.424,5.83 m -25.62,28.841 c 3.759,3.605 8.361,5.677 14.114,5.677 5.906,0 13.807,-3.759 13.807,-15.726 l 0,-26.156 -2.301,0 0,3.988 c -3.683,-3.375 -8.592,-4.755 -13.424,-4.755 -8.591,0 -16.262,5.906 -16.262,15.11 0,9.206 7.594,14.959 16.262,14.959 5.676,0 10.202,-2.225 13.424,-5.293 l 0,2.147 c 0,10.279 -6.521,13.424 -11.506,13.424 -5.216,0 -9.281,-1.841 -12.427,-4.909 l -1.687,1.534 z"
             id="path3140"
             style="fill:#666633;fill-opacity:1;fill-rule:nonzero;stroke:none" /></g><g
           transform="translate(323.1768,250.9805)"
           id="g3142"><path
             d="m 0,0 0,13.347 c -3.375,4.141 -8.055,6.29 -13.424,6.29 -7.44,0 -13.961,-4.833 -13.961,-12.658 0,-7.824 6.598,-12.809 13.961,-12.809 4.986,0 10.049,1.687 13.424,5.83 z m -25.62,28.841 c 3.759,3.605 8.361,5.677 14.114,5.677 5.906,0 13.807,-3.759 13.807,-15.726 l 0,-26.156 -2.301,0 0,3.988 c -3.683,-3.375 -8.592,-4.755 -13.424,-4.755 -8.591,0 -16.262,5.906 -16.262,15.11 0,9.206 7.594,14.959 16.262,14.959 5.676,0 10.202,-2.225 13.424,-5.293 l 0,2.147 c 0,10.279 -6.521,13.424 -11.506,13.424 -5.216,0 -9.281,-1.841 -12.427,-4.909 l -1.687,1.534 z"
             id="path3144"
             style="fill:none;stroke:#666633;stroke-width:2;stroke-linecap:butt;stroke-linejoin:miter;stroke-miterlimit:4;stroke-opacity:1;stroke-dasharray:none" /></g><g
           transform="translate(334.6826,243.6162)"
           id="g3146"><path
             d="m 0,0 0,26.311 c 0,9.281 7.287,15.571 16.031,15.571 8.744,0 16.032,-6.29 16.032,-15.571 l 0,-26.311 -2.301,0 0,26.311 c 0,7.9 -6.213,13.269 -13.731,13.269 -7.516,0 -13.73,-5.369 -13.73,-13.269 L 2.301,0 0,0 z"
             id="path3148"
             style="fill:#666633;fill-opacity:1;fill-rule:nonzero;stroke:none" /></g><g
           transform="translate(334.6826,243.6162)"
           id="g3150"><path
             d="m 0,0 0,26.311 c 0,9.281 7.287,15.571 16.031,15.571 8.744,0 16.032,-6.29 16.032,-15.571 l 0,-26.311 -2.301,0 0,26.311 c 0,7.9 -6.213,13.269 -13.731,13.269 -7.516,0 -13.73,-5.369 -13.73,-13.269 L 2.301,0 0,0 z"
             id="path3152"
             style="fill:none;stroke:#666633;stroke-width:2;stroke-linecap:butt;stroke-linejoin:miter;stroke-miterlimit:4;stroke-opacity:1;stroke-dasharray:none" /></g><g
           transform="translate(377.4834,264.3271)"
           id="g3154"><path
             d="m 0,0 c 0,-9.358 7.9,-18.717 23.778,-18.717 1.075,0 2.302,0.077 3.529,0.154 l 0,37.126 C 26.003,18.64 24.775,18.64 23.702,18.64 7.9,18.64 0,9.357 0,0 m 27.307,-20.788 c -1.304,-0.153 -2.378,-0.23 -3.529,-0.23 -17.412,0 -26.08,10.432 -26.08,21.018 0,10.509 8.668,20.94 26.004,20.94 1.688,0 3.912,-0.077 5.906,-0.23 l 0,-46.023 c 0,-9.205 -5.983,-17.873 -15.264,-17.873 -4.372,0 -8.208,2.148 -11.353,5.216 l 1.534,1.688 c 2.838,-2.762 6.06,-4.603 9.819,-4.603 7.9,0 12.963,7.594 12.963,15.572 l 0,4.525 z"
             id="path3156"
             style="fill:#666633;fill-opacity:1;fill-rule:nonzero;stroke:none" /></g><g
           transform="translate(377.4834,264.3271)"
           id="g3158"><path
             d="m 0,0 c 0,-9.358 7.9,-18.717 23.778,-18.717 1.075,0 2.302,0.077 3.529,0.154 l 0,37.126 C 26.003,18.64 24.775,18.64 23.702,18.64 7.9,18.64 0,9.357 0,0 z m 27.307,-20.788 c -1.304,-0.153 -2.378,-0.23 -3.529,-0.23 -17.412,0 -26.08,10.432 -26.08,21.018 0,10.509 8.668,20.94 26.004,20.94 1.688,0 3.912,-0.077 5.906,-0.23 l 0,-46.023 c 0,-9.205 -5.983,-17.873 -15.264,-17.873 -4.372,0 -8.208,2.148 -11.353,5.216 l 1.534,1.688 c 2.838,-2.762 6.06,-4.603 9.819,-4.603 7.9,0 12.963,7.594 12.963,15.572 l 0,4.525 z"
             id="path3160"
             style="fill:none;stroke:#666633;stroke-width:2;stroke-linecap:butt;stroke-linejoin:miter;stroke-miterlimit:4;stroke-opacity:1;stroke-dasharray:none" /></g><g
           transform="translate(419.0566,284.7305)"
           id="g3162"><path
             d="m 0,0 0,-26.31 c 0,-7.901 6.214,-13.27 13.73,-13.27 7.518,0 13.731,5.369 13.731,13.27 l 0,26.31 2.301,0 0,-26.31 c 0,-9.282 -7.287,-15.571 -16.032,-15.571 -8.744,0 -16.031,6.289 -16.031,15.571 L -2.301,0 0,0 z"
             id="path3164"
             style="fill:#666633;fill-opacity:1;fill-rule:nonzero;stroke:none" /></g><g
           transform="translate(419.0566,284.7305)"
           id="g3166"><path
             d="m 0,0 0,-26.31 c 0,-7.901 6.214,-13.27 13.73,-13.27 7.518,0 13.731,5.369 13.731,13.27 l 0,26.31 2.301,0 0,-26.31 c 0,-9.282 -7.287,-15.571 -16.032,-15.571 -8.744,0 -16.031,6.289 -16.031,15.571 L -2.301,0 0,0 z"
             id="path3168"
             style="fill:none;stroke:#666633;stroke-width:2;stroke-linecap:butt;stroke-linejoin:miter;stroke-miterlimit:4;stroke-opacity:1;stroke-dasharray:none" /></g><g
           transform="translate(487.3242,250.9805)"
           id="g3170"><path
             d="m 0,0 0,13.347 c -3.375,4.141 -8.055,6.29 -13.424,6.29 -7.44,0 -13.961,-4.833 -13.961,-12.658 0,-7.824 6.598,-12.809 13.961,-12.809 4.986,0 10.049,1.687 13.424,5.83 m -25.62,28.841 c 3.759,3.605 8.361,5.677 14.114,5.677 5.906,0 13.807,-3.759 13.807,-15.726 l 0,-26.156 -2.301,0 0,3.988 c -3.683,-3.375 -8.592,-4.755 -13.424,-4.755 -8.591,0 -16.262,5.906 -16.262,15.11 0,9.206 7.594,14.959 16.262,14.959 5.676,0 10.202,-2.225 13.424,-5.293 l 0,2.147 c 0,10.279 -6.521,13.424 -11.506,13.424 -5.217,0 -9.281,-1.841 -12.427,-4.909 l -1.687,1.534 z"
             id="path3172"
             style="fill:#666633;fill-opacity:1;fill-rule:nonzero;stroke:none" /></g><g
           transform="translate(487.3242,250.9805)"
           id="g3174"><path
             d="m 0,0 0,13.347 c -3.375,4.141 -8.055,6.29 -13.424,6.29 -7.44,0 -13.961,-4.833 -13.961,-12.658 0,-7.824 6.598,-12.809 13.961,-12.809 4.986,0 10.049,1.687 13.424,5.83 z m -25.62,28.841 c 3.759,3.605 8.361,5.677 14.114,5.677 5.906,0 13.807,-3.759 13.807,-15.726 l 0,-26.156 -2.301,0 0,3.988 c -3.683,-3.375 -8.592,-4.755 -13.424,-4.755 -8.591,0 -16.262,5.906 -16.262,15.11 0,9.206 7.594,14.959 16.262,14.959 5.676,0 10.202,-2.225 13.424,-5.293 l 0,2.147 c 0,10.279 -6.521,13.424 -11.506,13.424 -5.217,0 -9.281,-1.841 -12.427,-4.909 l -1.687,1.534 z"
             id="path3176"
             style="fill:none;stroke:#666633;stroke-width:2;stroke-linecap:butt;stroke-linejoin:miter;stroke-miterlimit:4;stroke-opacity:1;stroke-dasharray:none" /></g><g
           transform="translate(500.3633,264.3271)"
           id="g3178"><path
             d="m 0,0 c 0,-9.358 7.9,-18.717 23.778,-18.717 1.075,0 2.302,0.077 3.529,0.154 l 0,37.126 C 26.003,18.64 24.775,18.64 23.702,18.64 7.9,18.64 0,9.357 0,0 m 27.307,-20.788 c -1.304,-0.153 -2.378,-0.23 -3.529,-0.23 -17.412,0 -26.08,10.432 -26.08,21.018 0,10.509 8.668,20.94 26.004,20.94 1.688,0 3.912,-0.077 5.906,-0.23 l 0,-46.023 c 0,-9.205 -5.983,-17.873 -15.264,-17.873 -4.372,0 -8.207,2.148 -11.353,5.216 l 1.534,1.688 c 2.838,-2.762 6.06,-4.603 9.819,-4.603 7.9,0 12.963,7.594 12.963,15.572 l 0,4.525 z"
             id="path3180"
             style="fill:#666633;fill-opacity:1;fill-rule:nonzero;stroke:none" /></g><g
           transform="translate(500.3633,264.3271)"
           id="g3182"><path
             d="m 0,0 c 0,-9.358 7.9,-18.717 23.778,-18.717 1.075,0 2.302,0.077 3.529,0.154 l 0,37.126 C 26.003,18.64 24.775,18.64 23.702,18.64 7.9,18.64 0,9.357 0,0 z m 27.307,-20.788 c -1.304,-0.153 -2.378,-0.23 -3.529,-0.23 -17.412,0 -26.08,10.432 -26.08,21.018 0,10.509 8.668,20.94 26.004,20.94 1.688,0 3.912,-0.077 5.906,-0.23 l 0,-46.023 c 0,-9.205 -5.983,-17.873 -15.264,-17.873 -4.372,0 -8.207,2.148 -11.353,5.216 l 1.534,1.688 c 2.838,-2.762 6.06,-4.603 9.819,-4.603 7.9,0 12.963,7.594 12.963,15.572 l 0,4.525 z"
             id="path3184"
             style="fill:none;stroke:#666633;stroke-width:2;stroke-linecap:butt;stroke-linejoin:miter;stroke-miterlimit:4;stroke-opacity:1;stroke-dasharray:none" /></g><g
           transform="translate(541.2461,266.0908)"
           id="g3186"><path
             d="M 0,0 30.683,0 C 30.376,8.821 25.927,17.105 15.648,17.105 9.358,17.105 0.537,11.813 0,0 m 28.535,-18.793 c -3.528,-3.068 -7.824,-4.448 -12.12,-4.448 -11.966,0 -18.793,10.125 -18.793,22.091 0,14.497 10.816,20.557 18.026,20.557 12.197,0 17.413,-9.972 17.413,-20.557 l 0,-1.151 -33.061,0 c 0.384,-11.122 7.211,-18.639 16.415,-18.639 3.759,0 7.518,1.227 10.586,3.835 l 1.534,-1.688 z"
             id="path3188"
             style="fill:#666633;fill-opacity:1;fill-rule:nonzero;stroke:none" /></g><g
           transform="translate(541.2461,266.0908)"
           id="g3190"><path
             d="M 0,0 30.683,0 C 30.376,8.821 25.927,17.105 15.648,17.105 9.358,17.105 0.537,11.813 0,0 z m 28.535,-18.793 c -3.528,-3.068 -7.824,-4.448 -12.12,-4.448 -11.966,0 -18.793,10.125 -18.793,22.091 0,14.497 10.816,20.557 18.026,20.557 12.197,0 17.413,-9.972 17.413,-20.557 l 0,-1.151 -33.061,0 c 0.384,-11.122 7.211,-18.639 16.415,-18.639 3.759,0 7.518,1.227 10.586,3.835 l 1.534,-1.688 z"
             id="path3192"
             style="fill:none;stroke:#666633;stroke-width:2;stroke-linecap:butt;stroke-linejoin:miter;stroke-miterlimit:4;stroke-opacity:1;stroke-dasharray:none" /></g><g
           transform="translate(599.9258,245.917)"
           id="g3194"><path
             d="m 0,0 c 4.986,0 9.205,3.529 9.205,8.515 0,4.986 -4.219,8.59 -9.205,8.59 l -6.443,0 c -6.213,0 -11.506,4.68 -11.506,10.893 0,6.213 5.293,10.815 11.506,10.815 l 14.881,0 0,-2.3 -14.881,0 c -4.986,0 -9.204,-3.529 -9.204,-8.515 0,-4.986 4.218,-8.591 9.204,-8.591 l 6.443,0 c 6.214,0 11.506,-4.679 11.506,-10.892 C 11.506,2.302 6.214,-2.301 0,-2.301 l -14.881,0 0,2.301 L 0,0 z"
             id="path3196"
             style="fill:#666633;fill-opacity:1;fill-rule:nonzero;stroke:none" /></g><g
           transform="translate(599.9258,245.917)"
           id="g3198"><path
             d="m 0,0 c 4.986,0 9.205,3.529 9.205,8.515 0,4.986 -4.219,8.59 -9.205,8.59 l -6.443,0 c -6.213,0 -11.506,4.68 -11.506,10.893 0,6.213 5.293,10.815 11.506,10.815 l 14.881,0 0,-2.3 -14.881,0 c -4.986,0 -9.204,-3.529 -9.204,-8.515 0,-4.986 4.218,-8.591 9.204,-8.591 l 6.443,0 c 6.214,0 11.506,-4.679 11.506,-10.892 C 11.506,2.302 6.214,-2.301 0,-2.301 l -14.881,0 0,2.301 L 0,0 z"
             id="path3200"
             style="fill:none;stroke:#666633;stroke-width:2;stroke-linecap:butt;stroke-linejoin:miter;stroke-miterlimit:4;stroke-opacity:1;stroke-dasharray:none" /></g><path
           d="m 620.022,248.219 4.603,0 0,-4.603 -4.603,0 0,4.603 z"
           id="path3202"
           style="fill:#999900;fill-opacity:1;fill-rule:nonzero;stroke:#999900;stroke-width:2;stroke-linecap:butt;stroke-linejoin:miter;stroke-miterlimit:4;stroke-opacity:1;stroke-dasharray:none" /><g
           transform="translate(637.0498,297.3105)"
           id="g3204"><path
             d="m 0,0 0,-51.394 25.927,0 0,-2.3 -28.229,0 L -2.302,0 0,0 z"
             id="path3206"
             style="fill:#666633;fill-opacity:1;fill-rule:nonzero;stroke:none" /></g><g
           transform="translate(637.0498,297.3105)"
           id="g3208"><path
             d="m 0,0 0,-51.394 25.927,0 0,-2.3 -28.229,0 L -2.302,0 0,0 z"
             id="path3210"
             style="fill:none;stroke:#666633;stroke-width:2;stroke-linecap:butt;stroke-linejoin:miter;stroke-miterlimit:4;stroke-opacity:1;stroke-dasharray:none" /></g><g
           transform="translate(698.7979,250.9805)"
           id="g3212"><path
             d="m 0,0 0,13.347 c -3.375,4.141 -8.055,6.29 -13.424,6.29 -7.44,0 -13.961,-4.833 -13.961,-12.658 0,-7.824 6.598,-12.809 13.961,-12.809 4.986,0 10.049,1.687 13.424,5.83 m -25.62,28.841 c 3.759,3.605 8.361,5.677 14.114,5.677 5.906,0 13.807,-3.759 13.807,-15.726 l 0,-26.156 -2.301,0 0,3.988 c -3.683,-3.375 -8.592,-4.755 -13.424,-4.755 -8.591,0 -16.262,5.906 -16.262,15.11 0,9.206 7.594,14.959 16.262,14.959 5.676,0 10.202,-2.225 13.424,-5.293 l 0,2.147 c 0,10.279 -6.521,13.424 -11.506,13.424 -5.216,0 -9.281,-1.841 -12.427,-4.909 l -1.687,1.534 z"
             id="path3214"
             style="fill:#666633;fill-opacity:1;fill-rule:nonzero;stroke:none" /></g><g
           transform="translate(698.7979,250.9805)"
           id="g3216"><path
             d="m 0,0 0,13.347 c -3.375,4.141 -8.055,6.29 -13.424,6.29 -7.44,0 -13.961,-4.833 -13.961,-12.658 0,-7.824 6.598,-12.809 13.961,-12.809 4.986,0 10.049,1.687 13.424,5.83 z m -25.62,28.841 c 3.759,3.605 8.361,5.677 14.114,5.677 5.906,0 13.807,-3.759 13.807,-15.726 l 0,-26.156 -2.301,0 0,3.988 c -3.683,-3.375 -8.592,-4.755 -13.424,-4.755 -8.591,0 -16.262,5.906 -16.262,15.11 0,9.206 7.594,14.959 16.262,14.959 5.676,0 10.202,-2.225 13.424,-5.293 l 0,2.147 c 0,10.279 -6.521,13.424 -11.506,13.424 -5.216,0 -9.281,-1.841 -12.427,-4.909 l -1.687,1.534 z"
             id="path3218"
             style="fill:none;stroke:#666633;stroke-width:2;stroke-linecap:butt;stroke-linejoin:miter;stroke-miterlimit:4;stroke-opacity:1;stroke-dasharray:none" /></g><g
           transform="translate(740.3711,264.3271)"
           id="g3220"><path
             d="m 0,0 c 0,9.357 -7.9,18.716 -23.778,18.716 -1.075,0 -2.302,-0.076 -3.529,-0.153 l 0,-37.126 c 1.304,-0.077 2.532,-0.077 3.605,-0.077 C -7.9,-18.64 0,-9.358 0,0 m -27.307,47.787 0,-26.924 c 1.304,0.077 2.377,0.154 3.529,0.154 17.412,0 26.08,-10.432 26.08,-21.017 0,-10.509 -8.668,-20.941 -26.004,-20.941 -1.688,0 -3.912,0.077 -5.906,0.23 l 0,68.498 2.301,0 z"
             id="path3222"
             style="fill:#666633;fill-opacity:1;fill-rule:nonzero;stroke:none" /></g><g
           transform="translate(740.3711,264.3271)"
           id="g3224"><path
             d="m 0,0 c 0,9.357 -7.9,18.716 -23.778,18.716 -1.075,0 -2.302,-0.076 -3.529,-0.153 l 0,-37.126 c 1.304,-0.077 2.532,-0.077 3.605,-0.077 C -7.9,-18.64 0,-9.358 0,0 z m -27.307,47.787 0,-26.924 c 1.304,0.077 2.377,0.154 3.529,0.154 17.412,0 26.08,-10.432 26.08,-21.017 0,-10.509 -8.668,-20.941 -26.004,-20.941 -1.688,0 -3.912,0.077 -5.906,0.23 l 0,68.498 2.301,0 z"
             id="path3226"
             style="fill:none;stroke:#666633;stroke-width:2;stroke-linecap:butt;stroke-linejoin:miter;stroke-miterlimit:4;stroke-opacity:1;stroke-dasharray:none" /></g></g></g></g></svg>