<?xml version="1.0" encoding="UTF-8" standalone="no"?>
<!-- Generator: flash2svg, http://dissentgraphics.com/tools/flash2svg -->

<svg
   xmlns:dc="http://purl.org/dc/elements/1.1/"
   xmlns:cc="http://creativecommons.org/ns#"
   xmlns:rdf="http://www.w3.org/1999/02/22-rdf-syntax-ns#"
   xmlns:svg="http://www.w3.org/2000/svg"
   xmlns="http://www.w3.org/2000/svg"
   xmlns:sodipodi="http://sodipodi.sourceforge.net/DTD/sodipodi-0.dtd"
   xmlns:inkscape="http://www.inkscape.org/namespaces/inkscape"
   id="SimpleLogo"
   image-rendering="optimizeSpeed"
   version="1.1"
   x="0px"
   y="0px"
   width="191.2"
   height="121.24944"
   viewBox="0 0 191.2 121.24944"
   enable-background="new 0 0 1000 400"
   inkscape:version="0.48.2 r9819"
   sodipodi:docname="simple-logo2.svg">
  <metadata
     id="metadata3542">
    <rdf:RDF>
      <cc:Work
         rdf:about="">
        <dc:format>image/svg+xml</dc:format>
        <dc:type
           rdf:resource="http://purl.org/dc/dcmitype/StillImage" />
        <dc:title></dc:title>
      </cc:Work>
    </rdf:RDF>
  </metadata>
  <sodipodi:namedview
     pagecolor="#ffffff"
     bordercolor="#666666"
     borderopacity="1"
     objecttolerance="10"
     gridtolerance="10"
     guidetolerance="10"
     inkscape:pageopacity="0"
     inkscape:pageshadow="2"
     inkscape:window-width="1251"
     inkscape:window-height="1014"
     id="namedview3540"
     showgrid="false"
     inkscape:zoom="5.8577406"
     inkscape:cx="95.6"
     inkscape:cy="60.624719"
     inkscape:window-x="0"
     inkscape:window-y="0"
     inkscape:window-maximized="0"
     inkscape:current-layer="SimpleLogo"
     fit-margin-top="0"
     fit-margin-left="0"
     fit-margin-right="0"
     fit-margin-bottom="0" />
  <defs
     transform="matrix(1 0 0 1 0 0) "
     id="defs3527" />
  <g
     id="Layer.__201"
     transform="translate(-8.1,-29.150562)">
    <g
       id="shape">
      <path
         id="path"
         d="m 199.3,150.4 0,-35 -190.95,0 0,35 190.95,0 z"
         inkscape:connector-curvature="0"
         style="fill:#0029d0;fill-opacity:1" />
    </g>
    <g
       id="drawingObject">
      <path
         id="path1"
         d="m 192.25,48.1 0.15,0 -0.55,11.5 0,46.4 6.15,0 0,-67.2 -7,0 -23,50.55 -2.55,6.75 -0.25,0 -1.25,-3.5 -24.2,-53.8 -7.4,0 0,67.2 6.1,0 -0.3,-58 0.15,0 2.15,6.65 23.45,51.35 2.7,0 23.45,-51.7 2.2,-6.2 z M 43.4,46.75 l 0,-6.9 c -3.55,-1.45 -8,-2.2 -13.25,-2.2 -3,0 -5.8,0.4 -8.45,1.25 -2.65,0.8 -5,1.95 -6.95,3.5 -1.95,1.5 -3.55,3.35 -4.7,5.5 -1.15,2.15 -1.7,4.55 -1.7,7.3 0,2.15 0.3,4.05 0.9,5.75 0.6,1.7 1.55,3.3 2.9,4.75 1.25,1.45 2.95,2.85 5,4.25 l 14.1,8.3 c 1.9,1.15 3.5,2.25 4.75,3.4 1.25,1.15 2.15,2.4 2.75,3.75 0.6,1.35 0.9,2.9 0.9,4.65 0,3.7 -1.25,6.55 -3.8,8.5 -2.55,1.95 -6.35,2.95 -11.45,2.95 l -4.1,-0.35 -4.3,-1 -4.15,-1.7 -3.75,-2.3 0,7.3 3.3,1.5 4.3,1.2 8.25,1 c 3.25,0 6.2,-0.4 8.95,-1.15 2.7,-0.75 5.05,-1.85 7,-3.35 2,-1.45 3.55,-3.3 4.6,-5.5 1.1,-2.25 1.65,-4.85 1.65,-7.8 0,-2.15 -0.35,-4.05 -1,-5.75 -0.7,-1.75 -1.75,-3.4 -3.1,-4.95 -1.45,-1.55 -3.2,-3 -5.25,-4.45 L 22.65,66 c -1.9,-1.1 -3.4,-2.2 -4.5,-3.35 -1.15,-1.15 -2,-2.3 -2.5,-3.55 -0.55,-1.3 -0.8,-2.8 -0.8,-4.55 0,-1.85 0.4,-3.5 1.15,-4.85 0.75,-1.4 1.8,-2.55 3.15,-3.5 1.35,-0.95 2.9,-1.65 4.65,-2.1 1.75,-0.5 3.6,-0.75 5.6,-0.75 5.35,0 10.05,1.15 14,3.4 z"
         inkscape:connector-curvature="0"
         style="fill:#000066;fill-opacity:1" />
    </g>
    <g
       id="drawingObject1">
      <path
         id="path4"
         d="m 195.7,132.3 c -0.15,-0.7 -0.35,-1.3 -0.65,-1.85 -0.3,-0.55 -0.7,-0.95 -1.15,-1.25 -0.5,-0.3 -1.1,-0.45 -1.8,-0.45 -0.65,0 -1.2,0.15 -1.75,0.5 -0.5,0.3 -0.95,0.75 -1.3,1.3 -0.35,0.55 -0.65,1.25 -0.85,2 -0.15,0.8 -0.25,1.65 -0.25,2.55 0,1 0.1,1.9 0.25,2.65 0.2,0.75 0.5,1.45 0.85,2 0.75,1.15 1.75,1.7 3.1,1.7 0.85,0 1.6,-0.25 2.15,-0.75 0.55,-0.5 1,-1.1 1.3,-1.8 l -1.2,-0.7 c -0.2,0.5 -0.5,0.9 -0.85,1.25 -0.35,0.35 -0.8,0.55 -1.4,0.55 -0.45,0 -0.8,-0.1 -1.15,-0.35 -0.35,-0.25 -0.6,-0.55 -0.8,-0.95 -0.25,-0.45 -0.4,-0.9 -0.5,-1.45 -0.15,-0.55 -0.2,-1.15 -0.2,-1.8 l 6.4,0 0,-0.9 c 0,-0.8 -0.05,-1.55 -0.2,-2.25 z m -1.5,0.2 q 0.15,0.7 0.15,1.6 l -4.8,0 0.1,-1.2 c 0.1,-0.45 0.25,-0.9 0.45,-1.3 0.2,-0.45 0.45,-0.8 0.8,-1.05 0.3,-0.25 0.7,-0.4 1.15,-0.4 0.75,0 1.35,0.35 1.75,1.05 0.15,0.35 0.3,0.8 0.4,1.3 z m -15.25,-3.35 -1.55,0 0.05,0.55 0.05,11.35 1.6,0 0,-6.85 c 0,-0.55 0.05,-1.05 0.15,-1.55 0.15,-0.45 0.3,-0.9 0.5,-1.3 0.25,-0.35 0.5,-0.65 0.8,-0.85 0.3,-0.25 0.65,-0.35 1.05,-0.35 0.4,0 0.75,0.1 1,0.3 0.25,0.2 0.4,0.45 0.55,0.75 0.15,0.35 0.25,0.7 0.3,1.05 l 0.05,8.8 1.6,0 0,-7.7 -0.15,-1.65 c -0.05,-0.55 -0.2,-1 -0.4,-1.45 -0.2,-0.45 -0.5,-0.8 -0.9,-1.1 -0.4,-0.25 -0.9,-0.4 -1.55,-0.4 -0.75,0 -1.4,0.25 -1.9,0.75 -0.55,0.5 -0.9,1.15 -1.1,2 l -0.05,0 -0.1,-2.35 z m -5,-3.65 c 0,-0.35 -0.1,-0.6 -0.3,-0.8 -0.2,-0.25 -0.45,-0.35 -0.75,-0.35 -0.3,0 -0.55,0.1 -0.75,0.35 -0.2,0.2 -0.3,0.45 -0.3,0.8 0,0.35 0.1,0.6 0.3,0.85 0.2,0.2 0.45,0.3 0.75,0.3 0.25,0 0.5,-0.1 0.75,-0.3 0.2,-0.25 0.3,-0.5 0.3,-0.85 z m -0.25,15.55 0,-11.9 -1.6,0 0,11.9 1.6,0 z m -8.2,-12.3 c -0.35,0 -0.7,0.05 -1.05,0.2 -0.3,0.15 -0.6,0.3 -0.85,0.55 -0.5,0.5 -0.85,1.15 -1.05,1.9 l -0.05,0 0,-8.5 -1.6,0 0,18.15 1.6,0 0,-6.85 c 0,-0.55 0.05,-1.05 0.15,-1.55 0.15,-0.45 0.3,-0.9 0.55,-1.3 0.2,-0.35 0.45,-0.65 0.8,-0.85 0.3,-0.25 0.65,-0.35 1.05,-0.35 0.4,0 0.7,0.1 0.95,0.3 0.25,0.2 0.45,0.45 0.6,0.75 0.1,0.35 0.2,0.7 0.25,1.05 l 0.05,8.8 1.6,0 -0.1,-9.35 c -0.1,-0.55 -0.25,-1 -0.45,-1.45 -0.2,-0.45 -0.5,-0.8 -0.9,-1.1 -0.35,-0.25 -0.9,-0.4 -1.55,-0.4 z m -7.7,0.35 c -0.45,-0.25 -0.95,-0.35 -1.55,-0.35 -0.65,0 -1.25,0.15 -1.75,0.45 -0.55,0.3 -0.95,0.75 -1.3,1.3 -0.35,0.55 -0.65,1.25 -0.8,2 -0.15,0.8 -0.25,1.65 -0.25,2.6 0,0.95 0.1,1.8 0.25,2.6 0.15,0.75 0.4,1.4 0.75,1.95 0.35,0.55 0.8,1 1.3,1.3 0.5,0.35 1.1,0.5 1.8,0.5 1.1,0 2,-0.4 2.65,-1.25 l -0.75,-1.2 c -0.2,0.3 -0.45,0.55 -0.75,0.7 -0.3,0.15 -0.65,0.25 -1.05,0.25 -0.45,0 -0.8,-0.1 -1.15,-0.35 -0.35,-0.25 -0.6,-0.6 -0.8,-1 -0.25,-0.45 -0.4,-0.95 -0.5,-1.55 -0.1,-0.6 -0.15,-1.25 -0.15,-1.95 0,-0.75 0.05,-1.4 0.15,-2 0.1,-0.6 0.25,-1.1 0.5,-1.55 0.2,-0.45 0.45,-0.75 0.75,-1 0.35,-0.25 0.7,-0.4 1.15,-0.4 0.35,0 0.7,0.1 1,0.25 0.25,0.15 0.5,0.4 0.7,0.65 l 0.85,-1.15 c -0.25,-0.3 -0.6,-0.55 -1.05,-0.8 z m -11.85,-0.35 c -0.6,0 -1.2,0.15 -1.8,0.45 -0.6,0.25 -1.1,0.65 -1.45,1.2 l 0.85,1 c 0.25,-0.35 0.6,-0.65 1,-0.9 0.35,-0.25 0.8,-0.35 1.25,-0.35 0.65,0 1.15,0.25 1.55,0.7 0.35,0.45 0.55,1.25 0.55,2.3 l 0,0.6 -0.9,0 c -0.5,0 -1.05,0.05 -1.6,0.15 -0.55,0.1 -1.05,0.3 -1.5,0.6 -0.45,0.35 -0.85,0.75 -1.15,1.25 -0.3,0.55 -0.45,1.25 -0.45,2.1 0,0.65 0.1,1.15 0.25,1.6 0.15,0.45 0.4,0.8 0.65,1.1 0.3,0.3 0.6,0.5 0.95,0.6 0.35,0.15 0.65,0.2 1,0.2 1.5,0 2.45,-0.85 2.85,-2.55 l 0.05,0 0.1,2.25 1.35,0 -0.1,-1.2 0,-6.3 c 0,-1.55 -0.25,-2.75 -0.8,-3.55 -0.55,-0.85 -1.4,-1.25 -2.65,-1.25 z m -0.1,6.35 2.1,-0.1 -0.1,2.25 c -0.1,0.5 -0.25,0.95 -0.4,1.35 -0.2,0.45 -0.45,0.8 -0.75,1.05 -0.35,0.25 -0.7,0.4 -1.15,0.4 -0.45,0 -0.85,-0.2 -1.2,-0.55 -0.15,-0.15 -0.3,-0.4 -0.4,-0.7 -0.1,-0.3 -0.15,-0.65 -0.15,-1.1 0,-0.55 0.1,-1 0.3,-1.35 0.15,-0.35 0.4,-0.65 0.7,-0.85 0.3,-0.2 0.65,-0.35 1.05,-0.4 z m -6.5,-11.05 -2.6,0 -4,14.35 -0.1,0 -4.05,-14.35 -2.5,0 0,17 1.6,0 0,-14.75 0.05,0 4.15,14.75 1.55,0 4.15,-14.75 0.1,0 0,14.75 1.65,0 0,-17 z m -19.25,5.1 -1.5,0 0,1.3 1.55,0 0,7.75 c 0,0.45 0.05,0.9 0.1,1.3 0.1,0.35 0.25,0.7 0.4,1 0.35,0.55 0.95,0.85 1.8,0.85 l 0.75,-0.1 0.65,-0.2 -0.05,-1.3 -0.4,0.15 -0.45,0.05 c -0.45,0 -0.75,-0.15 -0.95,-0.45 -0.2,-0.35 -0.3,-0.85 -0.3,-1.6 l 0,-7.45 2.1,0 0,-1.3 -2.1,0 0,-3.3 -1.6,0 0,3.3 z m -3.2,-0.05 c -0.45,-0.25 -0.95,-0.35 -1.55,-0.35 -0.65,0 -1.25,0.15 -1.75,0.45 -0.55,0.3 -0.95,0.75 -1.3,1.3 -0.35,0.55 -0.65,1.25 -0.8,2 -0.15,0.8 -0.25,1.65 -0.25,2.6 0,0.95 0.1,1.8 0.25,2.6 0.15,0.75 0.4,1.4 0.75,1.95 0.35,0.55 0.8,1 1.3,1.3 0.5,0.35 1.1,0.5 1.8,0.5 1.1,0 2,-0.4 2.65,-1.25 l -0.75,-1.2 c -0.2,0.3 -0.45,0.55 -0.75,0.7 -0.3,0.15 -0.65,0.25 -1.05,0.25 -0.45,0 -0.8,-0.1 -1.15,-0.35 -0.35,-0.25 -0.6,-0.6 -0.8,-1 -0.25,-0.45 -0.4,-0.95 -0.5,-1.55 -0.1,-0.6 -0.15,-1.25 -0.15,-1.95 0,-0.75 0.05,-1.4 0.15,-2 0.1,-0.6 0.25,-1.1 0.5,-1.55 0.2,-0.45 0.45,-0.75 0.75,-1 0.35,-0.25 0.7,-0.4 1.15,-0.4 0.35,0 0.7,0.1 1,0.25 0.25,0.15 0.5,0.4 0.7,0.65 l 0.85,-1.15 c -0.25,-0.3 -0.6,-0.55 -1.05,-0.8 z m -11.65,-0.35 c -0.65,0 -1.2,0.15 -1.75,0.5 -0.5,0.3 -0.95,0.75 -1.3,1.3 -0.35,0.55 -0.65,1.25 -0.85,2 -0.15,0.8 -0.25,1.65 -0.25,2.55 0,1 0.1,1.9 0.25,2.65 0.2,0.75 0.5,1.45 0.85,2 0.75,1.15 1.75,1.7 3.1,1.7 0.85,0 1.6,-0.25 2.15,-0.75 0.55,-0.5 1,-1.1 1.3,-1.8 l -1.2,-0.7 c -0.2,0.5 -0.5,0.9 -0.85,1.25 -0.35,0.35 -0.8,0.55 -1.4,0.55 -0.45,0 -0.8,-0.1 -1.15,-0.35 -0.35,-0.25 -0.6,-0.55 -0.8,-0.95 -0.25,-0.45 -0.4,-0.9 -0.5,-1.45 -0.15,-0.55 -0.2,-1.15 -0.2,-1.8 l 6.4,0 0,-0.9 c 0,-0.8 -0.05,-1.55 -0.2,-2.25 -0.15,-0.7 -0.35,-1.3 -0.65,-1.85 -0.3,-0.55 -0.7,-0.95 -1.15,-1.25 -0.5,-0.3 -1.1,-0.45 -1.8,-0.45 z m 2.25,5.35 -4.8,0 0.1,-1.2 c 0.1,-0.45 0.25,-0.9 0.45,-1.3 0.2,-0.45 0.45,-0.8 0.8,-1.05 0.3,-0.25 0.7,-0.4 1.15,-0.4 0.75,0 1.35,0.35 1.75,1.05 0.15,0.35 0.3,0.8 0.4,1.3 0.1,0.45 0.15,1 0.15,1.6 z m -9.45,-9.4 c -0.2,-0.25 -0.45,-0.35 -0.75,-0.35 -0.25,0 -0.5,0.1 -0.7,0.35 -0.2,0.2 -0.3,0.45 -0.3,0.8 0,0.35 0.1,0.6 0.3,0.85 0.2,0.2 0.45,0.3 0.7,0.3 0.3,0 0.55,-0.1 0.75,-0.3 0.2,-0.25 0.3,-0.5 0.3,-0.85 0,-0.35 -0.1,-0.6 -0.3,-0.8 z m 0.1,4.45 -1.6,0 -0.05,14.6 c -0.05,0.3 -0.1,0.6 -0.25,0.85 -0.15,0.25 -0.3,0.4 -0.5,0.55 -0.2,0.15 -0.45,0.2 -0.75,0.2 l -0.7,-0.1 -0.15,1.4 0.95,0.15 c 0.55,0 1,-0.1 1.4,-0.25 0.4,-0.2 0.7,-0.45 0.95,-0.8 0.25,-0.35 0.4,-0.8 0.5,-1.3 0.15,-0.45 0.2,-1 0.2,-1.6 l 0,-13.7 z m -4.85,3.35 c -0.15,-0.75 -0.4,-1.4 -0.7,-1.95 -0.35,-0.55 -0.75,-1 -1.2,-1.3 -0.45,-0.35 -1,-0.5 -1.6,-0.5 -0.35,0 -0.7,0.05 -1,0.2 -0.3,0.1 -0.55,0.25 -0.8,0.5 -0.5,0.45 -0.85,1 -1.05,1.75 l 0,-8.3 -1.6,0 0,18.15 1.55,0 0,-2.15 0.05,0 c 0.15,0.75 0.5,1.35 0.95,1.8 0.2,0.25 0.45,0.45 0.8,0.55 0.3,0.15 0.65,0.2 1.1,0.2 0.6,0 1.15,-0.15 1.6,-0.5 0.45,-0.3 0.85,-0.75 1.15,-1.35 0.35,-0.55 0.6,-1.25 0.75,-2 0.15,-0.75 0.25,-1.6 0.25,-2.55 0,-0.95 -0.1,-1.8 -0.25,-2.55 z m -1.35,2.6 c 0,0.7 -0.05,1.35 -0.15,1.95 -0.1,0.6 -0.25,1.1 -0.45,1.55 -0.25,0.45 -0.5,0.8 -0.8,1.05 -0.35,0.25 -0.7,0.4 -1.1,0.4 -0.45,0 -0.8,-0.15 -1.15,-0.4 -0.3,-0.25 -0.55,-0.6 -0.8,-1.05 -0.2,-0.45 -0.35,-0.95 -0.45,-1.55 -0.1,-0.6 -0.15,-1.25 -0.15,-1.95 0,-0.7 0.05,-1.35 0.15,-1.95 0.1,-0.6 0.25,-1.15 0.45,-1.6 0.25,-0.45 0.5,-0.8 0.85,-1.05 0.3,-0.25 0.65,-0.35 1.1,-0.35 0.4,0 0.75,0.1 1.1,0.35 0.3,0.25 0.55,0.6 0.8,1.05 0.2,0.45 0.35,1 0.45,1.6 0.1,0.6 0.15,1.25 0.15,1.95 z m -19.45,-9 c -0.5,0.75 -0.85,1.7 -1.1,2.8 -0.25,1.55 -0.4,2.75 -0.4,3.65 0,1.3 0.15,2.5 0.4,3.6 0.25,1.1 0.65,2.05 1.1,2.85 0.5,0.75 1.1,1.35 1.8,1.8 0.7,0.45 1.5,0.65 2.35,0.65 0.9,0 1.7,-0.2 2.35,-0.65 0.35,-0.2 0.7,-0.45 0.95,-0.75 0.3,-0.35 0.55,-0.7 0.8,-1.05 0.5,-0.8 0.85,-1.75 1.1,-2.85 0.2,-0.75 0.35,-1.95 0.4,-3.6 0,-0.9 -0.15,-2.1 -0.4,-3.65 -0.25,-1.1 -0.6,-2.05 -1.1,-2.8 l -0.8,-1 c -0.25,-0.35 -0.6,-0.6 -0.95,-0.8 -0.65,-0.45 -1.45,-0.65 -2.35,-0.65 -0.9,0 -1.7,0.2 -2.4,0.65 -0.7,0.45 -1.3,1.05 -1.75,1.8 z m 2.45,-0.35 c 0.5,-0.35 1.05,-0.55 1.7,-0.55 0.65,0 1.2,0.2 1.65,0.55 0.5,0.4 0.9,0.95 1.25,1.6 0.3,0.65 0.55,1.4 0.7,2.3 0.15,0.9 0.25,1.85 0.25,2.9 0,1 -0.1,1.95 -0.25,2.85 -0.15,0.9 -0.4,1.7 -0.7,2.35 -0.35,0.65 -0.75,1.2 -1.2,1.6 -0.45,0.4 -1.05,0.6 -1.7,0.6 -0.65,0 -1.2,-0.2 -1.7,-0.6 -0.5,-0.4 -0.9,-0.95 -1.2,-1.6 -0.35,-0.65 -0.6,-1.45 -0.75,-2.35 -0.15,-0.9 -0.2,-1.85 -0.2,-2.85 0,-1.05 0.05,-2 0.2,-2.9 0.15,-0.9 0.4,-1.65 0.75,-2.3 0.3,-0.65 0.7,-1.2 1.2,-1.6 z m -10,3 c -0.65,0 -1.2,0.15 -1.75,0.5 -0.5,0.3 -0.95,0.75 -1.3,1.3 -0.35,0.55 -0.65,1.25 -0.85,2 -0.15,0.8 -0.25,1.65 -0.25,2.55 0,1 0.1,1.9 0.25,2.65 0.2,0.75 0.5,1.45 0.85,2 0.75,1.15 1.75,1.7 3.1,1.7 0.85,0 1.6,-0.25 2.15,-0.75 0.55,-0.5 1,-1.1 1.3,-1.8 l -1.2,-0.7 c -0.2,0.5 -0.5,0.9 -0.85,1.25 -0.35,0.35 -0.8,0.55 -1.4,0.55 -0.45,0 -0.8,-0.1 -1.15,-0.35 -0.35,-0.25 -0.6,-0.55 -0.8,-0.95 -0.25,-0.45 -0.4,-0.9 -0.5,-1.45 -0.15,-0.55 -0.2,-1.15 -0.2,-1.8 l 6.4,0 0,-0.9 c 0,-0.8 -0.05,-1.55 -0.2,-2.25 -0.15,-0.7 -0.35,-1.3 -0.65,-1.85 -0.3,-0.55 -0.7,-0.95 -1.15,-1.25 -0.5,-0.3 -1.1,-0.45 -1.8,-0.45 z m 2.25,5.35 -4.8,0 0.1,-1.2 c 0.1,-0.45 0.25,-0.9 0.45,-1.3 0.2,-0.45 0.45,-0.8 0.8,-1.05 0.3,-0.25 0.7,-0.4 1.15,-0.4 0.75,0 1.35,0.35 1.75,1.05 0.15,0.35 0.3,0.8 0.4,1.3 0.1,0.45 0.15,1 0.15,1.6 z m -9.35,-11.2 -1.6,0 0,18.15 1.6,0 0,-18.15 z M 53,132.55 c -0.15,-0.75 -0.4,-1.45 -0.75,-2 -0.3,-0.55 -0.7,-1 -1.15,-1.3 -0.5,-0.35 -1.05,-0.5 -1.6,-0.5 -0.45,0 -0.8,0.05 -1.1,0.2 -0.35,0.1 -0.6,0.25 -0.8,0.5 -0.45,0.5 -0.8,1.1 -0.95,1.85 l -0.05,0 0,-2.15 -1.55,0 0,17.65 1.6,0 0,-7.8 c 0.2,0.75 0.55,1.3 1.05,1.75 0.25,0.25 0.5,0.4 0.8,0.5 0.3,0.15 0.65,0.2 1,0.2 0.6,0 1.15,-0.15 1.6,-0.5 0.45,-0.3 0.85,-0.75 1.2,-1.3 0.3,-0.55 0.55,-1.25 0.7,-2 0.15,-0.75 0.25,-1.6 0.25,-2.55 0,-0.9 -0.1,-1.75 -0.25,-2.55 z m -1.5,0.6 c 0.1,0.6 0.15,1.25 0.15,1.9 0,0.75 -0.05,1.4 -0.15,2 -0.1,0.6 -0.25,1.1 -0.45,1.55 -0.25,0.45 -0.5,0.8 -0.8,1.05 -0.35,0.25 -0.7,0.4 -1.1,0.4 -0.45,0 -0.8,-0.15 -1.1,-0.4 -0.35,-0.25 -0.6,-0.6 -0.85,-1.05 -0.2,-0.45 -0.35,-0.95 -0.45,-1.55 -0.1,-0.6 -0.15,-1.25 -0.15,-2 0,-0.65 0.05,-1.3 0.15,-1.9 0.1,-0.6 0.25,-1.15 0.45,-1.6 0.25,-0.45 0.5,-0.8 0.8,-1.05 0.35,-0.25 0.7,-0.35 1.15,-0.35 0.4,0 0.75,0.1 1.1,0.35 0.3,0.25 0.55,0.6 0.8,1.05 0.2,0.45 0.35,1 0.45,1.6 z m -11.5,-4 c -0.4,-0.25 -0.9,-0.4 -1.5,-0.4 -0.45,0 -0.85,0.1 -1.2,0.25 -0.35,0.15 -0.65,0.35 -0.9,0.6 -0.25,0.25 -0.5,0.55 -0.65,0.9 l -0.4,1 -0.05,0 -0.3,-1.05 c -0.1,-0.35 -0.25,-0.6 -0.5,-0.85 -0.2,-0.25 -0.45,-0.45 -0.75,-0.6 -0.35,-0.15 -0.7,-0.25 -1.15,-0.25 -0.8,0 -1.45,0.25 -1.95,0.75 -0.5,0.5 -0.85,1.15 -1,2 l -0.05,0 -0.1,-2.35 -1.55,0 0.05,0.55 0.05,11.35 1.6,0 0,-6.85 c 0,-0.55 0.05,-1.05 0.15,-1.55 0.1,-0.45 0.25,-0.9 0.5,-1.3 0.2,-0.35 0.45,-0.65 0.75,-0.85 0.3,-0.25 0.65,-0.35 1.05,-0.35 0.4,0 0.7,0.1 0.95,0.3 0.25,0.2 0.45,0.45 0.55,0.75 0.15,0.3 0.2,0.65 0.25,1.05 l 0.1,1.1 0,7.7 1.55,0 0,-6.85 c 0,-0.55 0.05,-1.05 0.15,-1.55 0.15,-0.45 0.3,-0.9 0.5,-1.3 0.2,-0.35 0.45,-0.65 0.8,-0.85 0.3,-0.25 0.65,-0.35 1.05,-0.35 0.4,0 0.75,0.1 1,0.3 0.25,0.2 0.4,0.45 0.55,0.75 0.15,0.35 0.2,0.7 0.25,1.05 l 0.05,8.8 1.6,0 0,-7.7 -0.15,-1.65 c -0.05,-0.55 -0.2,-1 -0.4,-1.45 -0.25,-0.45 -0.55,-0.8 -0.9,-1.1 z M 24.5,125.5 c 0,-0.35 -0.1,-0.6 -0.3,-0.8 -0.2,-0.25 -0.45,-0.35 -0.75,-0.35 -0.3,0 -0.55,0.1 -0.75,0.35 -0.2,0.2 -0.3,0.45 -0.3,0.8 0,0.35 0.1,0.6 0.3,0.85 0.2,0.2 0.45,0.3 0.75,0.3 0.25,0 0.5,-0.1 0.75,-0.3 0.2,-0.25 0.3,-0.5 0.3,-0.85 z m -0.25,3.65 -1.6,0 0,11.9 1.6,0 0,-11.9 z m -12.15,-2.9 c -0.25,0.6 -0.4,1.3 -0.4,2.1 0,0.65 0.1,1.25 0.3,1.75 0.2,0.5 0.45,0.95 0.75,1.3 0.35,0.35 0.7,0.7 1.1,1 l 2.4,1.35 c 0.35,0.25 0.7,0.5 0.95,0.75 0.25,0.3 0.5,0.65 0.65,1 0.15,0.35 0.25,0.8 0.25,1.25 0,0.55 -0.05,1 -0.2,1.35 -0.15,0.4 -0.35,0.75 -0.6,1 -0.55,0.55 -1.2,0.85 -1.95,0.85 -0.55,0 -1.15,-0.15 -1.7,-0.45 -0.55,-0.3 -1,-0.7 -1.35,-1.25 l -1.05,1.2 c 0.45,0.6 1,1.1 1.75,1.45 0.75,0.35 1.55,0.55 2.4,0.55 0.6,0 1.15,-0.1 1.65,-0.3 0.55,-0.25 1,-0.55 1.4,-0.95 0.4,-0.4 0.7,-0.9 0.95,-1.5 0.2,-0.55 0.3,-1.25 0.3,-2 0,-0.7 -0.1,-1.3 -0.3,-1.8 -0.2,-0.5 -0.5,-0.95 -0.85,-1.35 -0.35,-0.35 -0.75,-0.7 -1.2,-1 L 15,131.2 c -0.3,-0.2 -0.6,-0.45 -0.85,-0.7 -0.25,-0.25 -0.45,-0.6 -0.6,-0.95 -0.15,-0.35 -0.2,-0.75 -0.2,-1.25 0,-0.55 0.1,-1 0.25,-1.4 0.15,-0.4 0.35,-0.75 0.6,-1 0.25,-0.25 0.55,-0.45 0.9,-0.55 0.35,-0.15 0.65,-0.2 1,-0.2 0.5,0 0.95,0.1 1.4,0.3 0.45,0.2 0.8,0.55 1.15,1 l 1,-1.15 c -0.4,-0.55 -0.9,-1 -1.55,-1.25 -0.6,-0.25 -1.3,-0.4 -2.05,-0.4 -0.55,0 -1.1,0.1 -1.6,0.3 -0.55,0.15 -1,0.45 -1.4,0.85 -0.4,0.4 -0.7,0.9 -0.95,1.45 z"
         inkscape:connector-curvature="0"
         style="fill:#ffffff;fill-opacity:1" />
    </g>
    <g
       id="Ballon_1"
       overflow="visible"
       style="overflow:visible">
      <g
         id="Layer.__203">
        <g
           id="shape71">
          <path
             id="path69"
             d="m 122.005,74.914 q 1.998,-3.097 3.006,-6.858 c 0.015,-0.056 0.015,-0.056 0.03,-0.112 1.979,-7.643 0.324,-15.058 -5.078,-22.335 -5.465,-7.295 -13.077,-12.219 -22.757,-14.813 -9.679,-2.593 -18.734,-2.134 -27.05,1.467 -8,3.446 -13.129,8.743 -15.323,15.908 -0.124,0.207 -0.185,0.432 -0.26,0.712 -0.015,0.056 -0.045,0.168 -0.075,0.28 -0.285,1.066 -0.507,2.148 -0.604,3.024 l -0.155,1.22 0.032,0.009 c -1.133,9.613 1.303,21.805 7.406,36.722 2.626,6.354 5.433,12.034 8.404,17.097 2.806,4.658 4.776,7.049 5.753,7.251 1.04,0.219 3.765,-0.975 8.222,-3.507 4.867,-2.782 9.836,-6.199 14.891,-10.193 11.056,-8.698 18.922,-17.288 23.551,-25.844"
             inkscape:connector-curvature="0"
             style="fill:#0033cc;fill-opacity:1" />
        </g>
      </g>
    </g>
  </g>
</svg>
