<?xml version="1.0" encoding="UTF-8" standalone="no"?>
<!DOCTYPE svg PUBLIC "-//W3C//DTD SVG 1.1//EN" "http://www.w3.org/Graphics/SVG/1.1/DTD/svg11.dtd">
<svg width="296px" height="80px" version="1.1" xmlns="http://www.w3.org/2000/svg" xmlns:xlink="http://www.w3.org/1999/xlink" xml:space="preserve" xmlns:serif="http://www.serif.com/" style="fill-rule:evenodd;clip-rule:evenodd;stroke-linejoin:round;stroke-miterlimit:1.41421;">
    <g>
        <path d="M58.596,47.96L58.596,52.788L73.654,52.788L73.654,47.96L71.504,50.374L68.49,50.374L66.124,47.96L63.76,50.374L60.748,50.374L58.596,47.96ZM48.594,13.502L48.594,18.33L63.654,18.33L63.654,13.502L61.504,15.916L58.49,15.916L56.124,13.502L53.76,15.916L50.746,15.916L48.594,13.502ZM68.598,13.502L68.598,18.33L83.656,18.33L83.656,13.502L81.504,15.916L78.492,15.916L76.126,13.502L73.76,15.916L70.748,15.916L68.598,13.502ZM66.124,22.216C63.716,22.218 62.612,23.978 60.202,23.978C57.794,23.978 56.688,22.164 54.28,22.216C52.034,22.266 51.042,23.94 48.796,23.978C46.574,24.014 44.96,22.356 43.31,22.438L43.31,37.624C43.394,40.802 45.802,45.368 48.786,45.368C51.03,45.332 52.034,43.668 54.28,43.618C56.688,43.57 57.794,45.378 60.202,45.378C62.612,45.378 63.716,43.618 66.124,43.618C68.534,43.618 69.64,45.378 72.05,45.378C74.458,45.378 75.562,43.57 77.972,43.618C80.216,43.668 81.206,45.332 83.454,45.368C86.436,45.368 88.856,40.802 88.94,37.624L88.94,22.438C87.29,22.356 85.676,24.014 83.456,23.978C81.21,23.94 80.216,22.266 77.972,22.216C75.562,22.164 74.458,23.978 72.05,23.978C69.64,23.978 68.534,22.218 66.124,22.216M66.118,61.348C65.148,61.348 41.492,50.896 41.492,37.622L41.492,8.672L90.756,8.672L90.756,37.622C90.756,50.896 67.084,61.348 66.118,61.348M62.6,38.952L61.57,37.132L62.6,35.308L60.538,35.308L59.506,33.486L58.474,35.308L56.412,35.308L57.444,37.132L56.412,38.952L58.474,38.952L59.506,40.776L60.538,38.952L62.6,38.952ZM75.84,32.3L74.808,30.478L75.84,28.656L73.776,28.656L72.746,26.832L71.714,28.656L69.652,28.656L70.682,30.478L69.652,32.3L71.714,32.3L72.746,34.122L73.776,32.3L75.84,32.3ZM66.366,32.3L65.336,30.478L66.366,28.656L64.304,28.656L63.272,26.832L62.24,28.656L60.178,28.656L61.21,30.478L60.178,32.3L62.24,32.3L63.272,34.122L64.304,32.3L66.366,32.3ZM72.072,38.952L71.042,37.132L72.072,35.308L70.008,35.308L68.978,33.486L67.948,35.308L65.884,35.308L66.914,37.132L65.884,38.952L67.948,38.952L68.978,40.776L70.008,38.952L72.072,38.952ZM53.97,25.574L78.28,25.574L78.28,42.034L53.97,42.034L53.97,25.574ZM35.898,22.722C34.504,22.722 32.748,20.886 32.898,19.744C33.714,13.508 36.858,15.516 39.174,13.698C39.836,14.574 40.804,22.722 35.898,22.722M109.472,28.384C109.414,28.386 109.226,30.982 106.888,32.774C108.198,32.732 110.308,32.912 110.762,31.238C111.212,29.402 109.722,28.464 109.472,28.384M105.814,27.506C101.192,27.298 99.4,30.118 100.944,31.188C103.882,33.226 105.79,27.44 105.814,27.506M106.028,20.704C105.412,21.376 104.418,21.958 103.218,22.248C104.468,22.164 106.816,22.14 107.966,22.248C107.106,21.864 106.028,20.704 106.028,20.704M97.086,15.084C97.086,17.124 98.708,18.78 100.708,18.78C102.712,18.78 104.332,17.124 104.332,15.084C104.332,13.04 102.712,11.386 100.708,11.386C98.708,11.386 97.086,13.04 97.086,15.084M111.596,18.094C111.984,17.452 112.994,17.212 113.994,17.562C115.066,17.938 115.736,18.856 115.534,19.646C120.858,19.542 122.126,18.28 122.164,18.33C120.614,21.238 116.086,23.336 114.374,23.498C116.796,24.346 121.54,27.158 121.516,32.596C121.516,40.542 113.96,41.652 109.712,40.506C111.066,40.876 111.778,41.79 111.812,42.034L92.692,42.034L92.692,25.984C93.254,25.306 94.422,24.446 95.794,23.852C96.648,23.48 96.562,22.498 96.562,22.498C94.248,22.078 92.692,20.082 92.692,20.082L92.692,10.868C92.692,10.868 94.994,7.574 100.434,7.574C104.776,7.614 107.104,11.304 107.104,11.304C107.104,11.304 108.916,9.748 112.48,9.772C120.524,9.772 122.378,17.676 122.378,17.676C120.02,15.632 117.13,15.004 115.722,14.82C115.586,15.536 114.852,16.082 113.97,16.082C113.18,16.082 112.512,15.646 112.282,15.038L111.622,15.478C111.718,15.738 111.764,16.018 111.74,16.31C111.69,16.868 111.408,17.35 110.988,17.68L111.596,18.094ZM99.09,15.084C99.09,14.17 99.816,13.432 100.708,13.432C101.604,13.432 102.328,14.17 102.328,15.084C102.328,15.996 101.604,16.734 100.708,16.734C99.816,16.734 99.09,15.996 99.09,15.084M39.556,21.84L39.556,42.034L9.868,42.034C9.912,41.946 10.942,39.292 11.804,38.304C11.066,37.682 10.448,37.12 10.514,37.206C10.448,37.12 14.482,31.77 17.398,31.718C16.828,31.248 16.294,30.644 16.322,30.622C17.364,29.438 19.218,29.358 25.358,28.866C31.488,28.312 32.352,26.674 32.458,21.608C33.976,23.476 36.552,25.738 39.556,21.84M24.496,11.526C22.532,10.148 21.536,9.622 20.842,9.766C20.2,9.9 18.888,12.066 18.904,11.966C20.536,11.624 22.994,11.418 24.496,11.526M17.184,19.868C15.78,18.658 13.986,16.248 13.738,14.598C13.554,13.372 14.386,12.62 14.386,12.62C14.386,12.62 13.986,11.424 14.166,10.868C15.022,8.268 27.164,8.15 29.66,8.232C35.336,8.494 36.544,8.236 39.34,7.136C39.268,7.038 38.404,11.382 33.102,11.304C33.092,11.744 33.092,11.906 33.102,11.966C35.192,12.006 37.684,11.522 39.124,9.768C39.082,11.242 39.628,13.048 36.76,13.72C34.004,14.368 32.284,14.278 31.38,22.28C31.198,24.532 31.394,26.514 27.724,27.328C24.2,28.112 14.888,28.358 13.214,29.69L12.878,29.084C14.728,27.788 15.904,25.778 15.676,23.596C16.062,23.352 16.62,23.158 16.968,23.158C16.932,23.908 16.026,25.58 20.41,25.574C20.494,25.58 24.532,26.062 22.78,20.744C22.23,19.082 21.75,17.192 19.764,17.232C19.754,17.192 17.214,17.352 18.468,19.924C20.252,20.306 22.286,20.752 22.562,22.062C22.778,23.406 21.808,24.14 21.052,23.814C20.318,23.498 18.232,22.284 16.754,22.284C14.018,22.284 9.128,25.452 6,19.452C6.906,20.446 7.762,21.1 10.732,21.184C13.66,21.268 14.248,19.95 17.184,19.868" style="fill:rgb(0,75,52);fill-rule:nonzero;"/>
        <path d="M159.811,7.505C160.443,7.505 161.249,7.463 162.317,7.441L162.317,8.257L161.619,8.323C161.139,8.365 160.857,8.713 160.599,9.345L156.063,20.189C155.761,20.909 155.519,21.627 155.237,22.345L153.579,22.345L148.371,9.889C148.109,9.281 147.761,8.387 147.021,8.323L146.127,8.257L146.127,7.441C147.565,7.463 148.677,7.505 149.527,7.505C150.375,7.505 151.467,7.463 153.101,7.441L153.101,8.257L152.013,8.323C151.683,8.345 151.445,8.539 151.445,8.735C151.445,9.171 151.705,9.825 151.901,10.303L155.323,18.731L158.417,11.043C158.785,10.129 159.095,9.303 159.095,8.909C159.095,8.517 158.721,8.345 158.285,8.323L157.283,8.257L157.283,7.441C158.351,7.463 159.181,7.505 159.811,7.505M164.569,7.441L164.569,8.321L165.375,8.387C165.943,8.431 166.183,8.519 166.269,8.693C166.399,8.953 166.421,9.541 166.421,10.455L166.421,19.331C166.421,20.245 166.399,20.833 166.269,21.093C166.183,21.269 165.943,21.355 165.375,21.399L164.569,21.463L164.569,22.343C165.463,22.323 166.661,22.281 167.969,22.281C169.253,22.281 170.453,22.323 171.347,22.343L171.347,21.463L170.539,21.399C169.973,21.355 169.733,21.269 169.647,21.093C169.517,20.833 169.493,20.245 169.493,19.331L169.493,10.455C169.493,9.541 169.517,8.953 169.647,8.693C169.733,8.519 169.973,8.431 170.539,8.387L171.347,8.321L171.347,7.441C170.453,7.463 169.253,7.505 167.969,7.505C166.661,7.505 165.463,7.463 164.569,7.441M182.373,8.355C183.851,8.355 185.225,8.747 186.291,9.859L186.397,11.733L187.257,11.733C187.365,10.797 187.543,9.183 187.761,8.399L187.627,8.159C185.527,7.287 184.069,7.135 182.287,7.135C177.647,7.135 173.573,9.641 173.573,14.653C173.573,19.861 177.235,22.651 182.199,22.651C183.939,22.651 185.703,22.367 187.215,21.451L187.693,20.385L187.433,20.123C186.309,20.777 184.549,21.233 183.267,21.233C179.147,21.233 176.845,18.357 176.845,14.369C176.845,10.927 178.757,8.355 182.373,8.355M196.683,7.507C194.481,7.507 192.225,7.463 189.929,7.441L189.797,7.549C189.971,8.595 190.037,9.597 190.079,11.013L190.961,11.013L191.069,9.509C191.091,9.271 191.179,9.097 191.267,8.987C191.415,8.791 192.025,8.791 192.615,8.791L195.157,8.791L195.157,19.329C195.157,20.245 195.137,20.831 195.001,21.093C194.915,21.269 194.679,21.355 194.115,21.399L193.309,21.463L193.309,22.343C194.199,22.323 195.397,22.281 196.705,22.281C197.989,22.281 199.185,22.323 200.075,22.343L200.075,21.463L199.273,21.399C198.709,21.355 198.469,21.269 198.381,21.093C198.249,20.831 198.227,20.245 198.227,19.329L198.227,8.791L200.773,8.791C201.361,8.791 201.967,8.791 202.121,8.987C202.207,9.097 202.295,9.271 202.313,9.509L202.427,11.013L203.305,11.013C203.351,9.597 203.413,8.595 203.589,7.549L203.459,7.441C201.163,7.463 198.903,7.507 196.683,7.507M221.313,14.761C221.313,19.905 218.023,22.651 213.033,22.651C208.149,22.651 205.189,19.991 205.189,15.023C205.189,9.881 208.481,7.135 213.469,7.135C218.351,7.135 221.313,9.795 221.313,14.761M218.045,15.155C218.045,11.559 216.543,8.355 213.469,8.355C209.415,8.355 208.459,11.385 208.459,14.653C208.459,18.249 209.963,21.429 213.033,21.429C217.085,21.429 218.045,18.423 218.045,15.155M236.413,20.485L232.471,14.517C234.279,13.865 235.719,12.581 235.719,10.665C235.719,8.073 233.667,7.397 231.449,7.441C229.965,7.463 228.505,7.507 227.023,7.507C225.913,7.507 224.803,7.463 223.363,7.441L223.363,8.257L224.167,8.323C224.735,8.365 224.955,8.473 225.063,8.693C225.193,8.953 225.215,9.541 225.215,10.455L225.215,19.329C225.215,20.245 225.193,20.831 225.063,21.093C224.975,21.269 224.735,21.355 224.167,21.399L223.363,21.463L223.363,22.343C224.257,22.323 225.455,22.281 226.763,22.281C228.047,22.281 229.245,22.323 230.141,22.343L230.141,21.463L229.335,21.399C228.767,21.355 228.527,21.269 228.441,21.093C228.311,20.831 228.287,20.245 228.287,19.329L228.287,8.725C228.637,8.551 229.225,8.531 229.683,8.531C231.381,8.531 232.623,9.489 232.623,11.273C232.623,13.321 231.141,14.561 229.137,14.387L228.983,14.779L233.867,22.343C234.521,22.323 235.173,22.281 235.825,22.281C236.527,22.281 237.241,22.323 237.943,22.343L237.943,21.463C237.527,21.377 237.241,21.311 237.051,21.159C236.809,20.963 236.569,20.723 236.413,20.485M240.177,7.441L240.177,8.321L240.981,8.387C241.547,8.431 241.787,8.519 241.873,8.693C242.005,8.953 242.027,9.541 242.027,10.455L242.027,19.331C242.027,20.245 242.005,20.833 241.873,21.093C241.787,21.269 241.547,21.355 240.981,21.399L240.177,21.463L240.177,22.343C241.065,22.323 242.267,22.281 243.571,22.281C244.861,22.281 246.059,22.323 246.951,22.343L246.951,21.463L246.143,21.399C245.575,21.355 245.339,21.269 245.251,21.093C245.121,20.833 245.101,20.245 245.101,19.331L245.101,10.455C245.101,9.541 245.121,8.953 245.251,8.693C245.339,8.519 245.575,8.431 246.143,8.387L246.951,8.321L246.951,7.441C246.059,7.463 244.861,7.505 243.571,7.505C242.267,7.505 241.065,7.463 240.177,7.441M265.371,21.529L265.371,22.343C263.907,22.323 262.841,22.281 261.991,22.281C261.141,22.281 260.053,22.323 258.615,22.343L258.615,21.529L259.769,21.463C260.121,21.441 260.357,20.963 260.075,20.269L259.095,17.791L253.627,17.791L252.709,20.225C252.403,21.051 252.841,21.441 253.231,21.463L254.319,21.529L254.319,22.343C253.277,22.323 252.491,22.281 251.861,22.281C251.227,22.281 250.443,22.323 249.397,22.343L249.397,21.529L250.053,21.463C250.617,21.399 251.011,20.789 251.271,20.161L255.215,10.621L255.783,9.119L256.131,8.225L256.457,7.331L258.001,7.331L263.647,20.507C263.887,21.051 264.169,21.377 264.845,21.463L265.371,21.529ZM258.595,16.571L256.325,11.037L254.147,16.571L258.595,16.571Z" style="fill:rgb(0,75,52);fill-rule:nonzero;"/>
        <path d="M130.709,37.805L130.709,29.513C130.709,28.561 130.689,27.949 130.549,27.677C130.439,27.451 130.211,27.339 129.623,27.293L128.783,27.225L128.783,26.377C129.713,26.399 130.957,26.441 132.321,26.441C133.657,26.441 134.903,26.399 135.835,26.377L135.835,27.225L134.995,27.293C134.405,27.339 134.179,27.451 134.067,27.677C133.929,27.949 133.905,28.561 133.905,29.513L133.905,35.131C133.905,38.325 134.111,40.343 137.943,40.343C141.729,40.343 142.161,38.259 142.161,34.973L142.161,29.513C142.161,28.561 142.137,27.949 142.003,27.677C141.889,27.451 141.663,27.339 141.073,27.293L140.233,27.225L140.233,26.377C141.097,26.399 141.979,26.441 142.839,26.441C143.703,26.441 144.563,26.399 145.427,26.377L145.427,27.225L144.587,27.293C143.997,27.339 143.771,27.451 143.657,27.677C143.521,27.949 143.497,28.561 143.497,29.513L143.497,36.129C143.497,40.275 141.299,42.201 137.195,42.201C132.909,42.201 130.709,40.365 130.709,37.805" style="fill:rgb(0,75,52);fill-rule:nonzero;"/>
        <path d="M149.608,38.748L149.608,29.512C149.608,28.56 149.584,27.948 149.448,27.676C149.336,27.45 149.11,27.338 148.518,27.292L147.682,27.224L147.682,26.376C148.586,26.398 149.492,26.44 150.4,26.44C151.036,26.44 151.672,26.398 152.308,26.376C153.076,27.384 153.826,28.448 154.642,29.398L161.718,37.646L161.718,29.512C161.718,28.56 161.694,27.948 161.558,27.676C161.444,27.45 161.218,27.338 160.628,27.292L159.79,27.224L159.79,26.376C160.65,26.398 161.532,26.44 162.398,26.44C163.258,26.44 164.12,26.398 164.982,26.376L164.982,27.224L164.144,27.292C163.556,27.338 163.326,27.45 163.214,27.676C163.078,27.948 163.058,28.56 163.058,29.512L163.058,39.798C163.058,40.592 163.098,41.408 163.122,42.088L161.106,41.884C160.174,40.842 159.226,39.776 158.338,38.726L150.99,29.896L150.944,38.748C150.944,39.698 150.97,40.31 151.106,40.582C151.218,40.806 151.444,40.92 152.032,40.968L152.874,41.034L152.874,41.882C152.01,41.86 151.15,41.816 150.288,41.816C149.426,41.816 148.542,41.86 147.682,41.882L147.682,41.034L148.518,40.968C149.11,40.92 149.336,40.806 149.448,40.582C149.584,40.31 149.608,39.698 149.608,38.748" style="fill:rgb(0,75,52);fill-rule:nonzero;"/>
        <path d="M172.526,29.51L172.526,38.748C172.526,39.698 172.548,40.308 172.684,40.582C172.776,40.762 173.026,40.852 173.614,40.898L174.45,40.968L174.45,41.882C173.524,41.86 172.276,41.816 170.938,41.816C169.58,41.816 168.33,41.86 167.4,41.882L167.4,40.968L168.24,40.898C168.83,40.852 169.078,40.762 169.172,40.582C169.306,40.308 169.328,39.698 169.328,38.748L169.328,29.51C169.328,28.56 169.306,27.948 169.172,27.676C169.078,27.496 168.83,27.406 168.24,27.36L167.4,27.292L167.4,26.376C168.33,26.398 169.58,26.44 170.938,26.44C172.276,26.44 173.524,26.398 174.45,26.376L174.45,27.292L173.614,27.36C173.026,27.406 172.776,27.496 172.684,27.676C172.548,27.948 172.526,28.56 172.526,29.51" style="fill:rgb(0,75,52);fill-rule:nonzero;"/>
        <path d="M182.546,29.354L186.104,38.122L189.324,30.124C189.71,29.172 190.026,28.31 190.026,27.902C190.026,27.494 189.644,27.314 189.188,27.292L188.144,27.224L188.144,26.376C189.256,26.398 190.118,26.44 190.776,26.44C191.434,26.44 192.272,26.398 193.384,26.376L193.384,27.224L192.656,27.292C192.158,27.338 191.864,27.7 191.592,28.356L186.876,39.64C186.56,40.388 186.31,41.136 186.012,41.884L184.292,41.884L178.87,28.924C178.598,28.288 178.236,27.36 177.466,27.292L176.536,27.224L176.536,26.376C178.032,26.398 179.188,26.44 180.072,26.44C180.96,26.44 182.09,26.398 183.792,26.376L183.792,27.224L182.658,27.292C182.316,27.314 182.068,27.518 182.068,27.722C182.068,28.174 182.342,28.856 182.546,29.354" style="fill:rgb(0,75,52);fill-rule:nonzero;"/>
        <path d="M200.478,27.757L200.478,33.199C201,33.245 201.5,33.245 202,33.245L203.492,33.245C204.29,33.245 204.74,33.199 204.788,32.769L204.926,31.477L205.832,31.477C205.808,32.291 205.762,33.087 205.762,33.901C205.762,34.719 205.808,35.535 205.832,36.351L204.926,36.351L204.788,35.217C204.718,34.583 204.29,34.379 203.492,34.379L202,34.379C201.5,34.379 201,34.401 200.478,34.447L200.478,40.499C201.432,40.545 202.406,40.569 203.382,40.569C204.426,40.569 206.104,40.365 206.148,40.183L206.676,38.053L207.562,38.053L207.312,41.635C205.718,41.929 203.086,41.929 201.614,41.883C200.684,41.861 199.754,41.815 198.822,41.815C197.874,41.815 196.942,41.861 196.104,41.883L196.104,41.361L196.826,40.955C197.192,40.749 197.282,40.365 197.282,39.661L197.282,29.511C197.282,28.559 197.258,27.947 197.124,27.677C197.008,27.449 196.784,27.337 196.194,27.291L195.354,27.223L195.354,26.375C196.85,26.397 198.008,26.443 198.894,26.443C201.024,26.443 202.564,26.397 203.86,26.375C205.126,26.351 206.126,26.351 207.168,26.443L206.988,29.819L206.172,29.819L205.988,28.121C205.942,27.779 204.426,27.689 203.382,27.689C202.406,27.689 201.432,27.713 200.478,27.757" style="fill:rgb(0,75,52);fill-rule:nonzero;"/>
        <path d="M212.184,38.746L212.184,29.51C212.184,28.56 212.162,27.948 212.024,27.678C211.912,27.45 211.684,27.338 211.096,27.292L210.258,27.224L210.258,26.374C211.754,26.398 212.91,26.442 214.066,26.442C215.608,26.442 217.128,26.398 218.668,26.374C220.982,26.33 223.114,27.032 223.114,29.728C223.114,31.722 221.618,33.06 219.734,33.738L223.84,39.946C223.996,40.196 224.246,40.446 224.496,40.648C224.702,40.808 224.996,40.876 225.426,40.968L225.426,41.882C224.702,41.86 223.95,41.816 223.226,41.816C222.55,41.816 221.866,41.86 221.184,41.882L216.104,34.01L216.264,33.602C218.35,33.784 219.894,32.492 219.894,30.364C219.894,28.506 218.602,27.508 216.832,27.508C216.356,27.508 215.746,27.53 215.38,27.712L215.38,38.746C215.38,39.698 215.404,40.308 215.538,40.582C215.63,40.762 215.88,40.852 216.472,40.898L217.31,40.968L217.31,41.882C216.38,41.86 215.13,41.816 213.794,41.816C212.434,41.816 211.186,41.86 210.258,41.882L210.258,40.968L211.096,40.898C211.684,40.852 211.934,40.762 212.024,40.582C212.162,40.308 212.184,39.698 212.184,38.746" style="fill:rgb(0,75,52);fill-rule:nonzero;"/>
        <path d="M228.432,37.236L229.346,37.236L229.506,39.232C230.12,40.274 231.884,40.976 233.062,40.976C234.988,40.976 236.616,39.956 236.616,37.984C236.616,37.008 236.028,36.26 234.736,35.874L231.562,34.922C229.656,34.356 228.25,33.018 228.25,31.068C228.25,27.44 230.948,26.056 234.236,26.056C235.644,26.056 237.138,26.306 238.452,26.828C238.34,27.826 238.248,29.14 238.248,30.32L237.32,30.32L237.182,28.46C236.504,27.688 235.234,27.214 234.168,27.214C232.06,27.214 231.064,28.438 231.064,29.958C231.064,30.976 231.788,31.724 233.464,32.156L236.05,32.836C238.134,33.38 239.472,34.696 239.472,36.736C239.472,40.592 236.276,42.2 232.836,42.2C231.206,42.2 229.552,41.86 228.092,41.158C228.364,39.82 228.432,38.528 228.432,37.236" style="fill:rgb(0,75,52);fill-rule:nonzero;"/>
        <path d="M247.71,29.51L247.71,38.748C247.71,39.698 247.728,40.308 247.868,40.582C247.958,40.762 248.208,40.852 248.798,40.898L249.636,40.968L249.636,41.882C248.708,41.86 247.46,41.816 246.124,41.816C244.762,41.816 243.516,41.86 242.584,41.882L242.584,40.968L243.426,40.898C244.016,40.852 244.262,40.762 244.354,40.582C244.488,40.308 244.512,39.698 244.512,38.748L244.512,29.51C244.512,28.56 244.488,27.948 244.354,27.676C244.262,27.496 244.016,27.406 243.426,27.36L242.584,27.292L242.584,26.376C243.516,26.398 244.762,26.44 246.124,26.44C247.46,26.44 248.708,26.398 249.636,26.376L249.636,27.292L248.798,27.36C248.208,27.406 247.958,27.496 247.868,27.676C247.728,27.948 247.71,28.56 247.71,29.51" style="fill:rgb(0,75,52);fill-rule:nonzero;"/>
        <path d="M260.73,27.779L260.73,38.745C260.73,39.697 260.754,40.309 260.892,40.581C260.98,40.761 261.228,40.853 261.816,40.899L262.652,40.967L262.652,41.883C261.728,41.859 260.48,41.815 259.144,41.815C257.782,41.815 256.54,41.859 255.612,41.883L255.612,40.967L256.448,40.899C257.038,40.853 257.286,40.761 257.374,40.581C257.51,40.309 257.532,39.697 257.532,38.745L257.532,27.779L254.888,27.779C254.276,27.779 253.644,27.779 253.484,27.985C253.396,28.099 253.306,28.277 253.282,28.527L253.166,30.091L252.252,30.091C252.206,28.619 252.138,27.575 251.956,26.487C254.48,26.397 256.832,26.443 259.122,26.443C261.432,26.443 263.784,26.397 266.172,26.373C266.126,27.575 266.06,28.619 266.012,30.091L265.098,30.091L264.986,28.527C264.962,28.277 264.87,28.099 264.78,27.985C264.62,27.779 263.988,27.779 263.376,27.779L260.73,27.779Z" style="fill:rgb(0,75,52);fill-rule:nonzero;"/>
        <path d="M276.708,33.726L280.968,26.442L282.714,26.442L282.714,26.872L278.724,32.774C278.244,33.476 277.862,34.27 277.52,35.042L277.52,38.742C277.52,39.696 277.546,40.308 277.68,40.58C277.77,40.762 278.02,40.852 278.608,40.898L279.446,40.966L279.446,41.882C278.52,41.86 277.27,41.816 275.932,41.816C274.574,41.816 273.326,41.86 272.396,41.882L272.396,40.966L273.234,40.898C273.824,40.852 274.074,40.762 274.166,40.58C274.302,40.308 274.322,39.696 274.322,38.742L274.322,35.588C273.894,34.61 273.622,34.134 273.326,33.658L271.038,29.958C270.722,29.458 270.242,28.868 269.856,28.438C269.336,27.87 268.858,27.688 268.088,27.688L268.088,26.85L271.692,26.056C272.94,26.74 273.644,27.916 274.276,29.12L276.708,33.726Z" style="fill:rgb(0,75,52);fill-rule:nonzero;"/>
        <path d="M261.728,45.204C256.534,45.204 253.112,48.064 253.112,53.412C253.112,58.584 256.194,61.348 261.272,61.348C266.466,61.348 269.89,58.494 269.89,53.14C269.89,47.97 266.808,45.204 261.728,45.204M261.272,60.078C258.078,60.078 256.516,56.768 256.516,53.026C256.516,49.626 257.512,46.474 261.728,46.474C264.924,46.474 266.49,49.808 266.49,53.548C266.49,56.95 265.49,60.078 261.272,60.078" style="fill:rgb(0,75,52);fill-rule:nonzero;"/>
        <path d="M274.092,57.895L274.092,48.661C274.092,47.707 274.066,47.097 273.932,46.825C273.816,46.599 273.592,46.487 273.002,46.439L272.166,46.371L272.166,45.523C273.068,45.545 273.978,45.589 274.884,45.589C275.518,45.589 276.154,45.545 276.79,45.523C277.562,46.529 278.312,47.597 279.124,48.545L286.2,56.793L286.2,48.661C286.2,47.707 286.178,47.097 286.042,46.825C285.928,46.599 285.7,46.487 285.114,46.439L284.274,46.371L284.274,45.523C285.134,45.545 286.016,45.589 286.88,45.589C287.736,45.589 288.604,45.545 289.464,45.523L289.464,46.371L288.628,46.439C288.038,46.487 287.812,46.599 287.696,46.825C287.562,47.097 287.538,47.707 287.538,48.661L287.538,58.945C287.538,59.741 287.584,60.555 287.604,61.237L285.59,61.031C284.658,59.991 283.706,58.925 282.818,57.873L275.474,49.043L275.432,57.895C275.432,58.847 275.45,59.457 275.59,59.727C275.7,59.953 275.93,60.069 276.516,60.113L277.356,60.183L277.356,61.029C276.496,61.009 275.632,60.963 274.772,60.963C273.91,60.963 273.026,61.009 272.166,61.029L272.166,60.183L273.002,60.113C273.592,60.069 273.816,59.953 273.932,59.727C274.066,59.457 274.092,58.847 274.092,57.895" style="fill:rgb(0,75,52);fill-rule:nonzero;"/>
        <path d="M128.922,56.206L132.302,48.222L133.458,45.41L134.482,45.41C134.842,46.452 135.206,47.45 135.59,48.432L138.676,56.138L140.894,47.64C140.966,47.37 140.986,47.162 140.986,46.892C140.986,46.622 140.578,46.464 140.194,46.438L139.152,46.372L139.152,45.522C140.17,45.548 140.966,45.588 141.602,45.588C142.212,45.588 143.008,45.548 144.05,45.522L144.05,46.372L143.3,46.438C142.892,46.486 142.598,47.052 142.324,48.002L139.56,57.792C139.262,58.856 139.06,59.944 138.81,61.032L137.156,61.032C136.862,60.24 136.612,59.446 136.292,58.654L132.916,50.156L129.402,58.2C128.994,59.13 128.698,60.078 128.338,61.032L126.748,61.032L123.598,47.392C123.436,46.734 123.166,46.486 122.758,46.438L122.034,46.372L122.034,45.522C123.528,45.548 124.684,45.588 125.57,45.588C126.454,45.588 127.588,45.548 128.606,45.522L128.606,46.372L127.654,46.438C127.362,46.464 126.974,46.712 126.974,46.962C126.974,47.12 126.998,47.346 127.046,47.594L128.88,56.206L128.922,56.206Z" style="fill:rgb(0,75,52);fill-rule:nonzero;"/>
        <path d="M151.387,46.905L151.387,52.347C151.911,52.393 152.411,52.393 152.911,52.393L154.405,52.393C155.199,52.393 155.653,52.347 155.697,51.917L155.835,50.625L156.743,50.625C156.717,51.439 156.673,52.233 156.673,53.049C156.673,53.867 156.717,54.683 156.743,55.499L155.835,55.499L155.697,54.365C155.631,53.731 155.199,53.527 154.405,53.527L152.911,53.527C152.411,53.527 151.911,53.549 151.387,53.593L151.387,59.647C152.341,59.695 153.319,59.717 154.291,59.717C155.335,59.717 157.013,59.513 157.059,59.331L157.585,57.199L158.475,57.199L158.225,60.783C156.625,61.077 153.997,61.077 152.521,61.031C151.593,61.009 150.663,60.963 149.735,60.963C148.779,60.963 147.849,61.009 147.013,61.031L147.013,60.509L147.739,60.103C148.099,59.897 148.189,59.513 148.189,58.809L148.189,48.657C148.189,47.707 148.167,47.095 148.031,46.823C147.917,46.597 147.691,46.485 147.103,46.439L146.265,46.371L146.265,45.523C147.763,45.545 148.915,45.591 149.803,45.591C151.933,45.591 153.477,45.545 154.767,45.523C156.033,45.499 157.033,45.499 158.083,45.591L157.899,48.969L157.083,48.969L156.901,47.269C156.855,46.927 155.335,46.837 154.291,46.837C153.319,46.837 152.341,46.863 151.387,46.905" style="fill:rgb(0,75,52);fill-rule:nonzero;"/>
        <path d="M165.836,48.661L165.836,59.649C166.79,59.693 167.766,59.715 168.738,59.715C169.782,59.715 171.462,59.513 171.508,59.331L172.032,57.021L172.924,57.021L172.674,60.781C171.076,61.077 168.446,61.077 166.968,61.031C166.042,61.009 165.11,60.961 164.184,60.961C163.228,60.961 162.298,61.009 161.46,61.031L161.46,60.511L162.188,60.103C162.546,59.899 162.636,59.513 162.636,58.811L162.636,48.661C162.636,47.707 162.618,47.097 162.478,46.825C162.386,46.645 162.142,46.553 161.552,46.509L160.714,46.441L160.714,45.525C161.642,45.545 162.886,45.589 164.252,45.589C165.586,45.589 166.834,45.545 167.766,45.525L167.766,46.441L166.926,46.509C166.336,46.553 166.084,46.645 165.992,46.825C165.86,47.097 165.836,47.707 165.836,48.661" style="fill:rgb(0,75,52);fill-rule:nonzero;"/>
        <path d="M180.28,48.661L180.28,59.649C181.234,59.693 182.21,59.715 183.182,59.715C184.226,59.715 185.906,59.513 185.954,59.331L186.478,57.021L187.368,57.021L187.12,60.781C185.522,61.077 182.892,61.077 181.416,61.031C180.486,61.009 179.556,60.961 178.628,60.961C177.672,60.961 176.746,61.009 175.906,61.031L175.906,60.511L176.634,60.103C176.994,59.899 177.082,59.513 177.082,58.811L177.082,48.661C177.082,47.707 177.064,47.097 176.924,46.825C176.838,46.645 176.586,46.553 175.996,46.509L175.156,46.441L175.156,45.525C176.088,45.545 177.332,45.589 178.694,45.589C180.036,45.589 181.278,45.545 182.21,45.525L182.21,46.441L181.372,46.509C180.778,46.553 180.528,46.645 180.442,46.825C180.304,47.097 180.28,47.707 180.28,48.661" style="fill:rgb(0,75,52);fill-rule:nonzero;"/>
        <path d="M194.424,48.657L194.424,57.895C194.424,58.849 194.444,59.457 194.584,59.729C194.674,59.909 194.92,60.001 195.512,60.045L196.35,60.115L196.35,61.031C195.42,61.007 194.176,60.963 192.838,60.963C191.474,60.963 190.228,61.007 189.298,61.031L189.298,60.115L190.138,60.045C190.728,60.001 190.978,59.909 191.068,59.729C191.204,59.457 191.228,58.849 191.228,57.895L191.228,48.657C191.228,47.707 191.204,47.097 191.068,46.825C190.978,46.643 190.728,46.553 190.138,46.507L189.298,46.441L189.298,45.525C190.228,45.545 191.474,45.589 192.838,45.589C194.176,45.589 195.42,45.545 196.35,45.525L196.35,46.441L195.512,46.507C194.92,46.553 194.674,46.643 194.584,46.825C194.444,47.097 194.424,47.707 194.424,48.657" style="fill:rgb(0,75,52);fill-rule:nonzero;"/>
        <path d="M200.55,57.895L200.55,48.661C200.55,47.707 200.528,47.097 200.392,46.825C200.278,46.599 200.052,46.487 199.46,46.439L198.62,46.371L198.62,45.523C199.528,45.545 200.436,45.589 201.342,45.589C201.976,45.589 202.614,45.545 203.246,45.523C204.02,46.529 204.766,47.597 205.58,48.545L212.656,56.793L212.656,48.661C212.656,47.707 212.634,47.097 212.496,46.825C212.388,46.599 212.156,46.487 211.566,46.439L210.73,46.371L210.73,45.523C211.592,45.545 212.476,45.589 213.338,45.589C214.198,45.589 215.06,45.545 215.92,45.523L215.92,46.371L215.084,46.439C214.494,46.487 214.268,46.599 214.154,46.825C214.02,47.097 213.994,47.707 213.994,48.661L213.994,58.945C213.994,59.741 214.04,60.555 214.062,61.237L212.048,61.031C211.116,59.991 210.164,58.925 209.278,57.873L201.932,49.043L201.89,57.895C201.89,58.847 201.906,59.457 202.048,59.727C202.156,59.953 202.388,60.069 202.974,60.113L203.814,60.183L203.814,61.029C202.95,61.009 202.088,60.963 201.228,60.963C200.37,60.963 199.482,61.009 198.62,61.029L198.62,60.183L199.46,60.113C200.052,60.069 200.278,59.953 200.392,59.727C200.528,59.457 200.55,58.847 200.55,57.895" style="fill:rgb(0,75,52);fill-rule:nonzero;"/>
        <path d="M233.818,56.292L233.818,59.99C231.73,60.806 229.534,61.348 227.192,61.348C222.024,61.348 218.218,58.446 218.218,53.026C218.218,47.814 222.458,45.204 227.284,45.204C229.344,45.204 231.36,45.386 233.524,46.27C233.432,47.336 233.248,49.014 233.138,49.99L232.242,49.99L232.132,48.038C231.246,46.998 229.23,46.476 227.38,46.476C223.614,46.476 221.622,49.152 221.622,52.734C221.622,56.658 223.638,60.08 227.72,60.08C228.718,60.08 229.646,59.874 230.6,59.512L230.6,56.518C230.6,55.818 230.032,55.702 229.308,55.68L228.104,55.636L228.104,54.704C229.216,54.73 230.322,54.772 231.44,54.772C232.548,54.772 233.638,54.73 234.744,54.704L234.744,55.478C233.978,55.636 233.818,55.728 233.818,56.292" style="fill:rgb(0,75,52);fill-rule:nonzero;"/>
        <path d="M245.638,46.929L245.638,57.893C245.638,58.847 245.66,59.457 245.794,59.727C245.888,59.911 246.138,60.001 246.724,60.047L247.562,60.115L247.562,61.031C246.636,61.009 245.392,60.965 244.054,60.965C242.688,60.965 241.446,61.009 240.518,61.031L240.518,60.115L241.354,60.047C241.944,60.001 242.194,59.911 242.28,59.727C242.42,59.457 242.438,58.847 242.438,57.893L242.438,46.929L239.792,46.929C239.182,46.929 238.55,46.929 238.392,47.133C238.3,47.247 238.212,47.427 238.188,47.677L238.074,49.239L237.158,49.239C237.114,47.769 237.046,46.723 236.864,45.635C239.39,45.547 241.738,45.591 244.028,45.591C246.338,45.591 248.69,45.547 251.078,45.523C251.032,46.723 250.964,47.769 250.92,49.239L250.002,49.239L249.894,47.677C249.866,47.427 249.776,47.247 249.686,47.133C249.526,46.929 248.896,46.929 248.282,46.929L245.638,46.929Z" style="fill:rgb(0,75,52);fill-rule:nonzero;"/>
        <path d="M272.315,66.39L275.563,66.39L275.563,67.02L272.315,67.02L272.315,66.39ZM78.169,66.404L81.417,66.404L81.417,67.032L78.169,67.032L78.169,66.404ZM288.605,69.042L288.605,72.82C288.605,73.138 288.623,73.358 288.685,73.45C288.733,73.534 288.841,73.57 289.049,73.578L289.465,73.602L289.465,73.858C289.013,73.84 288.605,73.832 288.207,73.832C287.781,73.832 287.373,73.84 286.923,73.858L286.923,73.602L287.339,73.578C287.547,73.57 287.649,73.534 287.703,73.45C287.763,73.358 287.781,73.138 287.781,72.82L287.781,69.042C287.781,68.722 287.763,68.504 287.703,68.412C287.649,68.328 287.547,68.292 287.339,68.284L286.923,68.26L286.923,68.002C287.373,68.02 287.781,68.028 288.207,68.028C288.605,68.028 289.013,68.02 289.465,68.002L289.465,68.26L289.049,68.284C288.841,68.292 288.733,68.328 288.685,68.412C288.623,68.504 288.605,68.722 288.605,69.042M8.091,72.82L8.091,69.258C8.091,68.938 8.083,68.668 8.057,68.416L6.713,68.416C6.453,68.416 6.383,68.494 6.365,68.694L6.331,69.358L6.061,69.358C6.061,68.906 6.043,68.44 6.001,68.002C6.625,68.002 7.251,68.028 7.875,68.028L9.133,68.028C9.759,68.028 10.383,68.002 11.009,68.002C10.965,68.44 10.947,68.906 10.947,69.358L10.679,69.358L10.643,68.694C10.627,68.494 10.557,68.416 10.297,68.416L8.951,68.416C8.925,68.668 8.917,68.938 8.917,69.258L8.917,72.82C8.917,73.138 8.935,73.356 8.995,73.45C9.047,73.534 9.151,73.57 9.359,73.578L9.775,73.602L9.775,73.858C9.325,73.84 8.917,73.832 8.517,73.832C8.091,73.832 7.685,73.84 7.233,73.858L7.233,73.602L7.649,73.578C7.857,73.57 7.961,73.534 8.013,73.45C8.075,73.356 8.091,73.138 8.091,72.82M13.531,72.82L13.531,69.04C13.531,68.722 13.515,68.504 13.453,68.412C13.401,68.328 13.297,68.292 13.089,68.284L12.673,68.26L12.673,68.002C13.149,68.012 13.645,68.028 14.139,68.028C14.893,68.028 15.689,68.002 16.183,68.002C16.577,68.002 16.969,68.012 17.307,68.028C17.211,68.398 17.167,68.878 17.167,69.308L16.863,69.308L16.863,68.76C16.863,68.654 16.855,68.558 16.785,68.534C16.323,68.366 15.637,68.356 15.083,68.356C14.849,68.356 14.599,68.366 14.355,68.424L14.355,70.674C14.633,70.69 14.945,70.698 15.361,70.698C15.889,70.698 16.183,70.664 16.279,70.606C16.323,70.574 16.339,70.498 16.349,70.386L16.393,69.948L16.655,69.948C16.647,70.294 16.631,70.614 16.631,70.926C16.631,71.24 16.647,71.558 16.655,71.862L16.393,71.862L16.349,71.364C16.339,71.254 16.323,71.178 16.279,71.156C16.183,71.086 15.889,71.052 15.361,71.052C14.945,71.052 14.625,71.052 14.355,71.08L14.355,73.436C14.599,73.498 14.849,73.504 15.083,73.504C15.793,73.504 16.681,73.478 16.837,73.394C16.969,73.33 17.081,72.956 17.141,72.45L17.445,72.45C17.359,72.856 17.307,73.378 17.307,73.832C16.925,73.84 16.235,73.866 15.595,73.858C14.927,73.85 14.243,73.832 13.705,73.832C13.375,73.832 13.089,73.85 12.777,73.858L12.777,73.602L13.089,73.578C13.297,73.558 13.401,73.534 13.453,73.45C13.515,73.358 13.531,73.138 13.531,72.82M27.907,72.174L26.823,69.322L25.313,73.042C25.201,73.33 25.087,73.614 25.001,73.91L24.567,73.91C24.505,73.596 24.437,73.336 24.367,73.042L23.335,68.706C23.247,68.344 23.083,68.302 22.901,68.284L22.657,68.26L22.657,68.002C23.021,68.012 23.377,68.028 23.751,68.028C24.123,68.028 24.479,68.012 24.845,68.002L24.845,68.26L24.479,68.284C24.255,68.302 24.081,68.344 24.193,68.84L25.053,72.594L26.137,69.966C26.407,69.3 26.685,68.626 26.919,67.936L27.197,67.936C27.275,68.272 27.431,68.662 27.553,69L28.897,72.656L30.051,68.562C30.103,68.36 29.983,68.31 29.653,68.284L29.305,68.26L29.305,68.002C29.609,68.012 29.903,68.028 30.217,68.028C30.529,68.028 30.823,68.012 31.127,68.002L31.127,68.26L30.851,68.284C30.659,68.302 30.563,68.386 30.521,68.528L29.193,73.058C29.123,73.302 29.027,73.562 28.959,73.91L28.523,73.91C28.333,73.246 28.125,72.754 27.907,72.174M38.755,69.042L38.755,72.82C38.755,73.138 38.771,73.358 38.833,73.45C38.885,73.534 38.989,73.57 39.197,73.578L39.613,73.602L39.613,73.858C39.163,73.84 38.755,73.832 38.355,73.832C37.929,73.832 37.521,73.84 37.071,73.858L37.071,73.602L37.487,73.578C37.695,73.57 37.799,73.534 37.851,73.45C37.913,73.358 37.929,73.138 37.929,72.82L37.929,70.942C37.825,70.934 37.591,70.926 37.209,70.926L35.179,70.926C34.797,70.926 34.563,70.934 34.459,70.942L34.459,72.82C34.459,73.138 34.475,73.358 34.537,73.45C34.589,73.534 34.693,73.57 34.901,73.578L35.317,73.602L35.317,73.858C34.867,73.84 34.459,73.832 34.059,73.832C33.633,73.832 33.225,73.84 32.775,73.858L32.775,73.602L33.191,73.578C33.399,73.57 33.503,73.534 33.555,73.45C33.617,73.358 33.633,73.138 33.633,72.82L33.633,69.042C33.633,68.722 33.617,68.504 33.555,68.412C33.503,68.328 33.399,68.292 33.191,68.284L32.775,68.26L32.775,68.002C33.225,68.02 33.633,68.028 34.059,68.028C34.459,68.028 34.867,68.02 35.317,68.002L35.317,68.26L34.901,68.284C34.693,68.292 34.589,68.328 34.537,68.412C34.475,68.504 34.459,68.722 34.459,69.042L34.459,70.538C34.563,70.546 34.797,70.556 35.179,70.556L37.209,70.556C37.591,70.556 37.825,70.546 37.929,70.538L37.929,69.042C37.929,68.722 37.913,68.504 37.851,68.412C37.799,68.328 37.695,68.292 37.487,68.284L37.071,68.26L37.071,68.002C37.521,68.02 37.929,68.028 38.355,68.028C38.755,68.028 39.163,68.02 39.613,68.002L39.613,68.26L39.197,68.284C38.989,68.292 38.885,68.328 38.833,68.412C38.771,68.504 38.755,68.722 38.755,69.042M43.205,71.566L45.401,71.566L44.307,69.056L43.205,71.566ZM44.663,67.936L46.763,72.718C46.841,72.886 46.937,73.114 47.041,73.29C47.135,73.45 47.231,73.558 47.387,73.578L47.683,73.602L47.683,73.858C47.301,73.848 46.919,73.832 46.529,73.832C46.225,73.832 45.843,73.848 45.375,73.858L45.375,73.602L45.783,73.578C45.965,73.57 46.137,73.508 46.137,73.41C46.137,73.29 46.043,73.074 45.955,72.87L45.557,71.906L43.057,71.906L42.813,72.466C42.735,72.642 42.511,73.206 42.511,73.34C42.511,73.516 42.657,73.55 42.927,73.578L43.247,73.602L43.247,73.858C42.831,73.848 42.501,73.832 42.249,73.832C41.911,73.832 41.581,73.848 41.251,73.858L41.251,73.602L41.573,73.578C41.781,73.558 41.947,73.382 42.041,73.164L43.587,69.754C43.855,69.166 44.151,68.542 44.385,67.936L44.663,67.936ZM51.065,68.424L51.065,72.82C51.065,73.138 51.083,73.358 51.143,73.45C51.195,73.534 51.299,73.57 51.507,73.578L51.925,73.602L51.925,73.858C51.473,73.84 51.065,73.832 50.667,73.832C50.241,73.832 49.833,73.84 49.381,73.858L49.381,73.602L49.799,73.578C50.007,73.57 50.111,73.534 50.163,73.45C50.223,73.358 50.241,73.138 50.241,72.82L50.241,69.042C50.241,68.722 50.223,68.504 50.163,68.412C50.111,68.328 50.007,68.302 49.799,68.284L49.443,68.26L49.443,68.002C49.903,68.012 50.405,68.028 50.917,68.028C51.429,68.028 51.933,68.012 52.437,68.002C53.825,67.978 54.189,68.662 54.189,69.266C54.189,70.184 53.339,70.732 52.497,70.892L54.467,73.382C54.597,73.55 54.789,73.584 54.997,73.602L54.997,73.858C54.771,73.848 54.571,73.832 54.371,73.832C54.173,73.832 53.981,73.848 53.781,73.858C53.669,73.696 53.539,73.55 53.425,73.4L51.829,71.324C51.691,71.136 51.525,70.976 51.377,70.8C51.665,70.716 51.933,70.706 52.193,70.664C52.801,70.564 53.321,70.108 53.321,69.488C53.321,68.578 52.627,68.324 51.951,68.324C51.561,68.324 51.309,68.366 51.065,68.424M57.355,72.82L57.355,69.04C57.355,68.722 57.337,68.504 57.277,68.412C57.225,68.328 57.121,68.292 56.913,68.284L56.495,68.26L56.495,68.002C56.973,68.012 57.467,68.028 57.963,68.028C58.717,68.028 59.513,68.002 60.007,68.002C60.401,68.002 60.793,68.012 61.131,68.028C61.035,68.398 60.991,68.878 60.991,69.308L60.689,69.308L60.689,68.76C60.689,68.654 60.679,68.558 60.609,68.534C60.145,68.366 59.461,68.356 58.907,68.356C58.673,68.356 58.423,68.366 58.179,68.424L58.179,70.674C58.457,70.69 58.769,70.698 59.185,70.698C59.713,70.698 60.007,70.664 60.103,70.606C60.145,70.574 60.163,70.498 60.173,70.386L60.215,69.948L60.479,69.948C60.471,70.294 60.455,70.614 60.455,70.926C60.455,71.24 60.471,71.558 60.479,71.862L60.215,71.862L60.173,71.364C60.163,71.254 60.145,71.178 60.103,71.156C60.007,71.086 59.713,71.052 59.185,71.052C58.769,71.052 58.449,71.052 58.179,71.08L58.179,73.436C58.423,73.498 58.673,73.504 58.907,73.504C59.617,73.504 60.505,73.478 60.661,73.394C60.793,73.33 60.905,72.956 60.965,72.45L61.269,72.45C61.183,72.856 61.131,73.378 61.131,73.832C60.749,73.84 60.059,73.866 59.419,73.858C58.751,73.85 58.067,73.832 57.529,73.832C57.199,73.832 56.913,73.85 56.601,73.858L56.601,73.602L56.913,73.578C57.121,73.558 57.225,73.534 57.277,73.45C57.337,73.358 57.355,73.138 57.355,72.82M71.731,72.174L70.647,69.322L69.137,73.042C69.025,73.33 68.911,73.614 68.825,73.91L68.391,73.91C68.329,73.596 68.261,73.336 68.191,73.042L67.159,68.706C67.071,68.344 66.907,68.302 66.725,68.284L66.481,68.26L66.481,68.002C66.845,68.012 67.201,68.028 67.575,68.028C67.947,68.028 68.303,68.012 68.669,68.002L68.669,68.26L68.303,68.284C68.077,68.302 67.905,68.344 68.017,68.84L68.877,72.594L69.961,69.966C70.231,69.3 70.509,68.626 70.743,67.936L71.021,67.936C71.099,68.272 71.255,68.662 71.375,69L72.721,72.656L73.875,68.562C73.927,68.36 73.807,68.31 73.477,68.284L73.129,68.26L73.129,68.002C73.433,68.012 73.727,68.028 74.041,68.028C74.353,68.028 74.647,68.012 74.951,68.002L74.951,68.26L74.675,68.284C74.483,68.302 74.387,68.386 74.345,68.528L73.017,73.058C72.947,73.302 72.851,73.562 72.781,73.91L72.347,73.91C72.157,73.246 71.949,72.754 71.731,72.174M78.491,71.566L80.687,71.566L79.593,69.056L78.491,71.566ZM79.949,67.936L82.049,72.718C82.127,72.886 82.223,73.114 82.327,73.29C82.421,73.45 82.517,73.558 82.673,73.578L82.969,73.602L82.969,73.858C82.587,73.848 82.205,73.832 81.815,73.832C81.511,73.832 81.129,73.848 80.661,73.858L80.661,73.602L81.069,73.578C81.251,73.57 81.425,73.508 81.425,73.41C81.425,73.29 81.329,73.074 81.241,72.87L80.843,71.906L78.343,71.906L78.101,72.466C78.021,72.642 77.797,73.206 77.797,73.34C77.797,73.516 77.943,73.55 78.213,73.578L78.533,73.602L78.533,73.858C78.117,73.848 77.787,73.832 77.535,73.832C77.197,73.832 76.867,73.848 76.537,73.858L76.537,73.602L76.859,73.578C77.067,73.558 77.231,73.382 77.327,73.164L78.873,69.754C79.141,69.166 79.437,68.542 79.671,67.936L79.949,67.936ZM85.449,72.82L85.449,69.042C85.449,68.722 85.431,68.504 85.371,68.412C85.319,68.328 85.215,68.302 85.007,68.284L84.625,68.26L84.625,68.002C85.007,68.012 85.353,68.028 85.665,68.028C85.821,68.028 85.979,68.012 86.135,68.002L90.283,72.974L90.309,69.042C90.309,68.722 90.291,68.504 90.231,68.412C90.179,68.328 90.075,68.302 89.867,68.284L89.485,68.26L89.485,68.002C89.831,68.012 90.179,68.028 90.491,68.028C90.839,68.028 91.151,68.012 91.533,68.002L91.533,68.26L91.151,68.284C90.943,68.302 90.839,68.328 90.787,68.412C90.725,68.504 90.709,68.722 90.709,69.042L90.709,73.69C90.709,73.79 90.725,73.9 90.733,74L89.953,73.866L85.865,68.94L85.849,72.82C85.849,73.138 85.865,73.358 85.927,73.45C85.979,73.534 86.083,73.558 86.291,73.578L86.673,73.602L86.673,73.858C86.291,73.848 85.979,73.832 85.631,73.832C85.319,73.832 84.971,73.848 84.625,73.858L84.625,73.602L85.007,73.578C85.215,73.558 85.319,73.534 85.371,73.45C85.431,73.358 85.449,73.138 85.449,72.82M95.089,71.566L97.285,71.566L96.191,69.056L95.089,71.566ZM96.547,67.936L98.647,72.718C98.725,72.886 98.821,73.114 98.925,73.29C99.021,73.45 99.115,73.558 99.273,73.578L99.567,73.602L99.567,73.858C99.185,73.848 98.803,73.832 98.413,73.832C98.109,73.832 97.727,73.848 97.259,73.858L97.259,73.602L97.667,73.578C97.849,73.57 98.023,73.508 98.023,73.41C98.023,73.29 97.927,73.074 97.841,72.87L97.441,71.906L94.941,71.906L94.699,72.466C94.621,72.642 94.395,73.206 94.395,73.34C94.395,73.516 94.543,73.55 94.811,73.578L95.133,73.602L95.133,73.858C94.715,73.848 94.385,73.832 94.135,73.832C93.795,73.832 93.465,73.848 93.135,73.858L93.135,73.602L93.457,73.578C93.665,73.558 93.831,73.382 93.925,73.164L95.471,69.754C95.739,69.166 96.035,68.542 96.269,67.936L96.547,67.936ZM102.047,72.82L102.047,69.042C102.047,68.722 102.029,68.504 101.969,68.412C101.917,68.328 101.813,68.302 101.605,68.284L101.223,68.26L101.223,68.002C101.605,68.012 101.951,68.028 102.263,68.028C102.421,68.028 102.577,68.012 102.733,68.002L106.881,72.974L106.907,69.042C106.907,68.722 106.889,68.504 106.829,68.412C106.777,68.328 106.673,68.302 106.465,68.284L106.083,68.26L106.083,68.002C106.429,68.012 106.777,68.028 107.089,68.028C107.437,68.028 107.749,68.012 108.131,68.002L108.131,68.26L107.749,68.284C107.541,68.302 107.437,68.328 107.385,68.412C107.323,68.504 107.307,68.722 107.307,69.042L107.307,73.69C107.307,73.79 107.323,73.9 107.333,74L106.551,73.866L102.463,68.94L102.447,72.82C102.447,73.138 102.463,73.358 102.525,73.45C102.577,73.534 102.681,73.558 102.889,73.578L103.271,73.602L103.271,73.858C102.889,73.848 102.577,73.832 102.229,73.832C101.917,73.832 101.569,73.848 101.223,73.858L101.223,73.602L101.605,73.578C101.813,73.558 101.917,73.534 101.969,73.45C102.029,73.358 102.047,73.138 102.047,72.82M114.777,73.008L114.777,72.162C114.777,71.966 114.707,71.882 114.481,71.864L113.761,71.806L113.761,71.55C114.117,71.558 114.473,71.566 114.821,71.566C115.177,71.566 115.531,71.558 115.887,71.55L115.923,71.764L115.671,71.848C115.575,71.882 115.575,71.916 115.575,72.162L115.575,73.574C114.829,73.782 113.891,74 113.293,74C111.357,74 109.795,73.024 109.795,70.912C109.795,69.056 111.367,67.86 113.457,67.86C114.533,67.86 115.211,68.096 115.611,68.204C115.505,68.6 115.437,69.048 115.437,69.488L115.167,69.488L115.167,69.038C115.167,68.642 114.855,68.508 114.447,68.366C114.169,68.272 113.797,68.214 113.233,68.214C111.583,68.214 110.723,69.266 110.723,70.766C110.723,72.444 111.731,73.646 113.519,73.646C114.187,73.646 114.681,73.504 114.733,73.352C114.769,73.26 114.777,73.218 114.777,73.008M119.625,71.566L121.821,71.566L120.729,69.056L119.625,71.566ZM121.083,67.936L123.185,72.718C123.263,72.886 123.357,73.114 123.463,73.29C123.557,73.45 123.653,73.558 123.809,73.578L124.105,73.602L124.105,73.858C123.723,73.848 123.341,73.832 122.949,73.832C122.647,73.832 122.265,73.848 121.795,73.858L121.795,73.602L122.203,73.578C122.385,73.57 122.559,73.508 122.559,73.41C122.559,73.29 122.463,73.074 122.377,72.87L121.977,71.906L119.479,71.906L119.235,72.466C119.157,72.642 118.931,73.206 118.931,73.34C118.931,73.516 119.079,73.55 119.349,73.578L119.669,73.602L119.669,73.858C119.253,73.848 118.923,73.832 118.671,73.832C118.333,73.832 118.003,73.848 117.673,73.858L117.673,73.602L117.995,73.578C118.203,73.558 118.367,73.382 118.463,73.164L120.007,69.754C120.277,69.166 120.571,68.542 120.807,67.936L121.083,67.936ZM131.937,68.214C130.427,68.214 129.741,69.244 129.741,70.622C129.741,72.096 130.453,73.646 132.171,73.646C133.621,73.646 134.323,72.552 134.323,71.002C134.323,69.334 133.551,68.214 131.937,68.214M131.893,74C130.131,74 128.813,72.824 128.813,70.934C128.813,69.198 130.063,67.86 132.075,67.86C133.933,67.86 135.253,68.87 135.253,70.742C135.253,72.552 133.795,74 131.893,74M142.495,72.82L142.495,69.258C142.495,68.938 142.487,68.668 142.461,68.416L141.115,68.416C140.855,68.416 140.785,68.494 140.767,68.694L140.733,69.358L140.463,69.358C140.463,68.906 140.447,68.44 140.403,68.002C141.029,68.002 141.653,68.028 142.277,68.028L143.537,68.028C144.161,68.028 144.787,68.002 145.411,68.002C145.367,68.44 145.351,68.906 145.351,69.358L145.081,69.358L145.047,68.694C145.029,68.494 144.959,68.416 144.699,68.416L143.353,68.416C143.329,68.668 143.319,68.938 143.319,69.258L143.319,72.82C143.319,73.138 143.337,73.356 143.397,73.45C143.449,73.534 143.553,73.57 143.763,73.578L144.179,73.602L144.179,73.858C143.727,73.84 143.319,73.832 142.921,73.832C142.495,73.832 142.087,73.84 141.635,73.858L141.635,73.602L142.053,73.578C142.261,73.57 142.365,73.534 142.417,73.45C142.477,73.356 142.495,73.138 142.495,72.82M147.935,72.82L147.935,69.04C147.935,68.722 147.917,68.504 147.857,68.412C147.805,68.328 147.699,68.292 147.493,68.284L147.075,68.26L147.075,68.002C147.553,68.012 148.047,68.028 148.541,68.028C149.295,68.028 150.093,68.002 150.585,68.002C150.979,68.002 151.371,68.012 151.709,68.028C151.613,68.398 151.571,68.878 151.571,69.308L151.267,69.308L151.267,68.76C151.267,68.654 151.259,68.558 151.189,68.534C150.725,68.366 150.041,68.356 149.487,68.356C149.253,68.356 149.001,68.366 148.759,68.424L148.759,70.674C149.035,70.69 149.349,70.698 149.763,70.698C150.291,70.698 150.585,70.664 150.681,70.606C150.725,70.574 150.741,70.498 150.749,70.386L150.795,69.948L151.059,69.948C151.049,70.294 151.033,70.614 151.033,70.926C151.033,71.24 151.049,71.558 151.059,71.862L150.795,71.862L150.749,71.364C150.741,71.254 150.725,71.178 150.681,71.156C150.585,71.086 150.291,71.052 149.763,71.052C149.349,71.052 149.027,71.052 148.759,71.08L148.759,73.436C149.001,73.498 149.253,73.504 149.487,73.504C150.195,73.504 151.083,73.478 151.241,73.394C151.371,73.33 151.483,72.956 151.545,72.45L151.849,72.45C151.763,72.856 151.709,73.378 151.709,73.832C151.325,73.84 150.639,73.866 149.997,73.858C149.331,73.85 148.647,73.832 148.107,73.832C147.779,73.832 147.493,73.85 147.179,73.858L147.179,73.602L147.493,73.578C147.699,73.558 147.805,73.534 147.857,73.45C147.917,73.358 147.935,73.138 147.935,72.82M157.953,72.03L157.953,69.042C157.953,68.722 157.937,68.504 157.877,68.412C157.823,68.328 157.721,68.292 157.511,68.284L157.093,68.26L157.093,68.002C157.545,68.02 157.953,68.028 158.379,68.028C158.779,68.028 159.187,68.02 159.637,68.002L159.637,68.26L159.221,68.284C159.013,68.292 158.909,68.328 158.857,68.412C158.795,68.504 158.779,68.722 158.779,69.042L158.779,71.938C158.779,73.134 159.419,73.478 160.567,73.478C161.501,73.478 162.355,73.134 162.355,71.738L162.355,69.042C162.355,68.722 162.335,68.504 162.275,68.412C162.223,68.328 162.119,68.302 161.911,68.284L161.529,68.26L161.529,68.002C161.877,68.012 162.223,68.028 162.537,68.028C162.883,68.028 163.195,68.012 163.579,68.002L163.579,68.26L163.195,68.284C162.989,68.302 162.883,68.328 162.831,68.412C162.771,68.504 162.751,68.722 162.751,69.042L162.751,71.474C162.751,73.276 162.051,74 160.297,74C158.821,74 157.953,73.574 157.953,72.03M166.933,68.424L166.933,72.82C166.933,73.138 166.953,73.358 167.013,73.45C167.065,73.534 167.167,73.57 167.377,73.578L167.793,73.602L167.793,73.858C167.341,73.84 166.933,73.832 166.535,73.832C166.111,73.832 165.703,73.84 165.249,73.858L165.249,73.602L165.665,73.578C165.875,73.57 165.981,73.534 166.031,73.45C166.093,73.358 166.111,73.138 166.111,72.82L166.111,69.042C166.111,68.748 166.081,68.512 166.023,68.428C165.961,68.344 165.867,68.302 165.649,68.284L165.259,68.26L165.259,68.002C165.831,68.012 166.325,68.028 166.821,68.028C167.325,68.028 167.829,68.012 168.297,68.002C169.139,67.988 170.095,68.34 170.095,69.292C170.095,70.344 169.157,71.102 168.011,71.102C167.835,71.102 167.663,71.086 167.491,71.052L167.403,70.748C167.593,70.808 167.785,70.834 167.975,70.834C168.679,70.834 169.225,70.294 169.225,69.58C169.225,68.702 168.679,68.324 167.819,68.324C167.429,68.324 167.177,68.366 166.933,68.424M174.935,68.214C173.425,68.214 172.739,69.244 172.739,70.622C172.739,72.096 173.449,73.646 175.165,73.646C176.617,73.646 177.321,72.552 177.321,71.002C177.321,69.334 176.547,68.214 174.935,68.214M174.891,74C173.129,74 171.809,72.824 171.809,70.934C171.809,69.198 173.061,67.86 175.073,67.86C176.929,67.86 178.247,68.87 178.247,70.742C178.247,72.552 176.791,74 174.891,74M181.633,71.094L181.633,72.82C181.633,73.138 181.647,73.358 181.709,73.45C181.763,73.534 181.865,73.57 182.073,73.578L182.489,73.602L182.489,73.858C182.041,73.84 181.633,73.832 181.229,73.832C180.807,73.832 180.397,73.84 179.947,73.858L179.947,73.602L180.365,73.578C180.571,73.57 180.677,73.534 180.729,73.45C180.791,73.358 180.807,73.138 180.807,72.82L180.807,69.042C180.807,68.722 180.791,68.504 180.729,68.412C180.677,68.328 180.571,68.292 180.365,68.284L179.947,68.26L179.947,68.002C180.397,68.02 180.807,68.028 181.229,68.028C181.633,68.028 182.041,68.02 182.489,68.002L182.489,68.26L182.073,68.284C181.865,68.292 181.763,68.328 181.709,68.412C181.647,68.504 181.633,68.722 181.633,69.042L181.633,70.842L184.045,68.562C184.175,68.436 184.297,68.292 184.297,68.234L184.297,68.002C184.573,68.012 184.815,68.028 185.067,68.028C185.309,68.028 185.555,68.012 185.763,68.002L185.763,68.26L185.397,68.276C185.173,68.284 184.939,68.404 184.721,68.596L182.411,70.614L185.277,73.242C185.493,73.432 185.657,73.57 185.813,73.584L185.997,73.602L185.997,73.858C185.831,73.848 185.625,73.832 185.425,73.832C185.215,73.832 185.007,73.848 184.737,73.858L181.719,71.036L181.633,71.094ZM190.691,68.214C189.181,68.214 188.493,69.244 188.493,70.622C188.493,72.096 189.207,73.646 190.925,73.646C192.375,73.646 193.075,72.552 193.075,71.002C193.075,69.334 192.305,68.214 190.691,68.214M190.645,74C188.885,74 187.563,72.824 187.563,70.934C187.563,69.198 188.813,67.86 190.827,67.86C192.687,67.86 194.007,68.87 194.007,70.742C194.007,72.552 192.547,74 190.645,74M202.313,68.214C200.805,68.214 200.121,69.244 200.121,70.622C200.121,72.096 200.829,73.646 202.549,73.646C203.997,73.646 204.703,72.552 204.703,71.002C204.703,69.334 203.929,68.214 202.313,68.214M202.273,74C200.511,74 199.193,72.824 199.193,70.934C199.193,69.198 200.441,67.86 202.455,67.86C204.309,67.86 205.631,68.87 205.631,70.742C205.631,72.552 204.173,74 202.273,74M212.873,72.82L212.873,69.258C212.873,68.938 212.865,68.668 212.839,68.416L211.491,68.416C211.231,68.416 211.163,68.494 211.145,68.694L211.111,69.358L210.843,69.358C210.843,68.906 210.825,68.44 210.783,68.002C211.405,68.002 212.031,68.028 212.655,68.028L213.913,68.028C214.539,68.028 215.163,68.002 215.789,68.002C215.745,68.44 215.727,68.906 215.727,69.358L215.461,69.358L215.425,68.694C215.407,68.494 215.339,68.416 215.077,68.416L213.731,68.416C213.707,68.668 213.699,68.938 213.699,69.258L213.699,72.82C213.699,73.138 213.715,73.356 213.777,73.45C213.827,73.534 213.933,73.57 214.141,73.578L214.557,73.602L214.557,73.858C214.107,73.84 213.699,73.832 213.299,73.832C212.873,73.832 212.465,73.84 212.015,73.858L212.015,73.602L212.431,73.578C212.639,73.57 212.741,73.534 212.795,73.45C212.857,73.356 212.873,73.138 212.873,72.82M218.311,72.82L218.311,69.04C218.311,68.722 218.295,68.504 218.233,68.412C218.183,68.328 218.077,68.292 217.871,68.284L217.455,68.26L217.455,68.002C217.931,68.012 218.427,68.028 218.919,68.028C219.675,68.028 220.471,68.002 220.965,68.002C221.357,68.002 221.749,68.012 222.089,68.028C221.991,68.398 221.949,68.878 221.949,69.308L221.643,69.308L221.643,68.76C221.643,68.654 221.637,68.558 221.567,68.534C221.105,68.366 220.417,68.356 219.865,68.356C219.631,68.356 219.381,68.366 219.137,68.424L219.137,70.674C219.413,70.69 219.727,70.698 220.143,70.698C220.669,70.698 220.965,70.664 221.059,70.606C221.105,70.574 221.121,70.498 221.131,70.386L221.173,69.948L221.437,69.948C221.429,70.294 221.411,70.614 221.411,70.926C221.411,71.24 221.429,71.558 221.437,71.862L221.173,71.862L221.131,71.364C221.121,71.254 221.105,71.178 221.059,71.156C220.965,71.086 220.669,71.052 220.143,71.052C219.727,71.052 219.403,71.052 219.137,71.08L219.137,73.436C219.381,73.498 219.631,73.504 219.865,73.504C220.573,73.504 221.463,73.478 221.619,73.394C221.749,73.33 221.863,72.956 221.923,72.45L222.227,72.45C222.139,72.856 222.089,73.378 222.089,73.832C221.707,73.84 221.017,73.866 220.377,73.858C219.709,73.85 219.025,73.832 218.485,73.832C218.155,73.832 217.871,73.85 217.557,73.858L217.557,73.602L217.871,73.578C218.077,73.558 218.183,73.534 218.233,73.45C218.295,73.358 218.311,73.138 218.311,72.82M229.243,69.042L229.243,72.82C229.243,73.138 229.261,73.358 229.319,73.45C229.375,73.534 229.477,73.57 229.687,73.578L230.103,73.602L230.103,73.858C229.651,73.84 229.243,73.832 228.845,73.832C228.417,73.832 228.011,73.84 227.559,73.858L227.559,73.602L227.977,73.578C228.185,73.57 228.289,73.534 228.341,73.45C228.401,73.358 228.417,73.138 228.417,72.82L228.417,69.042C228.417,68.722 228.401,68.504 228.341,68.412C228.289,68.328 228.185,68.292 227.977,68.284L227.559,68.26L227.559,68.002C228.011,68.02 228.417,68.028 228.845,68.028C229.243,68.028 229.651,68.02 230.103,68.002L230.103,68.26L229.687,68.284C229.477,68.292 229.375,68.328 229.319,68.412C229.261,68.504 229.243,68.722 229.243,69.042M233.483,71.094L233.483,72.82C233.483,73.138 233.501,73.358 233.563,73.45C233.617,73.534 233.721,73.57 233.929,73.578L234.345,73.602L234.345,73.858C233.893,73.84 233.483,73.832 233.085,73.832C232.659,73.832 232.251,73.84 231.803,73.858L231.803,73.602L232.219,73.578C232.427,73.57 232.531,73.534 232.581,73.45C232.643,73.358 232.659,73.138 232.659,72.82L232.659,69.042C232.659,68.722 232.643,68.504 232.581,68.412C232.531,68.328 232.427,68.292 232.219,68.284L231.803,68.26L231.803,68.002C232.251,68.02 232.659,68.028 233.085,68.028C233.483,68.028 233.893,68.02 234.345,68.002L234.345,68.26L233.929,68.284C233.721,68.292 233.617,68.328 233.563,68.412C233.501,68.504 233.483,68.722 233.483,69.042L233.483,70.842L235.897,68.562C236.029,68.436 236.147,68.292 236.147,68.234L236.147,68.002C236.427,68.012 236.669,68.028 236.923,68.028C237.163,68.028 237.407,68.012 237.617,68.002L237.617,68.26L237.251,68.276C237.027,68.284 236.793,68.404 236.575,68.596L234.267,70.614L237.131,73.242C237.347,73.432 237.513,73.57 237.667,73.584L237.851,73.602L237.851,73.858C237.687,73.848 237.477,73.832 237.279,73.832C237.069,73.832 236.861,73.848 236.593,73.858L233.571,71.036L233.483,71.094ZM241.311,71.566L243.507,71.566L242.413,69.056L241.311,71.566ZM242.771,67.936L244.871,72.718C244.949,72.886 245.043,73.114 245.147,73.29C245.241,73.45 245.339,73.558 245.493,73.578L245.789,73.602L245.789,73.858C245.407,73.848 245.027,73.832 244.635,73.832C244.331,73.832 243.951,73.848 243.479,73.858L243.479,73.602L243.889,73.578C244.069,73.57 244.245,73.508 244.245,73.41C244.245,73.29 244.149,73.074 244.061,72.87L243.661,71.906L241.163,71.906L240.923,72.466C240.843,72.642 240.617,73.206 240.617,73.34C240.617,73.516 240.765,73.55 241.035,73.578L241.355,73.602L241.355,73.858C240.939,73.848 240.609,73.832 240.357,73.832C240.019,73.832 239.689,73.848 239.359,73.858L239.359,73.602L239.681,73.578C239.889,73.558 240.053,73.382 240.147,73.164L241.693,69.754C241.963,69.166 242.259,68.542 242.491,67.936L242.771,67.936ZM252.067,71.566L254.265,71.566L253.169,69.056L252.067,71.566ZM253.527,67.936L255.629,72.718C255.705,72.886 255.801,73.114 255.903,73.29C255.999,73.45 256.097,73.558 256.251,73.578L256.549,73.602L256.549,73.858C256.165,73.848 255.785,73.832 255.393,73.832C255.089,73.832 254.707,73.848 254.237,73.858L254.237,73.602L254.645,73.578C254.827,73.57 255.001,73.508 255.001,73.41C255.001,73.29 254.905,73.074 254.819,72.87L254.419,71.906L251.923,71.906L251.679,72.466C251.601,72.642 251.375,73.206 251.375,73.34C251.375,73.516 251.523,73.55 251.791,73.578L252.113,73.602L252.113,73.858C251.697,73.848 251.367,73.832 251.115,73.832C250.777,73.832 250.447,73.848 250.117,73.858L250.117,73.602L250.437,73.578C250.645,73.558 250.811,73.382 250.905,73.164L252.451,69.754C252.721,69.166 253.015,68.542 253.249,67.936L253.527,67.936ZM268.241,69.042L268.241,72.82C268.241,73.138 268.259,73.358 268.319,73.45C268.373,73.534 268.477,73.57 268.685,73.578L269.101,73.602L269.101,73.858C268.649,73.84 268.241,73.832 267.845,73.832C267.417,73.832 267.011,73.84 266.681,73.858L266.681,73.602L266.975,73.578C267.185,73.558 267.287,73.534 267.341,73.45C267.399,73.358 267.417,73.138 267.417,72.82L267.417,69C267.271,69.228 267.147,69.464 267.035,69.69L265.489,72.872C265.325,73.218 265.179,73.588 265.023,73.942L264.849,73.942L262.445,69L262.427,72.82C262.427,73.138 262.445,73.358 262.507,73.45C262.559,73.534 262.661,73.558 262.871,73.578L263.251,73.602L263.251,73.858C262.871,73.848 262.559,73.832 262.211,73.832C261.897,73.832 261.551,73.848 261.203,73.858L261.203,73.602L261.585,73.578C261.793,73.558 261.897,73.534 261.949,73.45C262.011,73.358 262.029,73.138 262.029,72.82L262.029,69.042C262.029,68.722 262.011,68.504 261.949,68.412C261.897,68.328 261.793,68.302 261.585,68.284L261.203,68.26L261.203,68.002C261.473,68.012 261.749,68.028 262.029,68.028C262.307,68.028 262.581,68.012 262.853,68.002L265.143,72.684L267.417,68.002C267.695,68.012 267.965,68.028 268.241,68.028C268.521,68.028 268.799,68.012 269.049,68.002L269.049,68.26L268.685,68.284C268.477,68.302 268.373,68.328 268.319,68.412C268.259,68.504 268.241,68.722 268.241,69.042M272.675,71.566L274.871,71.566L273.777,69.056L272.675,71.566ZM274.135,67.936L276.233,72.718C276.311,72.886 276.405,73.114 276.513,73.29C276.607,73.45 276.703,73.558 276.859,73.578L277.151,73.602L277.151,73.858C276.771,73.848 276.391,73.832 275.997,73.832C275.697,73.832 275.313,73.848 274.845,73.858L274.845,73.602L275.251,73.578C275.435,73.57 275.609,73.508 275.609,73.41C275.609,73.29 275.515,73.074 275.427,72.87L275.027,71.906L272.529,71.906L272.285,72.466C272.207,72.642 271.979,73.206 271.979,73.34C271.979,73.516 272.129,73.55 272.397,73.578L272.719,73.602L272.719,73.858C272.303,73.848 271.971,73.832 271.721,73.832C271.383,73.832 271.053,73.848 270.723,73.858L270.723,73.602L271.043,73.578C271.249,73.558 271.415,73.382 271.513,73.164L273.057,69.754C273.325,69.166 273.621,68.542 273.855,67.936L274.135,67.936ZM279.625,72.03L279.625,69.042C279.625,68.722 279.607,68.504 279.547,68.412C279.493,68.328 279.391,68.292 279.183,68.284L278.765,68.26L278.765,68.002C279.217,68.02 279.625,68.028 280.049,68.028C280.451,68.028 280.859,68.02 281.309,68.002L281.309,68.26L280.893,68.284C280.683,68.292 280.577,68.328 280.527,68.412C280.467,68.504 280.451,68.722 280.451,69.042L280.451,71.938C280.451,73.134 281.091,73.478 282.235,73.478C283.175,73.478 284.025,73.134 284.025,71.738L284.025,69.042C284.025,68.722 284.007,68.504 283.947,68.412C283.893,68.328 283.791,68.302 283.581,68.284L283.201,68.26L283.201,68.002C283.549,68.012 283.893,68.028 284.207,68.028C284.555,68.028 284.867,68.012 285.247,68.002L285.247,68.26L284.867,68.284C284.657,68.302 284.555,68.328 284.499,68.412C284.441,68.504 284.425,68.722 284.425,69.042L284.425,71.474C284.425,73.276 283.721,74 281.969,74C280.491,74 279.625,73.574 279.625,72.03M158.791,66.39L162.039,66.39L162.039,67.02L158.791,67.02L158.791,66.39Z" style="fill:rgb(0,75,52);fill-rule:nonzero;"/>
    </g>
</svg>
